<mxfile host="app.diagrams.net" modified="2022-12-07T07:33:39.386Z" agent="5.0 (Windows NT 10.0; Win64; x64) AppleWebKit/537.36 (KHTML, like Gecko) Chrome/108.0.0.0 Safari/537.36" etag="bCuBHAJy1pQk2SFAWQeK" version="20.6.0" type="github">
  <diagram id="R2lEEEUBdFMjLlhIrx00" name="Page-1">
    <mxGraphModel dx="2447" dy="1991" grid="1" gridSize="10" guides="1" tooltips="1" connect="1" arrows="1" fold="1" page="1" pageScale="1" pageWidth="850" pageHeight="1100" math="0" shadow="0" extFonts="Permanent Marker^https://fonts.googleapis.com/css?family=Permanent+Marker">
      <root>
        <mxCell id="0" />
        <mxCell id="1" parent="0" />
        <mxCell id="Z1BsBpzhcpCgyARzmuZx-11" value="Клиент" style="shape=table;startSize=40;container=1;collapsible=1;childLayout=tableLayout;fixedRows=1;rowLines=0;fontStyle=1;align=center;resizeLast=1;fontSize=12;fillColor=#B2C9AB;strokeColor=#788AA3;fontColor=#46495D;strokeWidth=2;" parent="1" vertex="1">
          <mxGeometry x="-680.11" y="-1090" width="170" height="370" as="geometry" />
        </mxCell>
        <mxCell id="Z1BsBpzhcpCgyARzmuZx-12" value="" style="shape=tableRow;horizontal=0;startSize=0;swimlaneHead=0;swimlaneBody=0;fillColor=none;collapsible=0;dropTarget=0;points=[[0,0.5],[1,0.5]];portConstraint=eastwest;top=0;left=0;right=0;bottom=1;fontSize=12;strokeColor=#788AA3;fontColor=#46495D;strokeWidth=2;" parent="Z1BsBpzhcpCgyARzmuZx-11" vertex="1">
          <mxGeometry y="40" width="170" height="30" as="geometry" />
        </mxCell>
        <mxCell id="Z1BsBpzhcpCgyARzmuZx-13" value="PK" style="shape=partialRectangle;connectable=0;fillColor=none;top=0;left=0;bottom=0;right=0;fontStyle=1;overflow=hidden;fontSize=12;strokeColor=#788AA3;fontColor=#46495D;strokeWidth=2;" parent="Z1BsBpzhcpCgyARzmuZx-12" vertex="1">
          <mxGeometry width="30" height="30" as="geometry">
            <mxRectangle width="30" height="30" as="alternateBounds" />
          </mxGeometry>
        </mxCell>
        <mxCell id="Z1BsBpzhcpCgyARzmuZx-14" value="ID" style="shape=partialRectangle;connectable=0;fillColor=none;top=0;left=0;bottom=0;right=0;align=left;spacingLeft=6;fontStyle=5;overflow=hidden;fontSize=12;strokeColor=#788AA3;fontColor=#46495D;strokeWidth=2;" parent="Z1BsBpzhcpCgyARzmuZx-12" vertex="1">
          <mxGeometry x="30" width="140" height="30" as="geometry">
            <mxRectangle width="140" height="30" as="alternateBounds" />
          </mxGeometry>
        </mxCell>
        <mxCell id="Z1BsBpzhcpCgyARzmuZx-15" value="" style="shape=tableRow;horizontal=0;startSize=0;swimlaneHead=0;swimlaneBody=0;fillColor=none;collapsible=0;dropTarget=0;points=[[0,0.5],[1,0.5]];portConstraint=eastwest;top=0;left=0;right=0;bottom=0;fontSize=12;strokeColor=#788AA3;fontColor=#46495D;strokeWidth=2;" parent="Z1BsBpzhcpCgyARzmuZx-11" vertex="1">
          <mxGeometry y="70" width="170" height="30" as="geometry" />
        </mxCell>
        <mxCell id="Z1BsBpzhcpCgyARzmuZx-16" value="" style="shape=partialRectangle;connectable=0;fillColor=none;top=0;left=0;bottom=0;right=0;editable=1;overflow=hidden;fontSize=12;strokeColor=#788AA3;fontColor=#46495D;strokeWidth=2;" parent="Z1BsBpzhcpCgyARzmuZx-15" vertex="1">
          <mxGeometry width="30" height="30" as="geometry">
            <mxRectangle width="30" height="30" as="alternateBounds" />
          </mxGeometry>
        </mxCell>
        <mxCell id="Z1BsBpzhcpCgyARzmuZx-17" value="Фамилия" style="shape=partialRectangle;connectable=0;fillColor=none;top=0;left=0;bottom=0;right=0;align=left;spacingLeft=6;overflow=hidden;fontSize=12;strokeColor=#788AA3;fontColor=#46495D;strokeWidth=2;" parent="Z1BsBpzhcpCgyARzmuZx-15" vertex="1">
          <mxGeometry x="30" width="140" height="30" as="geometry">
            <mxRectangle width="140" height="30" as="alternateBounds" />
          </mxGeometry>
        </mxCell>
        <mxCell id="Z1BsBpzhcpCgyARzmuZx-18" value="" style="shape=tableRow;horizontal=0;startSize=0;swimlaneHead=0;swimlaneBody=0;fillColor=none;collapsible=0;dropTarget=0;points=[[0,0.5],[1,0.5]];portConstraint=eastwest;top=0;left=0;right=0;bottom=0;fontSize=12;strokeColor=#788AA3;fontColor=#46495D;strokeWidth=2;" parent="Z1BsBpzhcpCgyARzmuZx-11" vertex="1">
          <mxGeometry y="100" width="170" height="30" as="geometry" />
        </mxCell>
        <mxCell id="Z1BsBpzhcpCgyARzmuZx-19" value="" style="shape=partialRectangle;connectable=0;fillColor=none;top=0;left=0;bottom=0;right=0;editable=1;overflow=hidden;fontSize=12;strokeColor=#788AA3;fontColor=#46495D;strokeWidth=2;" parent="Z1BsBpzhcpCgyARzmuZx-18" vertex="1">
          <mxGeometry width="30" height="30" as="geometry">
            <mxRectangle width="30" height="30" as="alternateBounds" />
          </mxGeometry>
        </mxCell>
        <mxCell id="Z1BsBpzhcpCgyARzmuZx-20" value="Имя" style="shape=partialRectangle;connectable=0;fillColor=none;top=0;left=0;bottom=0;right=0;align=left;spacingLeft=6;overflow=hidden;fontSize=12;strokeColor=#788AA3;fontColor=#46495D;strokeWidth=2;" parent="Z1BsBpzhcpCgyARzmuZx-18" vertex="1">
          <mxGeometry x="30" width="140" height="30" as="geometry">
            <mxRectangle width="140" height="30" as="alternateBounds" />
          </mxGeometry>
        </mxCell>
        <mxCell id="Z1BsBpzhcpCgyARzmuZx-21" value="" style="shape=tableRow;horizontal=0;startSize=0;swimlaneHead=0;swimlaneBody=0;fillColor=none;collapsible=0;dropTarget=0;points=[[0,0.5],[1,0.5]];portConstraint=eastwest;top=0;left=0;right=0;bottom=0;fontSize=12;strokeColor=#788AA3;fontColor=#46495D;strokeWidth=2;" parent="Z1BsBpzhcpCgyARzmuZx-11" vertex="1">
          <mxGeometry y="130" width="170" height="30" as="geometry" />
        </mxCell>
        <mxCell id="Z1BsBpzhcpCgyARzmuZx-22" value="" style="shape=partialRectangle;connectable=0;fillColor=none;top=0;left=0;bottom=0;right=0;editable=1;overflow=hidden;fontSize=12;strokeColor=#788AA3;fontColor=#46495D;strokeWidth=2;" parent="Z1BsBpzhcpCgyARzmuZx-21" vertex="1">
          <mxGeometry width="30" height="30" as="geometry">
            <mxRectangle width="30" height="30" as="alternateBounds" />
          </mxGeometry>
        </mxCell>
        <mxCell id="Z1BsBpzhcpCgyARzmuZx-23" value="Отчиство" style="shape=partialRectangle;connectable=0;fillColor=none;top=0;left=0;bottom=0;right=0;align=left;spacingLeft=6;overflow=hidden;fontSize=12;strokeColor=#788AA3;fontColor=#46495D;strokeWidth=2;" parent="Z1BsBpzhcpCgyARzmuZx-21" vertex="1">
          <mxGeometry x="30" width="140" height="30" as="geometry">
            <mxRectangle width="140" height="30" as="alternateBounds" />
          </mxGeometry>
        </mxCell>
        <mxCell id="Z1BsBpzhcpCgyARzmuZx-24" value="" style="shape=tableRow;horizontal=0;startSize=0;swimlaneHead=0;swimlaneBody=0;fillColor=none;collapsible=0;dropTarget=0;points=[[0,0.5],[1,0.5]];portConstraint=eastwest;top=0;left=0;right=0;bottom=0;fontSize=12;strokeColor=#788AA3;fontColor=#46495D;strokeWidth=2;" parent="Z1BsBpzhcpCgyARzmuZx-11" vertex="1">
          <mxGeometry y="160" width="170" height="30" as="geometry" />
        </mxCell>
        <mxCell id="Z1BsBpzhcpCgyARzmuZx-25" value="" style="shape=partialRectangle;connectable=0;fillColor=none;top=0;left=0;bottom=0;right=0;editable=1;overflow=hidden;fontSize=12;strokeColor=#788AA3;fontColor=#46495D;strokeWidth=2;" parent="Z1BsBpzhcpCgyARzmuZx-24" vertex="1">
          <mxGeometry width="30" height="30" as="geometry">
            <mxRectangle width="30" height="30" as="alternateBounds" />
          </mxGeometry>
        </mxCell>
        <mxCell id="Z1BsBpzhcpCgyARzmuZx-26" value="Пол" style="shape=partialRectangle;connectable=0;fillColor=none;top=0;left=0;bottom=0;right=0;align=left;spacingLeft=6;overflow=hidden;fontSize=12;strokeColor=#788AA3;fontColor=#46495D;strokeWidth=2;" parent="Z1BsBpzhcpCgyARzmuZx-24" vertex="1">
          <mxGeometry x="30" width="140" height="30" as="geometry">
            <mxRectangle width="140" height="30" as="alternateBounds" />
          </mxGeometry>
        </mxCell>
        <mxCell id="Z1BsBpzhcpCgyARzmuZx-27" value="" style="shape=tableRow;horizontal=0;startSize=0;swimlaneHead=0;swimlaneBody=0;fillColor=none;collapsible=0;dropTarget=0;points=[[0,0.5],[1,0.5]];portConstraint=eastwest;top=0;left=0;right=0;bottom=0;fontSize=12;strokeColor=#788AA3;fontColor=#46495D;strokeWidth=2;" parent="Z1BsBpzhcpCgyARzmuZx-11" vertex="1">
          <mxGeometry y="190" width="170" height="30" as="geometry" />
        </mxCell>
        <mxCell id="Z1BsBpzhcpCgyARzmuZx-28" value="" style="shape=partialRectangle;connectable=0;fillColor=none;top=0;left=0;bottom=0;right=0;editable=1;overflow=hidden;fontSize=12;strokeColor=#788AA3;fontColor=#46495D;strokeWidth=2;" parent="Z1BsBpzhcpCgyARzmuZx-27" vertex="1">
          <mxGeometry width="30" height="30" as="geometry">
            <mxRectangle width="30" height="30" as="alternateBounds" />
          </mxGeometry>
        </mxCell>
        <mxCell id="Z1BsBpzhcpCgyARzmuZx-29" value="Дата рождения" style="shape=partialRectangle;connectable=0;fillColor=none;top=0;left=0;bottom=0;right=0;align=left;spacingLeft=6;overflow=hidden;fontSize=12;strokeColor=#788AA3;fontColor=#46495D;strokeWidth=2;" parent="Z1BsBpzhcpCgyARzmuZx-27" vertex="1">
          <mxGeometry x="30" width="140" height="30" as="geometry">
            <mxRectangle width="140" height="30" as="alternateBounds" />
          </mxGeometry>
        </mxCell>
        <mxCell id="Z1BsBpzhcpCgyARzmuZx-30" value="" style="shape=tableRow;horizontal=0;startSize=0;swimlaneHead=0;swimlaneBody=0;fillColor=none;collapsible=0;dropTarget=0;points=[[0,0.5],[1,0.5]];portConstraint=eastwest;top=0;left=0;right=0;bottom=0;fontSize=12;strokeColor=#788AA3;fontColor=#46495D;strokeWidth=2;" parent="Z1BsBpzhcpCgyARzmuZx-11" vertex="1">
          <mxGeometry y="220" width="170" height="30" as="geometry" />
        </mxCell>
        <mxCell id="Z1BsBpzhcpCgyARzmuZx-31" value="" style="shape=partialRectangle;connectable=0;fillColor=none;top=0;left=0;bottom=0;right=0;editable=1;overflow=hidden;fontSize=12;strokeColor=#788AA3;fontColor=#46495D;strokeWidth=2;" parent="Z1BsBpzhcpCgyARzmuZx-30" vertex="1">
          <mxGeometry width="30" height="30" as="geometry">
            <mxRectangle width="30" height="30" as="alternateBounds" />
          </mxGeometry>
        </mxCell>
        <mxCell id="Z1BsBpzhcpCgyARzmuZx-32" value="Паспорт" style="shape=partialRectangle;connectable=0;fillColor=none;top=0;left=0;bottom=0;right=0;align=left;spacingLeft=6;overflow=hidden;fontSize=12;strokeColor=#788AA3;fontColor=#46495D;strokeWidth=2;" parent="Z1BsBpzhcpCgyARzmuZx-30" vertex="1">
          <mxGeometry x="30" width="140" height="30" as="geometry">
            <mxRectangle width="140" height="30" as="alternateBounds" />
          </mxGeometry>
        </mxCell>
        <mxCell id="Z1BsBpzhcpCgyARzmuZx-36" value="" style="shape=tableRow;horizontal=0;startSize=0;swimlaneHead=0;swimlaneBody=0;fillColor=none;collapsible=0;dropTarget=0;points=[[0,0.5],[1,0.5]];portConstraint=eastwest;top=0;left=0;right=0;bottom=0;fontSize=12;strokeColor=#788AA3;fontColor=#46495D;strokeWidth=2;" parent="Z1BsBpzhcpCgyARzmuZx-11" vertex="1">
          <mxGeometry y="250" width="170" height="30" as="geometry" />
        </mxCell>
        <mxCell id="Z1BsBpzhcpCgyARzmuZx-37" value="" style="shape=partialRectangle;connectable=0;fillColor=none;top=0;left=0;bottom=0;right=0;editable=1;overflow=hidden;fontSize=12;strokeColor=#788AA3;fontColor=#46495D;strokeWidth=2;" parent="Z1BsBpzhcpCgyARzmuZx-36" vertex="1">
          <mxGeometry width="30" height="30" as="geometry">
            <mxRectangle width="30" height="30" as="alternateBounds" />
          </mxGeometry>
        </mxCell>
        <mxCell id="Z1BsBpzhcpCgyARzmuZx-38" value="Телефон" style="shape=partialRectangle;connectable=0;fillColor=none;top=0;left=0;bottom=0;right=0;align=left;spacingLeft=6;overflow=hidden;fontSize=12;strokeColor=#788AA3;fontColor=#46495D;strokeWidth=2;" parent="Z1BsBpzhcpCgyARzmuZx-36" vertex="1">
          <mxGeometry x="30" width="140" height="30" as="geometry">
            <mxRectangle width="140" height="30" as="alternateBounds" />
          </mxGeometry>
        </mxCell>
        <mxCell id="Z1BsBpzhcpCgyARzmuZx-296" value="" style="shape=tableRow;horizontal=0;startSize=0;swimlaneHead=0;swimlaneBody=0;fillColor=none;collapsible=0;dropTarget=0;points=[[0,0.5],[1,0.5]];portConstraint=eastwest;top=0;left=0;right=0;bottom=0;fontSize=12;strokeColor=#788AA3;fontColor=#46495D;strokeWidth=2;" parent="Z1BsBpzhcpCgyARzmuZx-11" vertex="1">
          <mxGeometry y="280" width="170" height="30" as="geometry" />
        </mxCell>
        <mxCell id="Z1BsBpzhcpCgyARzmuZx-297" value="FK" style="shape=partialRectangle;connectable=0;fillColor=none;top=0;left=0;bottom=0;right=0;editable=1;overflow=hidden;fontSize=12;strokeColor=#788AA3;fontColor=#46495D;strokeWidth=2;" parent="Z1BsBpzhcpCgyARzmuZx-296" vertex="1">
          <mxGeometry width="30" height="30" as="geometry">
            <mxRectangle width="30" height="30" as="alternateBounds" />
          </mxGeometry>
        </mxCell>
        <mxCell id="Z1BsBpzhcpCgyARzmuZx-298" value="Адрес" style="shape=partialRectangle;connectable=0;fillColor=none;top=0;left=0;bottom=0;right=0;align=left;spacingLeft=6;overflow=hidden;fontSize=12;strokeColor=#788AA3;fontColor=#46495D;strokeWidth=2;" parent="Z1BsBpzhcpCgyARzmuZx-296" vertex="1">
          <mxGeometry x="30" width="140" height="30" as="geometry">
            <mxRectangle width="140" height="30" as="alternateBounds" />
          </mxGeometry>
        </mxCell>
        <mxCell id="s5G9YJPdSNpEqPbHZ_q9-67" value="" style="shape=tableRow;horizontal=0;startSize=0;swimlaneHead=0;swimlaneBody=0;fillColor=none;collapsible=0;dropTarget=0;points=[[0,0.5],[1,0.5]];portConstraint=eastwest;top=0;left=0;right=0;bottom=0;fontSize=12;strokeColor=#788AA3;fontColor=#46495D;strokeWidth=2;" parent="Z1BsBpzhcpCgyARzmuZx-11" vertex="1">
          <mxGeometry y="310" width="170" height="30" as="geometry" />
        </mxCell>
        <mxCell id="s5G9YJPdSNpEqPbHZ_q9-68" value="" style="shape=partialRectangle;connectable=0;fillColor=none;top=0;left=0;bottom=0;right=0;editable=1;overflow=hidden;fontSize=12;strokeColor=#788AA3;fontColor=#46495D;strokeWidth=2;" parent="s5G9YJPdSNpEqPbHZ_q9-67" vertex="1">
          <mxGeometry width="30" height="30" as="geometry">
            <mxRectangle width="30" height="30" as="alternateBounds" />
          </mxGeometry>
        </mxCell>
        <mxCell id="s5G9YJPdSNpEqPbHZ_q9-69" value="Семейное положение" style="shape=partialRectangle;connectable=0;fillColor=none;top=0;left=0;bottom=0;right=0;align=left;spacingLeft=6;overflow=hidden;fontSize=12;strokeColor=#788AA3;fontColor=#46495D;strokeWidth=2;" parent="s5G9YJPdSNpEqPbHZ_q9-67" vertex="1">
          <mxGeometry x="30" width="140" height="30" as="geometry">
            <mxRectangle width="140" height="30" as="alternateBounds" />
          </mxGeometry>
        </mxCell>
        <mxCell id="pwTwrPLr_tTxRB1hc8vB-36" value="" style="shape=tableRow;horizontal=0;startSize=0;swimlaneHead=0;swimlaneBody=0;fillColor=none;collapsible=0;dropTarget=0;points=[[0,0.5],[1,0.5]];portConstraint=eastwest;top=0;left=0;right=0;bottom=0;fontSize=12;strokeColor=#788AA3;fontColor=#46495D;strokeWidth=2;" parent="Z1BsBpzhcpCgyARzmuZx-11" vertex="1">
          <mxGeometry y="340" width="170" height="30" as="geometry" />
        </mxCell>
        <mxCell id="pwTwrPLr_tTxRB1hc8vB-37" value="" style="shape=partialRectangle;connectable=0;fillColor=none;top=0;left=0;bottom=0;right=0;editable=1;overflow=hidden;fontSize=12;strokeColor=#788AA3;fontColor=#46495D;strokeWidth=2;" parent="pwTwrPLr_tTxRB1hc8vB-36" vertex="1">
          <mxGeometry width="30" height="30" as="geometry">
            <mxRectangle width="30" height="30" as="alternateBounds" />
          </mxGeometry>
        </mxCell>
        <mxCell id="pwTwrPLr_tTxRB1hc8vB-38" value="Место работы" style="shape=partialRectangle;connectable=0;fillColor=none;top=0;left=0;bottom=0;right=0;align=left;spacingLeft=6;overflow=hidden;fontSize=12;strokeColor=#788AA3;fontColor=#46495D;strokeWidth=2;" parent="pwTwrPLr_tTxRB1hc8vB-36" vertex="1">
          <mxGeometry x="30" width="140" height="30" as="geometry">
            <mxRectangle width="140" height="30" as="alternateBounds" />
          </mxGeometry>
        </mxCell>
        <mxCell id="Z1BsBpzhcpCgyARzmuZx-45" value="Сотрудник" style="shape=table;startSize=40;container=1;collapsible=1;childLayout=tableLayout;fixedRows=1;rowLines=0;fontStyle=1;align=center;resizeLast=1;fontSize=12;fillColor=#B2C9AB;strokeColor=#788AA3;fontColor=#46495D;strokeWidth=2;" parent="1" vertex="1">
          <mxGeometry x="-680.11" y="-90" width="160" height="275" as="geometry">
            <mxRectangle x="980" y="670" width="90" height="30" as="alternateBounds" />
          </mxGeometry>
        </mxCell>
        <mxCell id="Z1BsBpzhcpCgyARzmuZx-46" value="" style="shape=tableRow;horizontal=0;startSize=0;swimlaneHead=0;swimlaneBody=0;fillColor=none;collapsible=0;dropTarget=0;points=[[0,0.5],[1,0.5]];portConstraint=eastwest;top=0;left=0;right=0;bottom=1;fontSize=12;strokeColor=#788AA3;fontColor=#46495D;strokeWidth=2;" parent="Z1BsBpzhcpCgyARzmuZx-45" vertex="1">
          <mxGeometry y="40" width="160" height="25" as="geometry" />
        </mxCell>
        <mxCell id="Z1BsBpzhcpCgyARzmuZx-47" value="PK" style="shape=partialRectangle;connectable=0;fillColor=none;top=0;left=0;bottom=0;right=0;fontStyle=1;overflow=hidden;fontSize=12;strokeColor=#788AA3;fontColor=#46495D;strokeWidth=2;" parent="Z1BsBpzhcpCgyARzmuZx-46" vertex="1">
          <mxGeometry width="30" height="25" as="geometry">
            <mxRectangle width="30" height="25" as="alternateBounds" />
          </mxGeometry>
        </mxCell>
        <mxCell id="Z1BsBpzhcpCgyARzmuZx-48" value="ID" style="shape=partialRectangle;connectable=0;fillColor=none;top=0;left=0;bottom=0;right=0;align=left;spacingLeft=6;fontStyle=5;overflow=hidden;fontSize=12;strokeColor=#788AA3;fontColor=#46495D;strokeWidth=2;" parent="Z1BsBpzhcpCgyARzmuZx-46" vertex="1">
          <mxGeometry x="30" width="130" height="25" as="geometry">
            <mxRectangle width="130" height="25" as="alternateBounds" />
          </mxGeometry>
        </mxCell>
        <mxCell id="Z1BsBpzhcpCgyARzmuZx-49" value="" style="shape=tableRow;horizontal=0;startSize=0;swimlaneHead=0;swimlaneBody=0;fillColor=none;collapsible=0;dropTarget=0;points=[[0,0.5],[1,0.5]];portConstraint=eastwest;top=0;left=0;right=0;bottom=0;fontSize=12;strokeColor=#788AA3;fontColor=#46495D;strokeWidth=2;" parent="Z1BsBpzhcpCgyARzmuZx-45" vertex="1">
          <mxGeometry y="65" width="160" height="30" as="geometry" />
        </mxCell>
        <mxCell id="Z1BsBpzhcpCgyARzmuZx-50" value="" style="shape=partialRectangle;connectable=0;fillColor=none;top=0;left=0;bottom=0;right=0;editable=1;overflow=hidden;fontSize=12;strokeColor=#788AA3;fontColor=#46495D;strokeWidth=2;" parent="Z1BsBpzhcpCgyARzmuZx-49" vertex="1">
          <mxGeometry width="30" height="30" as="geometry">
            <mxRectangle width="30" height="30" as="alternateBounds" />
          </mxGeometry>
        </mxCell>
        <mxCell id="Z1BsBpzhcpCgyARzmuZx-51" value="Фамилия" style="shape=partialRectangle;connectable=0;fillColor=none;top=0;left=0;bottom=0;right=0;align=left;spacingLeft=6;overflow=hidden;fontSize=12;strokeColor=#788AA3;fontColor=#46495D;strokeWidth=2;" parent="Z1BsBpzhcpCgyARzmuZx-49" vertex="1">
          <mxGeometry x="30" width="130" height="30" as="geometry">
            <mxRectangle width="130" height="30" as="alternateBounds" />
          </mxGeometry>
        </mxCell>
        <mxCell id="Z1BsBpzhcpCgyARzmuZx-52" value="" style="shape=tableRow;horizontal=0;startSize=0;swimlaneHead=0;swimlaneBody=0;fillColor=none;collapsible=0;dropTarget=0;points=[[0,0.5],[1,0.5]];portConstraint=eastwest;top=0;left=0;right=0;bottom=0;fontSize=12;strokeColor=#788AA3;fontColor=#46495D;strokeWidth=2;" parent="Z1BsBpzhcpCgyARzmuZx-45" vertex="1">
          <mxGeometry y="95" width="160" height="30" as="geometry" />
        </mxCell>
        <mxCell id="Z1BsBpzhcpCgyARzmuZx-53" value="" style="shape=partialRectangle;connectable=0;fillColor=none;top=0;left=0;bottom=0;right=0;editable=1;overflow=hidden;fontSize=12;strokeColor=#788AA3;fontColor=#46495D;strokeWidth=2;" parent="Z1BsBpzhcpCgyARzmuZx-52" vertex="1">
          <mxGeometry width="30" height="30" as="geometry">
            <mxRectangle width="30" height="30" as="alternateBounds" />
          </mxGeometry>
        </mxCell>
        <mxCell id="Z1BsBpzhcpCgyARzmuZx-54" value="Имя" style="shape=partialRectangle;connectable=0;fillColor=none;top=0;left=0;bottom=0;right=0;align=left;spacingLeft=6;overflow=hidden;fontSize=12;strokeColor=#788AA3;fontColor=#46495D;strokeWidth=2;" parent="Z1BsBpzhcpCgyARzmuZx-52" vertex="1">
          <mxGeometry x="30" width="130" height="30" as="geometry">
            <mxRectangle width="130" height="30" as="alternateBounds" />
          </mxGeometry>
        </mxCell>
        <mxCell id="Z1BsBpzhcpCgyARzmuZx-55" value="" style="shape=tableRow;horizontal=0;startSize=0;swimlaneHead=0;swimlaneBody=0;fillColor=none;collapsible=0;dropTarget=0;points=[[0,0.5],[1,0.5]];portConstraint=eastwest;top=0;left=0;right=0;bottom=0;fontSize=12;strokeColor=#788AA3;fontColor=#46495D;strokeWidth=2;" parent="Z1BsBpzhcpCgyARzmuZx-45" vertex="1">
          <mxGeometry y="125" width="160" height="30" as="geometry" />
        </mxCell>
        <mxCell id="Z1BsBpzhcpCgyARzmuZx-56" value="" style="shape=partialRectangle;connectable=0;fillColor=none;top=0;left=0;bottom=0;right=0;editable=1;overflow=hidden;fontSize=12;strokeColor=#788AA3;fontColor=#46495D;strokeWidth=2;" parent="Z1BsBpzhcpCgyARzmuZx-55" vertex="1">
          <mxGeometry width="30" height="30" as="geometry">
            <mxRectangle width="30" height="30" as="alternateBounds" />
          </mxGeometry>
        </mxCell>
        <mxCell id="Z1BsBpzhcpCgyARzmuZx-57" value="Отчество" style="shape=partialRectangle;connectable=0;fillColor=none;top=0;left=0;bottom=0;right=0;align=left;spacingLeft=6;overflow=hidden;fontSize=12;strokeColor=#788AA3;fontColor=#46495D;strokeWidth=2;" parent="Z1BsBpzhcpCgyARzmuZx-55" vertex="1">
          <mxGeometry x="30" width="130" height="30" as="geometry">
            <mxRectangle width="130" height="30" as="alternateBounds" />
          </mxGeometry>
        </mxCell>
        <mxCell id="Z1BsBpzhcpCgyARzmuZx-58" value="" style="shape=tableRow;horizontal=0;startSize=0;swimlaneHead=0;swimlaneBody=0;fillColor=none;collapsible=0;dropTarget=0;points=[[0,0.5],[1,0.5]];portConstraint=eastwest;top=0;left=0;right=0;bottom=0;fontSize=12;strokeColor=#788AA3;fontColor=#46495D;strokeWidth=2;" parent="Z1BsBpzhcpCgyARzmuZx-45" vertex="1">
          <mxGeometry y="155" width="160" height="30" as="geometry" />
        </mxCell>
        <mxCell id="Z1BsBpzhcpCgyARzmuZx-59" value="" style="shape=partialRectangle;connectable=0;fillColor=none;top=0;left=0;bottom=0;right=0;editable=1;overflow=hidden;fontSize=12;strokeColor=#788AA3;fontColor=#46495D;strokeWidth=2;" parent="Z1BsBpzhcpCgyARzmuZx-58" vertex="1">
          <mxGeometry width="30" height="30" as="geometry">
            <mxRectangle width="30" height="30" as="alternateBounds" />
          </mxGeometry>
        </mxCell>
        <mxCell id="Z1BsBpzhcpCgyARzmuZx-60" value="Пол" style="shape=partialRectangle;connectable=0;fillColor=none;top=0;left=0;bottom=0;right=0;align=left;spacingLeft=6;overflow=hidden;fontSize=12;strokeColor=#788AA3;fontColor=#46495D;strokeWidth=2;" parent="Z1BsBpzhcpCgyARzmuZx-58" vertex="1">
          <mxGeometry x="30" width="130" height="30" as="geometry">
            <mxRectangle width="130" height="30" as="alternateBounds" />
          </mxGeometry>
        </mxCell>
        <mxCell id="Z1BsBpzhcpCgyARzmuZx-61" value="" style="shape=tableRow;horizontal=0;startSize=0;swimlaneHead=0;swimlaneBody=0;fillColor=none;collapsible=0;dropTarget=0;points=[[0,0.5],[1,0.5]];portConstraint=eastwest;top=0;left=0;right=0;bottom=0;fontSize=12;strokeColor=#788AA3;fontColor=#46495D;strokeWidth=2;" parent="Z1BsBpzhcpCgyARzmuZx-45" vertex="1">
          <mxGeometry y="185" width="160" height="30" as="geometry" />
        </mxCell>
        <mxCell id="Z1BsBpzhcpCgyARzmuZx-62" value="" style="shape=partialRectangle;connectable=0;fillColor=none;top=0;left=0;bottom=0;right=0;editable=1;overflow=hidden;fontSize=12;strokeColor=#788AA3;fontColor=#46495D;strokeWidth=2;" parent="Z1BsBpzhcpCgyARzmuZx-61" vertex="1">
          <mxGeometry width="30" height="30" as="geometry">
            <mxRectangle width="30" height="30" as="alternateBounds" />
          </mxGeometry>
        </mxCell>
        <mxCell id="Z1BsBpzhcpCgyARzmuZx-63" value="День рождение" style="shape=partialRectangle;connectable=0;fillColor=none;top=0;left=0;bottom=0;right=0;align=left;spacingLeft=6;overflow=hidden;fontSize=12;strokeColor=#788AA3;fontColor=#46495D;strokeWidth=2;" parent="Z1BsBpzhcpCgyARzmuZx-61" vertex="1">
          <mxGeometry x="30" width="130" height="30" as="geometry">
            <mxRectangle width="130" height="30" as="alternateBounds" />
          </mxGeometry>
        </mxCell>
        <mxCell id="Z1BsBpzhcpCgyARzmuZx-124" value="" style="shape=tableRow;horizontal=0;startSize=0;swimlaneHead=0;swimlaneBody=0;fillColor=none;collapsible=0;dropTarget=0;points=[[0,0.5],[1,0.5]];portConstraint=eastwest;top=0;left=0;right=0;bottom=0;fontSize=12;strokeColor=#788AA3;fontColor=#46495D;strokeWidth=2;" parent="Z1BsBpzhcpCgyARzmuZx-45" vertex="1">
          <mxGeometry y="215" width="160" height="30" as="geometry" />
        </mxCell>
        <mxCell id="Z1BsBpzhcpCgyARzmuZx-125" value="" style="shape=partialRectangle;connectable=0;fillColor=none;top=0;left=0;bottom=0;right=0;editable=1;overflow=hidden;fontSize=12;strokeColor=#788AA3;fontColor=#46495D;strokeWidth=2;" parent="Z1BsBpzhcpCgyARzmuZx-124" vertex="1">
          <mxGeometry width="30" height="30" as="geometry">
            <mxRectangle width="30" height="30" as="alternateBounds" />
          </mxGeometry>
        </mxCell>
        <mxCell id="Z1BsBpzhcpCgyARzmuZx-126" value="Тел." style="shape=partialRectangle;connectable=0;fillColor=none;top=0;left=0;bottom=0;right=0;align=left;spacingLeft=6;overflow=hidden;fontSize=12;strokeColor=#788AA3;fontColor=#46495D;strokeWidth=2;" parent="Z1BsBpzhcpCgyARzmuZx-124" vertex="1">
          <mxGeometry x="30" width="130" height="30" as="geometry">
            <mxRectangle width="130" height="30" as="alternateBounds" />
          </mxGeometry>
        </mxCell>
        <mxCell id="Z1BsBpzhcpCgyARzmuZx-165" value="" style="shape=tableRow;horizontal=0;startSize=0;swimlaneHead=0;swimlaneBody=0;fillColor=none;collapsible=0;dropTarget=0;points=[[0,0.5],[1,0.5]];portConstraint=eastwest;top=0;left=0;right=0;bottom=0;fontSize=12;fontStyle=1;strokeColor=#788AA3;fontColor=#46495D;strokeWidth=2;" parent="Z1BsBpzhcpCgyARzmuZx-45" vertex="1">
          <mxGeometry y="245" width="160" height="30" as="geometry" />
        </mxCell>
        <mxCell id="Z1BsBpzhcpCgyARzmuZx-166" value="FK" style="shape=partialRectangle;connectable=0;fillColor=none;top=0;left=0;bottom=0;right=0;editable=1;overflow=hidden;fontSize=12;fontStyle=1;strokeColor=#788AA3;fontColor=#46495D;strokeWidth=2;" parent="Z1BsBpzhcpCgyARzmuZx-165" vertex="1">
          <mxGeometry width="30" height="30" as="geometry">
            <mxRectangle width="30" height="30" as="alternateBounds" />
          </mxGeometry>
        </mxCell>
        <mxCell id="Z1BsBpzhcpCgyARzmuZx-167" value="Банк" style="shape=partialRectangle;connectable=0;fillColor=none;top=0;left=0;bottom=0;right=0;align=left;spacingLeft=6;overflow=hidden;fontSize=12;fontStyle=1;strokeColor=#788AA3;fontColor=#46495D;strokeWidth=2;" parent="Z1BsBpzhcpCgyARzmuZx-165" vertex="1">
          <mxGeometry x="30" width="130" height="30" as="geometry">
            <mxRectangle width="130" height="30" as="alternateBounds" />
          </mxGeometry>
        </mxCell>
        <mxCell id="Z1BsBpzhcpCgyARzmuZx-143" value="Счета клиента" style="shape=table;startSize=40;container=1;collapsible=1;childLayout=tableLayout;fixedRows=1;rowLines=0;fontStyle=1;align=center;resizeLast=1;fontSize=12;fillColor=#B2C9AB;strokeColor=#788AA3;fontColor=#46495D;strokeWidth=2;" parent="1" vertex="1">
          <mxGeometry x="-70.11000000000001" y="-710" width="200" height="190" as="geometry" />
        </mxCell>
        <mxCell id="Z1BsBpzhcpCgyARzmuZx-144" value="" style="shape=tableRow;horizontal=0;startSize=0;swimlaneHead=0;swimlaneBody=0;fillColor=none;collapsible=0;dropTarget=0;points=[[0,0.5],[1,0.5]];portConstraint=eastwest;top=0;left=0;right=0;bottom=1;fontSize=12;strokeColor=#788AA3;fontColor=#46495D;strokeWidth=2;" parent="Z1BsBpzhcpCgyARzmuZx-143" vertex="1">
          <mxGeometry y="40" width="200" height="30" as="geometry" />
        </mxCell>
        <mxCell id="Z1BsBpzhcpCgyARzmuZx-145" value="PK" style="shape=partialRectangle;connectable=0;fillColor=none;top=0;left=0;bottom=0;right=0;fontStyle=1;overflow=hidden;fontSize=12;strokeColor=#788AA3;fontColor=#46495D;strokeWidth=2;" parent="Z1BsBpzhcpCgyARzmuZx-144" vertex="1">
          <mxGeometry width="30" height="30" as="geometry">
            <mxRectangle width="30" height="30" as="alternateBounds" />
          </mxGeometry>
        </mxCell>
        <mxCell id="Z1BsBpzhcpCgyARzmuZx-146" value="ID" style="shape=partialRectangle;connectable=0;fillColor=none;top=0;left=0;bottom=0;right=0;align=left;spacingLeft=6;fontStyle=5;overflow=hidden;fontSize=12;strokeColor=#788AA3;fontColor=#46495D;strokeWidth=2;" parent="Z1BsBpzhcpCgyARzmuZx-144" vertex="1">
          <mxGeometry x="30" width="170" height="30" as="geometry">
            <mxRectangle width="170" height="30" as="alternateBounds" />
          </mxGeometry>
        </mxCell>
        <mxCell id="l33G5XEg9OQJomPI_eTB-150" value="" style="shape=tableRow;horizontal=0;startSize=0;swimlaneHead=0;swimlaneBody=0;fillColor=none;collapsible=0;dropTarget=0;points=[[0,0.5],[1,0.5]];portConstraint=eastwest;top=0;left=0;right=0;bottom=0;fontSize=12;strokeColor=#788AA3;fontColor=#46495D;strokeWidth=2;" parent="Z1BsBpzhcpCgyARzmuZx-143" vertex="1">
          <mxGeometry y="70" width="200" height="30" as="geometry" />
        </mxCell>
        <mxCell id="l33G5XEg9OQJomPI_eTB-151" value="" style="shape=partialRectangle;connectable=0;fillColor=none;top=0;left=0;bottom=0;right=0;editable=1;overflow=hidden;fontSize=12;strokeColor=#788AA3;fontColor=#46495D;strokeWidth=2;" parent="l33G5XEg9OQJomPI_eTB-150" vertex="1">
          <mxGeometry width="30" height="30" as="geometry">
            <mxRectangle width="30" height="30" as="alternateBounds" />
          </mxGeometry>
        </mxCell>
        <mxCell id="l33G5XEg9OQJomPI_eTB-152" value="Клиент" style="shape=partialRectangle;connectable=0;fillColor=none;top=0;left=0;bottom=0;right=0;align=left;spacingLeft=6;overflow=hidden;fontSize=12;strokeColor=#788AA3;fontColor=#46495D;strokeWidth=2;" parent="l33G5XEg9OQJomPI_eTB-150" vertex="1">
          <mxGeometry x="30" width="170" height="30" as="geometry">
            <mxRectangle width="170" height="30" as="alternateBounds" />
          </mxGeometry>
        </mxCell>
        <mxCell id="Z1BsBpzhcpCgyARzmuZx-147" value="" style="shape=tableRow;horizontal=0;startSize=0;swimlaneHead=0;swimlaneBody=0;fillColor=none;collapsible=0;dropTarget=0;points=[[0,0.5],[1,0.5]];portConstraint=eastwest;top=0;left=0;right=0;bottom=0;fontSize=12;strokeColor=#788AA3;fontColor=#46495D;strokeWidth=2;" parent="Z1BsBpzhcpCgyARzmuZx-143" vertex="1">
          <mxGeometry y="100" width="200" height="30" as="geometry" />
        </mxCell>
        <mxCell id="Z1BsBpzhcpCgyARzmuZx-148" value="FK" style="shape=partialRectangle;connectable=0;fillColor=none;top=0;left=0;bottom=0;right=0;editable=1;overflow=hidden;fontSize=12;fontStyle=1;strokeColor=#788AA3;fontColor=#46495D;strokeWidth=2;" parent="Z1BsBpzhcpCgyARzmuZx-147" vertex="1">
          <mxGeometry width="30" height="30" as="geometry">
            <mxRectangle width="30" height="30" as="alternateBounds" />
          </mxGeometry>
        </mxCell>
        <mxCell id="Z1BsBpzhcpCgyARzmuZx-149" value="Банк" style="shape=partialRectangle;connectable=0;fillColor=none;top=0;left=0;bottom=0;right=0;align=left;spacingLeft=6;overflow=hidden;fontSize=12;fontStyle=1;strokeColor=#788AA3;fontColor=#46495D;strokeWidth=2;" parent="Z1BsBpzhcpCgyARzmuZx-147" vertex="1">
          <mxGeometry x="30" width="170" height="30" as="geometry">
            <mxRectangle width="170" height="30" as="alternateBounds" />
          </mxGeometry>
        </mxCell>
        <mxCell id="Z1BsBpzhcpCgyARzmuZx-150" value="" style="shape=tableRow;horizontal=0;startSize=0;swimlaneHead=0;swimlaneBody=0;fillColor=none;collapsible=0;dropTarget=0;points=[[0,0.5],[1,0.5]];portConstraint=eastwest;top=0;left=0;right=0;bottom=0;fontSize=12;strokeColor=#788AA3;fontColor=#46495D;strokeWidth=2;" parent="Z1BsBpzhcpCgyARzmuZx-143" vertex="1">
          <mxGeometry y="130" width="200" height="30" as="geometry" />
        </mxCell>
        <mxCell id="Z1BsBpzhcpCgyARzmuZx-151" value="" style="shape=partialRectangle;connectable=0;fillColor=none;top=0;left=0;bottom=0;right=0;editable=1;overflow=hidden;fontSize=12;strokeColor=#788AA3;fontColor=#46495D;strokeWidth=2;" parent="Z1BsBpzhcpCgyARzmuZx-150" vertex="1">
          <mxGeometry width="30" height="30" as="geometry">
            <mxRectangle width="30" height="30" as="alternateBounds" />
          </mxGeometry>
        </mxCell>
        <mxCell id="Z1BsBpzhcpCgyARzmuZx-152" value="Тип счета" style="shape=partialRectangle;connectable=0;fillColor=none;top=0;left=0;bottom=0;right=0;align=left;spacingLeft=6;overflow=hidden;fontSize=12;strokeColor=#788AA3;fontColor=#46495D;strokeWidth=2;" parent="Z1BsBpzhcpCgyARzmuZx-150" vertex="1">
          <mxGeometry x="30" width="170" height="30" as="geometry">
            <mxRectangle width="170" height="30" as="alternateBounds" />
          </mxGeometry>
        </mxCell>
        <mxCell id="l33G5XEg9OQJomPI_eTB-144" value="" style="shape=tableRow;horizontal=0;startSize=0;swimlaneHead=0;swimlaneBody=0;fillColor=none;collapsible=0;dropTarget=0;points=[[0,0.5],[1,0.5]];portConstraint=eastwest;top=0;left=0;right=0;bottom=0;fontSize=12;strokeColor=#788AA3;fontColor=#46495D;strokeWidth=2;" parent="Z1BsBpzhcpCgyARzmuZx-143" vertex="1">
          <mxGeometry y="160" width="200" height="30" as="geometry" />
        </mxCell>
        <mxCell id="l33G5XEg9OQJomPI_eTB-145" value="" style="shape=partialRectangle;connectable=0;fillColor=none;top=0;left=0;bottom=0;right=0;editable=1;overflow=hidden;fontSize=12;strokeColor=#788AA3;fontColor=#46495D;strokeWidth=2;" parent="l33G5XEg9OQJomPI_eTB-144" vertex="1">
          <mxGeometry width="30" height="30" as="geometry">
            <mxRectangle width="30" height="30" as="alternateBounds" />
          </mxGeometry>
        </mxCell>
        <mxCell id="l33G5XEg9OQJomPI_eTB-146" value="Номер счета" style="shape=partialRectangle;connectable=0;fillColor=none;top=0;left=0;bottom=0;right=0;align=left;spacingLeft=6;overflow=hidden;fontSize=12;strokeColor=#788AA3;fontColor=#46495D;strokeWidth=2;" parent="l33G5XEg9OQJomPI_eTB-144" vertex="1">
          <mxGeometry x="30" width="170" height="30" as="geometry">
            <mxRectangle width="170" height="30" as="alternateBounds" />
          </mxGeometry>
        </mxCell>
        <mxCell id="Z1BsBpzhcpCgyARzmuZx-171" value="Отделение банка" style="shape=table;startSize=40;container=1;collapsible=1;childLayout=tableLayout;fixedRows=1;rowLines=0;fontStyle=1;align=center;resizeLast=1;fontSize=12;fillColor=#B2C9AB;strokeColor=#788AA3;fontColor=#46495D;strokeWidth=2;" parent="1" vertex="1">
          <mxGeometry x="-350.11" y="-650" width="160" height="310" as="geometry" />
        </mxCell>
        <mxCell id="Z1BsBpzhcpCgyARzmuZx-172" value="" style="shape=tableRow;horizontal=0;startSize=0;swimlaneHead=0;swimlaneBody=0;fillColor=none;collapsible=0;dropTarget=0;points=[[0,0.5],[1,0.5]];portConstraint=eastwest;top=0;left=0;right=0;bottom=1;fontSize=12;strokeColor=#788AA3;fontColor=#46495D;strokeWidth=2;" parent="Z1BsBpzhcpCgyARzmuZx-171" vertex="1">
          <mxGeometry y="40" width="160" height="30" as="geometry" />
        </mxCell>
        <mxCell id="Z1BsBpzhcpCgyARzmuZx-173" value="PK" style="shape=partialRectangle;connectable=0;fillColor=none;top=0;left=0;bottom=0;right=0;fontStyle=1;overflow=hidden;fontSize=12;strokeColor=#788AA3;fontColor=#46495D;strokeWidth=2;" parent="Z1BsBpzhcpCgyARzmuZx-172" vertex="1">
          <mxGeometry width="30" height="30" as="geometry">
            <mxRectangle width="30" height="30" as="alternateBounds" />
          </mxGeometry>
        </mxCell>
        <mxCell id="Z1BsBpzhcpCgyARzmuZx-174" value="ID" style="shape=partialRectangle;connectable=0;fillColor=none;top=0;left=0;bottom=0;right=0;align=left;spacingLeft=6;fontStyle=5;overflow=hidden;fontSize=12;strokeColor=#788AA3;fontColor=#46495D;strokeWidth=2;" parent="Z1BsBpzhcpCgyARzmuZx-172" vertex="1">
          <mxGeometry x="30" width="130" height="30" as="geometry">
            <mxRectangle width="130" height="30" as="alternateBounds" />
          </mxGeometry>
        </mxCell>
        <mxCell id="Z1BsBpzhcpCgyARzmuZx-217" value="" style="shape=tableRow;horizontal=0;startSize=0;swimlaneHead=0;swimlaneBody=0;fillColor=none;collapsible=0;dropTarget=0;points=[[0,0.5],[1,0.5]];portConstraint=eastwest;top=0;left=0;right=0;bottom=0;fontSize=12;strokeColor=#788AA3;fontColor=#46495D;strokeWidth=2;" parent="Z1BsBpzhcpCgyARzmuZx-171" vertex="1">
          <mxGeometry y="70" width="160" height="30" as="geometry" />
        </mxCell>
        <mxCell id="Z1BsBpzhcpCgyARzmuZx-218" value="" style="shape=partialRectangle;connectable=0;fillColor=none;top=0;left=0;bottom=0;right=0;editable=1;overflow=hidden;fontSize=12;strokeColor=#788AA3;fontColor=#46495D;strokeWidth=2;" parent="Z1BsBpzhcpCgyARzmuZx-217" vertex="1">
          <mxGeometry width="30" height="30" as="geometry">
            <mxRectangle width="30" height="30" as="alternateBounds" />
          </mxGeometry>
        </mxCell>
        <mxCell id="Z1BsBpzhcpCgyARzmuZx-219" value="Наименование" style="shape=partialRectangle;connectable=0;fillColor=none;top=0;left=0;bottom=0;right=0;align=left;spacingLeft=6;overflow=hidden;fontSize=12;strokeColor=#788AA3;fontColor=#46495D;strokeWidth=2;" parent="Z1BsBpzhcpCgyARzmuZx-217" vertex="1">
          <mxGeometry x="30" width="130" height="30" as="geometry">
            <mxRectangle width="130" height="30" as="alternateBounds" />
          </mxGeometry>
        </mxCell>
        <mxCell id="Z1BsBpzhcpCgyARzmuZx-175" value="" style="shape=tableRow;horizontal=0;startSize=0;swimlaneHead=0;swimlaneBody=0;fillColor=none;collapsible=0;dropTarget=0;points=[[0,0.5],[1,0.5]];portConstraint=eastwest;top=0;left=0;right=0;bottom=0;fontSize=12;strokeColor=#788AA3;fontColor=#46495D;strokeWidth=2;" parent="Z1BsBpzhcpCgyARzmuZx-171" vertex="1">
          <mxGeometry y="100" width="160" height="30" as="geometry" />
        </mxCell>
        <mxCell id="Z1BsBpzhcpCgyARzmuZx-176" value="" style="shape=partialRectangle;connectable=0;fillColor=none;top=0;left=0;bottom=0;right=0;editable=1;overflow=hidden;fontSize=12;strokeColor=#788AA3;fontColor=#46495D;strokeWidth=2;" parent="Z1BsBpzhcpCgyARzmuZx-175" vertex="1">
          <mxGeometry width="30" height="30" as="geometry">
            <mxRectangle width="30" height="30" as="alternateBounds" />
          </mxGeometry>
        </mxCell>
        <mxCell id="Z1BsBpzhcpCgyARzmuZx-177" value="Банк" style="shape=partialRectangle;connectable=0;fillColor=none;top=0;left=0;bottom=0;right=0;align=left;spacingLeft=6;overflow=hidden;fontSize=12;strokeColor=#788AA3;fontColor=#46495D;strokeWidth=2;" parent="Z1BsBpzhcpCgyARzmuZx-175" vertex="1">
          <mxGeometry x="30" width="130" height="30" as="geometry">
            <mxRectangle width="130" height="30" as="alternateBounds" />
          </mxGeometry>
        </mxCell>
        <mxCell id="pwTwrPLr_tTxRB1hc8vB-97" value="" style="shape=tableRow;horizontal=0;startSize=0;swimlaneHead=0;swimlaneBody=0;fillColor=none;collapsible=0;dropTarget=0;points=[[0,0.5],[1,0.5]];portConstraint=eastwest;top=0;left=0;right=0;bottom=0;fontSize=12;strokeColor=#788AA3;fontColor=#46495D;strokeWidth=2;" parent="Z1BsBpzhcpCgyARzmuZx-171" vertex="1">
          <mxGeometry y="130" width="160" height="30" as="geometry" />
        </mxCell>
        <mxCell id="pwTwrPLr_tTxRB1hc8vB-98" value="" style="shape=partialRectangle;connectable=0;fillColor=none;top=0;left=0;bottom=0;right=0;editable=1;overflow=hidden;fontSize=12;strokeColor=#788AA3;fontColor=#46495D;strokeWidth=2;" parent="pwTwrPLr_tTxRB1hc8vB-97" vertex="1">
          <mxGeometry width="30" height="30" as="geometry">
            <mxRectangle width="30" height="30" as="alternateBounds" />
          </mxGeometry>
        </mxCell>
        <mxCell id="pwTwrPLr_tTxRB1hc8vB-99" value="ИНН банка" style="shape=partialRectangle;connectable=0;fillColor=none;top=0;left=0;bottom=0;right=0;align=left;spacingLeft=6;overflow=hidden;fontSize=12;strokeColor=#788AA3;fontColor=#46495D;strokeWidth=2;" parent="pwTwrPLr_tTxRB1hc8vB-97" vertex="1">
          <mxGeometry x="30" width="130" height="30" as="geometry">
            <mxRectangle width="130" height="30" as="alternateBounds" />
          </mxGeometry>
        </mxCell>
        <mxCell id="pwTwrPLr_tTxRB1hc8vB-91" value="" style="shape=tableRow;horizontal=0;startSize=0;swimlaneHead=0;swimlaneBody=0;fillColor=none;collapsible=0;dropTarget=0;points=[[0,0.5],[1,0.5]];portConstraint=eastwest;top=0;left=0;right=0;bottom=0;fontSize=12;strokeColor=#788AA3;fontColor=#46495D;strokeWidth=2;" parent="Z1BsBpzhcpCgyARzmuZx-171" vertex="1">
          <mxGeometry y="160" width="160" height="30" as="geometry" />
        </mxCell>
        <mxCell id="pwTwrPLr_tTxRB1hc8vB-92" value="" style="shape=partialRectangle;connectable=0;fillColor=none;top=0;left=0;bottom=0;right=0;editable=1;overflow=hidden;fontSize=12;strokeColor=#788AA3;fontColor=#46495D;strokeWidth=2;" parent="pwTwrPLr_tTxRB1hc8vB-91" vertex="1">
          <mxGeometry width="30" height="30" as="geometry">
            <mxRectangle width="30" height="30" as="alternateBounds" />
          </mxGeometry>
        </mxCell>
        <mxCell id="pwTwrPLr_tTxRB1hc8vB-93" value="БИК" style="shape=partialRectangle;connectable=0;fillColor=none;top=0;left=0;bottom=0;right=0;align=left;spacingLeft=6;overflow=hidden;fontSize=12;strokeColor=#788AA3;fontColor=#46495D;strokeWidth=2;" parent="pwTwrPLr_tTxRB1hc8vB-91" vertex="1">
          <mxGeometry x="30" width="130" height="30" as="geometry">
            <mxRectangle width="130" height="30" as="alternateBounds" />
          </mxGeometry>
        </mxCell>
        <mxCell id="pwTwrPLr_tTxRB1hc8vB-94" value="" style="shape=tableRow;horizontal=0;startSize=0;swimlaneHead=0;swimlaneBody=0;fillColor=none;collapsible=0;dropTarget=0;points=[[0,0.5],[1,0.5]];portConstraint=eastwest;top=0;left=0;right=0;bottom=0;fontSize=12;strokeColor=#788AA3;fontColor=#46495D;strokeWidth=2;" parent="Z1BsBpzhcpCgyARzmuZx-171" vertex="1">
          <mxGeometry y="190" width="160" height="30" as="geometry" />
        </mxCell>
        <mxCell id="pwTwrPLr_tTxRB1hc8vB-95" value="" style="shape=partialRectangle;connectable=0;fillColor=none;top=0;left=0;bottom=0;right=0;editable=1;overflow=hidden;fontSize=12;strokeColor=#788AA3;fontColor=#46495D;strokeWidth=2;" parent="pwTwrPLr_tTxRB1hc8vB-94" vertex="1">
          <mxGeometry width="30" height="30" as="geometry">
            <mxRectangle width="30" height="30" as="alternateBounds" />
          </mxGeometry>
        </mxCell>
        <mxCell id="pwTwrPLr_tTxRB1hc8vB-96" value="К.счет" style="shape=partialRectangle;connectable=0;fillColor=none;top=0;left=0;bottom=0;right=0;align=left;spacingLeft=6;overflow=hidden;fontSize=12;strokeColor=#788AA3;fontColor=#46495D;strokeWidth=2;" parent="pwTwrPLr_tTxRB1hc8vB-94" vertex="1">
          <mxGeometry x="30" width="130" height="30" as="geometry">
            <mxRectangle width="130" height="30" as="alternateBounds" />
          </mxGeometry>
        </mxCell>
        <mxCell id="Z1BsBpzhcpCgyARzmuZx-178" value="" style="shape=tableRow;horizontal=0;startSize=0;swimlaneHead=0;swimlaneBody=0;fillColor=none;collapsible=0;dropTarget=0;points=[[0,0.5],[1,0.5]];portConstraint=eastwest;top=0;left=0;right=0;bottom=0;fontSize=12;strokeColor=#788AA3;fontColor=#46495D;strokeWidth=2;" parent="Z1BsBpzhcpCgyARzmuZx-171" vertex="1">
          <mxGeometry y="220" width="160" height="30" as="geometry" />
        </mxCell>
        <mxCell id="Z1BsBpzhcpCgyARzmuZx-179" value="FK" style="shape=partialRectangle;connectable=0;fillColor=none;top=0;left=0;bottom=0;right=0;editable=1;overflow=hidden;fontSize=12;strokeColor=#788AA3;fontColor=#46495D;strokeWidth=2;" parent="Z1BsBpzhcpCgyARzmuZx-178" vertex="1">
          <mxGeometry width="30" height="30" as="geometry">
            <mxRectangle width="30" height="30" as="alternateBounds" />
          </mxGeometry>
        </mxCell>
        <mxCell id="Z1BsBpzhcpCgyARzmuZx-180" value="Адрес" style="shape=partialRectangle;connectable=0;fillColor=none;top=0;left=0;bottom=0;right=0;align=left;spacingLeft=6;overflow=hidden;fontSize=12;strokeColor=#788AA3;fontColor=#46495D;strokeWidth=2;" parent="Z1BsBpzhcpCgyARzmuZx-178" vertex="1">
          <mxGeometry x="30" width="130" height="30" as="geometry">
            <mxRectangle width="130" height="30" as="alternateBounds" />
          </mxGeometry>
        </mxCell>
        <mxCell id="Z1BsBpzhcpCgyARzmuZx-181" value="" style="shape=tableRow;horizontal=0;startSize=0;swimlaneHead=0;swimlaneBody=0;fillColor=none;collapsible=0;dropTarget=0;points=[[0,0.5],[1,0.5]];portConstraint=eastwest;top=0;left=0;right=0;bottom=0;fontSize=12;strokeColor=#788AA3;fontColor=#46495D;strokeWidth=2;" parent="Z1BsBpzhcpCgyARzmuZx-171" vertex="1">
          <mxGeometry y="250" width="160" height="30" as="geometry" />
        </mxCell>
        <mxCell id="Z1BsBpzhcpCgyARzmuZx-182" value="" style="shape=partialRectangle;connectable=0;fillColor=none;top=0;left=0;bottom=0;right=0;editable=1;overflow=hidden;fontSize=12;strokeColor=#788AA3;fontColor=#46495D;strokeWidth=2;" parent="Z1BsBpzhcpCgyARzmuZx-181" vertex="1">
          <mxGeometry width="30" height="30" as="geometry">
            <mxRectangle width="30" height="30" as="alternateBounds" />
          </mxGeometry>
        </mxCell>
        <mxCell id="Z1BsBpzhcpCgyARzmuZx-183" value="Телефон" style="shape=partialRectangle;connectable=0;fillColor=none;top=0;left=0;bottom=0;right=0;align=left;spacingLeft=6;overflow=hidden;fontSize=12;strokeColor=#788AA3;fontColor=#46495D;strokeWidth=2;" parent="Z1BsBpzhcpCgyARzmuZx-181" vertex="1">
          <mxGeometry x="30" width="130" height="30" as="geometry">
            <mxRectangle width="130" height="30" as="alternateBounds" />
          </mxGeometry>
        </mxCell>
        <mxCell id="Z1BsBpzhcpCgyARzmuZx-187" value="" style="shape=tableRow;horizontal=0;startSize=0;swimlaneHead=0;swimlaneBody=0;fillColor=none;collapsible=0;dropTarget=0;points=[[0,0.5],[1,0.5]];portConstraint=eastwest;top=0;left=0;right=0;bottom=0;fontSize=12;strokeColor=#788AA3;fontColor=#46495D;strokeWidth=2;" parent="Z1BsBpzhcpCgyARzmuZx-171" vertex="1">
          <mxGeometry y="280" width="160" height="30" as="geometry" />
        </mxCell>
        <mxCell id="Z1BsBpzhcpCgyARzmuZx-188" value="" style="shape=partialRectangle;connectable=0;fillColor=none;top=0;left=0;bottom=0;right=0;editable=1;overflow=hidden;fontSize=12;strokeColor=#788AA3;fontColor=#46495D;strokeWidth=2;" parent="Z1BsBpzhcpCgyARzmuZx-187" vertex="1">
          <mxGeometry width="30" height="30" as="geometry">
            <mxRectangle width="30" height="30" as="alternateBounds" />
          </mxGeometry>
        </mxCell>
        <mxCell id="Z1BsBpzhcpCgyARzmuZx-189" value="Руководитель" style="shape=partialRectangle;connectable=0;fillColor=none;top=0;left=0;bottom=0;right=0;align=left;spacingLeft=6;overflow=hidden;fontSize=12;strokeColor=#788AA3;fontColor=#46495D;strokeWidth=2;" parent="Z1BsBpzhcpCgyARzmuZx-187" vertex="1">
          <mxGeometry x="30" width="130" height="30" as="geometry">
            <mxRectangle width="130" height="30" as="alternateBounds" />
          </mxGeometry>
        </mxCell>
        <mxCell id="Z1BsBpzhcpCgyARzmuZx-190" value="Банк" style="shape=table;startSize=40;container=1;collapsible=1;childLayout=tableLayout;fixedRows=1;rowLines=0;fontStyle=1;align=center;resizeLast=1;fontSize=12;fillColor=#B2C9AB;strokeColor=#788AA3;fontColor=#46495D;strokeWidth=2;" parent="1" vertex="1">
          <mxGeometry x="-680.11" y="-650" width="160" height="280" as="geometry" />
        </mxCell>
        <mxCell id="Z1BsBpzhcpCgyARzmuZx-191" value="" style="shape=tableRow;horizontal=0;startSize=0;swimlaneHead=0;swimlaneBody=0;fillColor=none;collapsible=0;dropTarget=0;points=[[0,0.5],[1,0.5]];portConstraint=eastwest;top=0;left=0;right=0;bottom=1;fontSize=12;strokeColor=#788AA3;fontColor=#46495D;strokeWidth=2;" parent="Z1BsBpzhcpCgyARzmuZx-190" vertex="1">
          <mxGeometry y="40" width="160" height="30" as="geometry" />
        </mxCell>
        <mxCell id="Z1BsBpzhcpCgyARzmuZx-192" value="PK" style="shape=partialRectangle;connectable=0;fillColor=none;top=0;left=0;bottom=0;right=0;fontStyle=1;overflow=hidden;fontSize=12;strokeColor=#788AA3;fontColor=#46495D;strokeWidth=2;" parent="Z1BsBpzhcpCgyARzmuZx-191" vertex="1">
          <mxGeometry width="30" height="30" as="geometry">
            <mxRectangle width="30" height="30" as="alternateBounds" />
          </mxGeometry>
        </mxCell>
        <mxCell id="Z1BsBpzhcpCgyARzmuZx-193" value="ID" style="shape=partialRectangle;connectable=0;fillColor=none;top=0;left=0;bottom=0;right=0;align=left;spacingLeft=6;fontStyle=5;overflow=hidden;fontSize=12;strokeColor=#788AA3;fontColor=#46495D;strokeWidth=2;" parent="Z1BsBpzhcpCgyARzmuZx-191" vertex="1">
          <mxGeometry x="30" width="130" height="30" as="geometry">
            <mxRectangle width="130" height="30" as="alternateBounds" />
          </mxGeometry>
        </mxCell>
        <mxCell id="Z1BsBpzhcpCgyARzmuZx-194" value="" style="shape=tableRow;horizontal=0;startSize=0;swimlaneHead=0;swimlaneBody=0;fillColor=none;collapsible=0;dropTarget=0;points=[[0,0.5],[1,0.5]];portConstraint=eastwest;top=0;left=0;right=0;bottom=0;fontSize=12;strokeColor=#788AA3;fontColor=#46495D;strokeWidth=2;" parent="Z1BsBpzhcpCgyARzmuZx-190" vertex="1">
          <mxGeometry y="70" width="160" height="30" as="geometry" />
        </mxCell>
        <mxCell id="Z1BsBpzhcpCgyARzmuZx-195" value="" style="shape=partialRectangle;connectable=0;fillColor=none;top=0;left=0;bottom=0;right=0;editable=1;overflow=hidden;fontSize=12;strokeColor=#788AA3;fontColor=#46495D;strokeWidth=2;" parent="Z1BsBpzhcpCgyARzmuZx-194" vertex="1">
          <mxGeometry width="30" height="30" as="geometry">
            <mxRectangle width="30" height="30" as="alternateBounds" />
          </mxGeometry>
        </mxCell>
        <mxCell id="Z1BsBpzhcpCgyARzmuZx-196" value="Наименование" style="shape=partialRectangle;connectable=0;fillColor=none;top=0;left=0;bottom=0;right=0;align=left;spacingLeft=6;overflow=hidden;fontSize=12;strokeColor=#788AA3;fontColor=#46495D;strokeWidth=2;" parent="Z1BsBpzhcpCgyARzmuZx-194" vertex="1">
          <mxGeometry x="30" width="130" height="30" as="geometry">
            <mxRectangle width="130" height="30" as="alternateBounds" />
          </mxGeometry>
        </mxCell>
        <mxCell id="Z1BsBpzhcpCgyARzmuZx-197" value="" style="shape=tableRow;horizontal=0;startSize=0;swimlaneHead=0;swimlaneBody=0;fillColor=none;collapsible=0;dropTarget=0;points=[[0,0.5],[1,0.5]];portConstraint=eastwest;top=0;left=0;right=0;bottom=0;fontSize=12;strokeColor=#788AA3;fontColor=#46495D;strokeWidth=2;" parent="Z1BsBpzhcpCgyARzmuZx-190" vertex="1">
          <mxGeometry y="100" width="160" height="30" as="geometry" />
        </mxCell>
        <mxCell id="Z1BsBpzhcpCgyARzmuZx-198" value="" style="shape=partialRectangle;connectable=0;fillColor=none;top=0;left=0;bottom=0;right=0;editable=1;overflow=hidden;fontSize=12;strokeColor=#788AA3;fontColor=#46495D;strokeWidth=2;" parent="Z1BsBpzhcpCgyARzmuZx-197" vertex="1">
          <mxGeometry width="30" height="30" as="geometry">
            <mxRectangle width="30" height="30" as="alternateBounds" />
          </mxGeometry>
        </mxCell>
        <mxCell id="Z1BsBpzhcpCgyARzmuZx-199" value="БИК" style="shape=partialRectangle;connectable=0;fillColor=none;top=0;left=0;bottom=0;right=0;align=left;spacingLeft=6;overflow=hidden;fontSize=12;strokeColor=#788AA3;fontColor=#46495D;strokeWidth=2;" parent="Z1BsBpzhcpCgyARzmuZx-197" vertex="1">
          <mxGeometry x="30" width="130" height="30" as="geometry">
            <mxRectangle width="130" height="30" as="alternateBounds" />
          </mxGeometry>
        </mxCell>
        <mxCell id="Z1BsBpzhcpCgyARzmuZx-200" value="" style="shape=tableRow;horizontal=0;startSize=0;swimlaneHead=0;swimlaneBody=0;fillColor=none;collapsible=0;dropTarget=0;points=[[0,0.5],[1,0.5]];portConstraint=eastwest;top=0;left=0;right=0;bottom=0;fontSize=12;strokeColor=#788AA3;fontColor=#46495D;strokeWidth=2;" parent="Z1BsBpzhcpCgyARzmuZx-190" vertex="1">
          <mxGeometry y="130" width="160" height="30" as="geometry" />
        </mxCell>
        <mxCell id="Z1BsBpzhcpCgyARzmuZx-201" value="" style="shape=partialRectangle;connectable=0;fillColor=none;top=0;left=0;bottom=0;right=0;editable=1;overflow=hidden;fontSize=12;strokeColor=#788AA3;fontColor=#46495D;strokeWidth=2;" parent="Z1BsBpzhcpCgyARzmuZx-200" vertex="1">
          <mxGeometry width="30" height="30" as="geometry">
            <mxRectangle width="30" height="30" as="alternateBounds" />
          </mxGeometry>
        </mxCell>
        <mxCell id="Z1BsBpzhcpCgyARzmuZx-202" value="К.Счет" style="shape=partialRectangle;connectable=0;fillColor=none;top=0;left=0;bottom=0;right=0;align=left;spacingLeft=6;overflow=hidden;fontSize=12;strokeColor=#788AA3;fontColor=#46495D;strokeWidth=2;" parent="Z1BsBpzhcpCgyARzmuZx-200" vertex="1">
          <mxGeometry x="30" width="130" height="30" as="geometry">
            <mxRectangle width="130" height="30" as="alternateBounds" />
          </mxGeometry>
        </mxCell>
        <mxCell id="Z1BsBpzhcpCgyARzmuZx-206" value="" style="shape=tableRow;horizontal=0;startSize=0;swimlaneHead=0;swimlaneBody=0;fillColor=none;collapsible=0;dropTarget=0;points=[[0,0.5],[1,0.5]];portConstraint=eastwest;top=0;left=0;right=0;bottom=0;fontSize=12;strokeColor=#788AA3;fontColor=#46495D;strokeWidth=2;" parent="Z1BsBpzhcpCgyARzmuZx-190" vertex="1">
          <mxGeometry y="160" width="160" height="30" as="geometry" />
        </mxCell>
        <mxCell id="Z1BsBpzhcpCgyARzmuZx-207" value="" style="shape=partialRectangle;connectable=0;fillColor=none;top=0;left=0;bottom=0;right=0;editable=1;overflow=hidden;fontSize=12;strokeColor=#788AA3;fontColor=#46495D;strokeWidth=2;" parent="Z1BsBpzhcpCgyARzmuZx-206" vertex="1">
          <mxGeometry width="30" height="30" as="geometry">
            <mxRectangle width="30" height="30" as="alternateBounds" />
          </mxGeometry>
        </mxCell>
        <mxCell id="Z1BsBpzhcpCgyARzmuZx-208" value="Телефон" style="shape=partialRectangle;connectable=0;fillColor=none;top=0;left=0;bottom=0;right=0;align=left;spacingLeft=6;overflow=hidden;fontSize=12;fontStyle=0;strokeColor=#788AA3;fontColor=#46495D;strokeWidth=2;" parent="Z1BsBpzhcpCgyARzmuZx-206" vertex="1">
          <mxGeometry x="30" width="130" height="30" as="geometry">
            <mxRectangle width="130" height="30" as="alternateBounds" />
          </mxGeometry>
        </mxCell>
        <mxCell id="Z1BsBpzhcpCgyARzmuZx-209" value="" style="shape=tableRow;horizontal=0;startSize=0;swimlaneHead=0;swimlaneBody=0;fillColor=none;collapsible=0;dropTarget=0;points=[[0,0.5],[1,0.5]];portConstraint=eastwest;top=0;left=0;right=0;bottom=0;fontSize=12;strokeColor=#788AA3;fontColor=#46495D;strokeWidth=2;" parent="Z1BsBpzhcpCgyARzmuZx-190" vertex="1">
          <mxGeometry y="190" width="160" height="30" as="geometry" />
        </mxCell>
        <mxCell id="Z1BsBpzhcpCgyARzmuZx-210" value="" style="shape=partialRectangle;connectable=0;fillColor=none;top=0;left=0;bottom=0;right=0;editable=1;overflow=hidden;fontSize=12;strokeColor=#788AA3;fontColor=#46495D;strokeWidth=2;" parent="Z1BsBpzhcpCgyARzmuZx-209" vertex="1">
          <mxGeometry width="30" height="30" as="geometry">
            <mxRectangle width="30" height="30" as="alternateBounds" />
          </mxGeometry>
        </mxCell>
        <mxCell id="Z1BsBpzhcpCgyARzmuZx-211" value="Сайт" style="shape=partialRectangle;connectable=0;fillColor=none;top=0;left=0;bottom=0;right=0;align=left;spacingLeft=6;overflow=hidden;fontSize=12;fontStyle=0;strokeColor=#788AA3;fontColor=#46495D;strokeWidth=2;" parent="Z1BsBpzhcpCgyARzmuZx-209" vertex="1">
          <mxGeometry x="30" width="130" height="30" as="geometry">
            <mxRectangle width="130" height="30" as="alternateBounds" />
          </mxGeometry>
        </mxCell>
        <mxCell id="Z1BsBpzhcpCgyARzmuZx-203" value="" style="shape=tableRow;horizontal=0;startSize=0;swimlaneHead=0;swimlaneBody=0;fillColor=none;collapsible=0;dropTarget=0;points=[[0,0.5],[1,0.5]];portConstraint=eastwest;top=0;left=0;right=0;bottom=0;fontSize=12;strokeColor=#788AA3;fontColor=#46495D;strokeWidth=2;" parent="Z1BsBpzhcpCgyARzmuZx-190" vertex="1">
          <mxGeometry y="220" width="160" height="30" as="geometry" />
        </mxCell>
        <mxCell id="Z1BsBpzhcpCgyARzmuZx-204" value="FK" style="shape=partialRectangle;connectable=0;fillColor=none;top=0;left=0;bottom=0;right=0;editable=1;overflow=hidden;fontSize=12;strokeColor=#788AA3;fontColor=#46495D;strokeWidth=2;" parent="Z1BsBpzhcpCgyARzmuZx-203" vertex="1">
          <mxGeometry width="30" height="30" as="geometry">
            <mxRectangle width="30" height="30" as="alternateBounds" />
          </mxGeometry>
        </mxCell>
        <mxCell id="Z1BsBpzhcpCgyARzmuZx-205" value="Адрес" style="shape=partialRectangle;connectable=0;fillColor=none;top=0;left=0;bottom=0;right=0;align=left;spacingLeft=6;overflow=hidden;fontSize=12;strokeColor=#788AA3;fontColor=#46495D;strokeWidth=2;" parent="Z1BsBpzhcpCgyARzmuZx-203" vertex="1">
          <mxGeometry x="30" width="130" height="30" as="geometry">
            <mxRectangle width="130" height="30" as="alternateBounds" />
          </mxGeometry>
        </mxCell>
        <mxCell id="Z1BsBpzhcpCgyARzmuZx-212" value="" style="shape=tableRow;horizontal=0;startSize=0;swimlaneHead=0;swimlaneBody=0;fillColor=none;collapsible=0;dropTarget=0;points=[[0,0.5],[1,0.5]];portConstraint=eastwest;top=0;left=0;right=0;bottom=0;fontSize=12;strokeColor=#788AA3;fontColor=#46495D;strokeWidth=2;" parent="Z1BsBpzhcpCgyARzmuZx-190" vertex="1">
          <mxGeometry y="250" width="160" height="30" as="geometry" />
        </mxCell>
        <mxCell id="Z1BsBpzhcpCgyARzmuZx-213" value="" style="shape=partialRectangle;connectable=0;fillColor=none;top=0;left=0;bottom=0;right=0;editable=1;overflow=hidden;fontSize=12;strokeColor=#788AA3;fontColor=#46495D;strokeWidth=2;" parent="Z1BsBpzhcpCgyARzmuZx-212" vertex="1">
          <mxGeometry width="30" height="30" as="geometry">
            <mxRectangle width="30" height="30" as="alternateBounds" />
          </mxGeometry>
        </mxCell>
        <mxCell id="Z1BsBpzhcpCgyARzmuZx-214" value="Руководитель" style="shape=partialRectangle;connectable=0;fillColor=none;top=0;left=0;bottom=0;right=0;align=left;spacingLeft=6;overflow=hidden;fontSize=12;fontStyle=0;strokeColor=#788AA3;fontColor=#46495D;strokeWidth=2;" parent="Z1BsBpzhcpCgyARzmuZx-212" vertex="1">
          <mxGeometry x="30" width="130" height="30" as="geometry">
            <mxRectangle width="130" height="30" as="alternateBounds" />
          </mxGeometry>
        </mxCell>
        <mxCell id="Z1BsBpzhcpCgyARzmuZx-238" value="Кредитные продукты" style="shape=table;startSize=40;container=1;collapsible=1;childLayout=tableLayout;fixedRows=1;rowLines=0;fontStyle=1;align=center;resizeLast=1;fontSize=12;fillColor=#B2C9AB;strokeColor=#788AA3;fontColor=#46495D;strokeWidth=2;" parent="1" vertex="1">
          <mxGeometry x="-350.11" y="-50" width="200" height="280" as="geometry" />
        </mxCell>
        <mxCell id="Z1BsBpzhcpCgyARzmuZx-239" value="" style="shape=tableRow;horizontal=0;startSize=0;swimlaneHead=0;swimlaneBody=0;fillColor=none;collapsible=0;dropTarget=0;points=[[0,0.5],[1,0.5]];portConstraint=eastwest;top=0;left=0;right=0;bottom=1;fontSize=12;strokeColor=#788AA3;fontColor=#46495D;strokeWidth=2;" parent="Z1BsBpzhcpCgyARzmuZx-238" vertex="1">
          <mxGeometry y="40" width="200" height="30" as="geometry" />
        </mxCell>
        <mxCell id="Z1BsBpzhcpCgyARzmuZx-240" value="PK" style="shape=partialRectangle;connectable=0;fillColor=none;top=0;left=0;bottom=0;right=0;fontStyle=1;overflow=hidden;fontSize=12;strokeColor=#788AA3;fontColor=#46495D;strokeWidth=2;" parent="Z1BsBpzhcpCgyARzmuZx-239" vertex="1">
          <mxGeometry width="30" height="30" as="geometry">
            <mxRectangle width="30" height="30" as="alternateBounds" />
          </mxGeometry>
        </mxCell>
        <mxCell id="Z1BsBpzhcpCgyARzmuZx-241" value="ID" style="shape=partialRectangle;connectable=0;fillColor=none;top=0;left=0;bottom=0;right=0;align=left;spacingLeft=6;fontStyle=5;overflow=hidden;fontSize=12;strokeColor=#788AA3;fontColor=#46495D;strokeWidth=2;" parent="Z1BsBpzhcpCgyARzmuZx-239" vertex="1">
          <mxGeometry x="30" width="170" height="30" as="geometry">
            <mxRectangle width="170" height="30" as="alternateBounds" />
          </mxGeometry>
        </mxCell>
        <mxCell id="Z1BsBpzhcpCgyARzmuZx-242" value="" style="shape=tableRow;horizontal=0;startSize=0;swimlaneHead=0;swimlaneBody=0;fillColor=none;collapsible=0;dropTarget=0;points=[[0,0.5],[1,0.5]];portConstraint=eastwest;top=0;left=0;right=0;bottom=0;fontSize=12;strokeColor=#788AA3;fontColor=#46495D;strokeWidth=2;" parent="Z1BsBpzhcpCgyARzmuZx-238" vertex="1">
          <mxGeometry y="70" width="200" height="30" as="geometry" />
        </mxCell>
        <mxCell id="Z1BsBpzhcpCgyARzmuZx-243" value="" style="shape=partialRectangle;connectable=0;fillColor=none;top=0;left=0;bottom=0;right=0;editable=1;overflow=hidden;fontSize=12;strokeColor=#788AA3;fontColor=#46495D;strokeWidth=2;" parent="Z1BsBpzhcpCgyARzmuZx-242" vertex="1">
          <mxGeometry width="30" height="30" as="geometry">
            <mxRectangle width="30" height="30" as="alternateBounds" />
          </mxGeometry>
        </mxCell>
        <mxCell id="Z1BsBpzhcpCgyARzmuZx-244" value="Наименование" style="shape=partialRectangle;connectable=0;fillColor=none;top=0;left=0;bottom=0;right=0;align=left;spacingLeft=6;overflow=hidden;fontSize=12;strokeColor=#788AA3;fontColor=#46495D;strokeWidth=2;" parent="Z1BsBpzhcpCgyARzmuZx-242" vertex="1">
          <mxGeometry x="30" width="170" height="30" as="geometry">
            <mxRectangle width="170" height="30" as="alternateBounds" />
          </mxGeometry>
        </mxCell>
        <mxCell id="Z1BsBpzhcpCgyARzmuZx-245" value="" style="shape=tableRow;horizontal=0;startSize=0;swimlaneHead=0;swimlaneBody=0;fillColor=none;collapsible=0;dropTarget=0;points=[[0,0.5],[1,0.5]];portConstraint=eastwest;top=0;left=0;right=0;bottom=0;fontSize=12;strokeColor=#788AA3;fontColor=#46495D;strokeWidth=2;" parent="Z1BsBpzhcpCgyARzmuZx-238" vertex="1">
          <mxGeometry y="100" width="200" height="30" as="geometry" />
        </mxCell>
        <mxCell id="Z1BsBpzhcpCgyARzmuZx-246" value="" style="shape=partialRectangle;connectable=0;fillColor=none;top=0;left=0;bottom=0;right=0;editable=1;overflow=hidden;fontSize=12;strokeColor=#788AA3;fontColor=#46495D;strokeWidth=2;" parent="Z1BsBpzhcpCgyARzmuZx-245" vertex="1">
          <mxGeometry width="30" height="30" as="geometry">
            <mxRectangle width="30" height="30" as="alternateBounds" />
          </mxGeometry>
        </mxCell>
        <mxCell id="Z1BsBpzhcpCgyARzmuZx-247" value="Срок от до в мес." style="shape=partialRectangle;connectable=0;fillColor=none;top=0;left=0;bottom=0;right=0;align=left;spacingLeft=6;overflow=hidden;fontSize=12;strokeColor=#788AA3;fontColor=#46495D;strokeWidth=2;" parent="Z1BsBpzhcpCgyARzmuZx-245" vertex="1">
          <mxGeometry x="30" width="170" height="30" as="geometry">
            <mxRectangle width="170" height="30" as="alternateBounds" />
          </mxGeometry>
        </mxCell>
        <mxCell id="Z1BsBpzhcpCgyARzmuZx-248" value="" style="shape=tableRow;horizontal=0;startSize=0;swimlaneHead=0;swimlaneBody=0;fillColor=none;collapsible=0;dropTarget=0;points=[[0,0.5],[1,0.5]];portConstraint=eastwest;top=0;left=0;right=0;bottom=0;fontSize=12;strokeColor=#788AA3;fontColor=#46495D;strokeWidth=2;" parent="Z1BsBpzhcpCgyARzmuZx-238" vertex="1">
          <mxGeometry y="130" width="200" height="30" as="geometry" />
        </mxCell>
        <mxCell id="Z1BsBpzhcpCgyARzmuZx-249" value="" style="shape=partialRectangle;connectable=0;fillColor=none;top=0;left=0;bottom=0;right=0;editable=1;overflow=hidden;fontSize=12;strokeColor=#788AA3;fontColor=#46495D;strokeWidth=2;" parent="Z1BsBpzhcpCgyARzmuZx-248" vertex="1">
          <mxGeometry width="30" height="30" as="geometry">
            <mxRectangle width="30" height="30" as="alternateBounds" />
          </mxGeometry>
        </mxCell>
        <mxCell id="Z1BsBpzhcpCgyARzmuZx-250" value="Ставка от до в %" style="shape=partialRectangle;connectable=0;fillColor=none;top=0;left=0;bottom=0;right=0;align=left;spacingLeft=6;overflow=hidden;fontSize=12;strokeColor=#788AA3;fontColor=#46495D;strokeWidth=2;" parent="Z1BsBpzhcpCgyARzmuZx-248" vertex="1">
          <mxGeometry x="30" width="170" height="30" as="geometry">
            <mxRectangle width="170" height="30" as="alternateBounds" />
          </mxGeometry>
        </mxCell>
        <mxCell id="Z1BsBpzhcpCgyARzmuZx-251" value="" style="shape=tableRow;horizontal=0;startSize=0;swimlaneHead=0;swimlaneBody=0;fillColor=none;collapsible=0;dropTarget=0;points=[[0,0.5],[1,0.5]];portConstraint=eastwest;top=0;left=0;right=0;bottom=0;fontSize=12;strokeColor=#788AA3;fontColor=#46495D;strokeWidth=2;" parent="Z1BsBpzhcpCgyARzmuZx-238" vertex="1">
          <mxGeometry y="160" width="200" height="30" as="geometry" />
        </mxCell>
        <mxCell id="Z1BsBpzhcpCgyARzmuZx-252" value="" style="shape=partialRectangle;connectable=0;fillColor=none;top=0;left=0;bottom=0;right=0;editable=1;overflow=hidden;fontSize=12;strokeColor=#788AA3;fontColor=#46495D;strokeWidth=2;" parent="Z1BsBpzhcpCgyARzmuZx-251" vertex="1">
          <mxGeometry width="30" height="30" as="geometry">
            <mxRectangle width="30" height="30" as="alternateBounds" />
          </mxGeometry>
        </mxCell>
        <mxCell id="Z1BsBpzhcpCgyARzmuZx-253" value="Возраст клиента от до  лет" style="shape=partialRectangle;connectable=0;fillColor=none;top=0;left=0;bottom=0;right=0;align=left;spacingLeft=6;overflow=hidden;fontSize=12;strokeColor=#788AA3;fontColor=#46495D;strokeWidth=2;" parent="Z1BsBpzhcpCgyARzmuZx-251" vertex="1">
          <mxGeometry x="30" width="170" height="30" as="geometry">
            <mxRectangle width="170" height="30" as="alternateBounds" />
          </mxGeometry>
        </mxCell>
        <mxCell id="Z1BsBpzhcpCgyARzmuZx-254" value="" style="shape=tableRow;horizontal=0;startSize=0;swimlaneHead=0;swimlaneBody=0;fillColor=none;collapsible=0;dropTarget=0;points=[[0,0.5],[1,0.5]];portConstraint=eastwest;top=0;left=0;right=0;bottom=0;fontSize=12;strokeColor=#788AA3;fontColor=#46495D;strokeWidth=2;" parent="Z1BsBpzhcpCgyARzmuZx-238" vertex="1">
          <mxGeometry y="190" width="200" height="30" as="geometry" />
        </mxCell>
        <mxCell id="Z1BsBpzhcpCgyARzmuZx-255" value="" style="shape=partialRectangle;connectable=0;fillColor=none;top=0;left=0;bottom=0;right=0;editable=1;overflow=hidden;fontSize=12;strokeColor=#788AA3;fontColor=#46495D;strokeWidth=2;" parent="Z1BsBpzhcpCgyARzmuZx-254" vertex="1">
          <mxGeometry width="30" height="30" as="geometry">
            <mxRectangle width="30" height="30" as="alternateBounds" />
          </mxGeometry>
        </mxCell>
        <mxCell id="Z1BsBpzhcpCgyARzmuZx-256" value="Цель кредита" style="shape=partialRectangle;connectable=0;fillColor=none;top=0;left=0;bottom=0;right=0;align=left;spacingLeft=6;overflow=hidden;fontSize=12;strokeColor=#788AA3;fontColor=#46495D;strokeWidth=2;" parent="Z1BsBpzhcpCgyARzmuZx-254" vertex="1">
          <mxGeometry x="30" width="170" height="30" as="geometry">
            <mxRectangle width="170" height="30" as="alternateBounds" />
          </mxGeometry>
        </mxCell>
        <mxCell id="Z1BsBpzhcpCgyARzmuZx-257" value="" style="shape=tableRow;horizontal=0;startSize=0;swimlaneHead=0;swimlaneBody=0;fillColor=none;collapsible=0;dropTarget=0;points=[[0,0.5],[1,0.5]];portConstraint=eastwest;top=0;left=0;right=0;bottom=0;fontSize=12;strokeColor=#788AA3;fontColor=#46495D;strokeWidth=2;" parent="Z1BsBpzhcpCgyARzmuZx-238" vertex="1">
          <mxGeometry y="220" width="200" height="30" as="geometry" />
        </mxCell>
        <mxCell id="Z1BsBpzhcpCgyARzmuZx-258" value="" style="shape=partialRectangle;connectable=0;fillColor=none;top=0;left=0;bottom=0;right=0;editable=1;overflow=hidden;fontSize=12;strokeColor=#788AA3;fontColor=#46495D;strokeWidth=2;" parent="Z1BsBpzhcpCgyARzmuZx-257" vertex="1">
          <mxGeometry width="30" height="30" as="geometry">
            <mxRectangle width="30" height="30" as="alternateBounds" />
          </mxGeometry>
        </mxCell>
        <mxCell id="Z1BsBpzhcpCgyARzmuZx-259" value="Наличие залога" style="shape=partialRectangle;connectable=0;fillColor=none;top=0;left=0;bottom=0;right=0;align=left;spacingLeft=6;overflow=hidden;fontSize=12;strokeColor=#788AA3;fontColor=#46495D;strokeWidth=2;" parent="Z1BsBpzhcpCgyARzmuZx-257" vertex="1">
          <mxGeometry x="30" width="170" height="30" as="geometry">
            <mxRectangle width="170" height="30" as="alternateBounds" />
          </mxGeometry>
        </mxCell>
        <mxCell id="Z1BsBpzhcpCgyARzmuZx-260" value="" style="shape=tableRow;horizontal=0;startSize=0;swimlaneHead=0;swimlaneBody=0;fillColor=none;collapsible=0;dropTarget=0;points=[[0,0.5],[1,0.5]];portConstraint=eastwest;top=0;left=0;right=0;bottom=0;fontSize=12;strokeColor=#788AA3;fontColor=#46495D;strokeWidth=2;" parent="Z1BsBpzhcpCgyARzmuZx-238" vertex="1">
          <mxGeometry y="250" width="200" height="30" as="geometry" />
        </mxCell>
        <mxCell id="Z1BsBpzhcpCgyARzmuZx-261" value="" style="shape=partialRectangle;connectable=0;fillColor=none;top=0;left=0;bottom=0;right=0;editable=1;overflow=hidden;fontSize=12;strokeColor=#788AA3;fontColor=#46495D;strokeWidth=2;" parent="Z1BsBpzhcpCgyARzmuZx-260" vertex="1">
          <mxGeometry width="30" height="30" as="geometry">
            <mxRectangle width="30" height="30" as="alternateBounds" />
          </mxGeometry>
        </mxCell>
        <mxCell id="Z1BsBpzhcpCgyARzmuZx-262" value="Сумма от до тыс.руб." style="shape=partialRectangle;connectable=0;fillColor=none;top=0;left=0;bottom=0;right=0;align=left;spacingLeft=6;overflow=hidden;fontSize=12;strokeColor=#788AA3;fontColor=#46495D;strokeWidth=2;" parent="Z1BsBpzhcpCgyARzmuZx-260" vertex="1">
          <mxGeometry x="30" width="170" height="30" as="geometry">
            <mxRectangle width="170" height="30" as="alternateBounds" />
          </mxGeometry>
        </mxCell>
        <mxCell id="Z1BsBpzhcpCgyARzmuZx-264" value="Адрес" style="shape=table;startSize=40;container=1;collapsible=1;childLayout=tableLayout;fixedRows=1;rowLines=0;fontStyle=1;align=center;resizeLast=1;fontSize=12;fillColor=#B2C9AB;strokeColor=#788AA3;fontColor=#46495D;strokeWidth=2;" parent="1" vertex="1">
          <mxGeometry x="-680.11" y="-290" width="180" height="130" as="geometry" />
        </mxCell>
        <mxCell id="s5G9YJPdSNpEqPbHZ_q9-62" style="edgeStyle=orthogonalEdgeStyle;rounded=0;orthogonalLoop=1;jettySize=auto;html=1;entryX=1;entryY=0.5;entryDx=0;entryDy=0;startArrow=ERmandOne;startFill=0;endArrow=ERzeroToMany;endFill=0;exitX=1;exitY=0.5;exitDx=0;exitDy=0;strokeColor=#788AA3;fontColor=#46495D;strokeWidth=2;fontSize=12;endSize=6;startSize=6;jumpSize=6;" parent="Z1BsBpzhcpCgyARzmuZx-264" source="Z1BsBpzhcpCgyARzmuZx-265" target="dbsTAfBsprb9ZXSNt7f_-4" edge="1">
          <mxGeometry relative="1" as="geometry">
            <Array as="points">
              <mxPoint x="210" y="55" />
              <mxPoint x="210" y="115" />
            </Array>
          </mxGeometry>
        </mxCell>
        <mxCell id="Z1BsBpzhcpCgyARzmuZx-265" value="" style="shape=tableRow;horizontal=0;startSize=0;swimlaneHead=0;swimlaneBody=0;fillColor=none;collapsible=0;dropTarget=0;points=[[0,0.5],[1,0.5]];portConstraint=eastwest;top=0;left=0;right=0;bottom=1;fontSize=12;strokeColor=#788AA3;fontColor=#46495D;strokeWidth=2;" parent="Z1BsBpzhcpCgyARzmuZx-264" vertex="1">
          <mxGeometry y="40" width="180" height="30" as="geometry" />
        </mxCell>
        <mxCell id="Z1BsBpzhcpCgyARzmuZx-266" value="PK" style="shape=partialRectangle;connectable=0;fillColor=none;top=0;left=0;bottom=0;right=0;fontStyle=1;overflow=hidden;fontSize=12;strokeColor=#788AA3;fontColor=#46495D;strokeWidth=2;" parent="Z1BsBpzhcpCgyARzmuZx-265" vertex="1">
          <mxGeometry width="30" height="30" as="geometry">
            <mxRectangle width="30" height="30" as="alternateBounds" />
          </mxGeometry>
        </mxCell>
        <mxCell id="Z1BsBpzhcpCgyARzmuZx-267" value="ID" style="shape=partialRectangle;connectable=0;fillColor=none;top=0;left=0;bottom=0;right=0;align=left;spacingLeft=6;fontStyle=5;overflow=hidden;fontSize=12;strokeColor=#788AA3;fontColor=#46495D;strokeWidth=2;" parent="Z1BsBpzhcpCgyARzmuZx-265" vertex="1">
          <mxGeometry x="30" width="150" height="30" as="geometry">
            <mxRectangle width="150" height="30" as="alternateBounds" />
          </mxGeometry>
        </mxCell>
        <mxCell id="dbsTAfBsprb9ZXSNt7f_-1" value="" style="shape=tableRow;horizontal=0;startSize=0;swimlaneHead=0;swimlaneBody=0;fillColor=none;collapsible=0;dropTarget=0;points=[[0,0.5],[1,0.5]];portConstraint=eastwest;top=0;left=0;right=0;bottom=0;fontSize=12;strokeColor=#788AA3;fontColor=#46495D;strokeWidth=2;" parent="Z1BsBpzhcpCgyARzmuZx-264" vertex="1">
          <mxGeometry y="70" width="180" height="30" as="geometry" />
        </mxCell>
        <mxCell id="dbsTAfBsprb9ZXSNt7f_-2" value="" style="shape=partialRectangle;connectable=0;fillColor=none;top=0;left=0;bottom=0;right=0;editable=1;overflow=hidden;fontSize=12;strokeColor=#788AA3;fontColor=#46495D;strokeWidth=2;" parent="dbsTAfBsprb9ZXSNt7f_-1" vertex="1">
          <mxGeometry width="30" height="30" as="geometry">
            <mxRectangle width="30" height="30" as="alternateBounds" />
          </mxGeometry>
        </mxCell>
        <mxCell id="dbsTAfBsprb9ZXSNt7f_-3" value="Наименование" style="shape=partialRectangle;connectable=0;fillColor=none;top=0;left=0;bottom=0;right=0;align=left;spacingLeft=6;overflow=hidden;fontSize=12;strokeColor=#788AA3;fontColor=#46495D;strokeWidth=2;" parent="dbsTAfBsprb9ZXSNt7f_-1" vertex="1">
          <mxGeometry x="30" width="150" height="30" as="geometry">
            <mxRectangle width="150" height="30" as="alternateBounds" />
          </mxGeometry>
        </mxCell>
        <mxCell id="dbsTAfBsprb9ZXSNt7f_-4" value="" style="shape=tableRow;horizontal=0;startSize=0;swimlaneHead=0;swimlaneBody=0;fillColor=none;collapsible=0;dropTarget=0;points=[[0,0.5],[1,0.5]];portConstraint=eastwest;top=0;left=0;right=0;bottom=0;fontSize=12;strokeColor=#788AA3;fontColor=#46495D;strokeWidth=2;" parent="Z1BsBpzhcpCgyARzmuZx-264" vertex="1">
          <mxGeometry y="100" width="180" height="30" as="geometry" />
        </mxCell>
        <mxCell id="dbsTAfBsprb9ZXSNt7f_-5" value="" style="shape=partialRectangle;connectable=0;fillColor=none;top=0;left=0;bottom=0;right=0;editable=1;overflow=hidden;fontSize=12;strokeColor=#788AA3;fontColor=#46495D;strokeWidth=2;" parent="dbsTAfBsprb9ZXSNt7f_-4" vertex="1">
          <mxGeometry width="30" height="30" as="geometry">
            <mxRectangle width="30" height="30" as="alternateBounds" />
          </mxGeometry>
        </mxCell>
        <mxCell id="dbsTAfBsprb9ZXSNt7f_-6" value="id_отношения" style="shape=partialRectangle;connectable=0;fillColor=none;top=0;left=0;bottom=0;right=0;align=left;spacingLeft=6;overflow=hidden;fontSize=12;strokeColor=#788AA3;fontColor=#46495D;strokeWidth=2;" parent="dbsTAfBsprb9ZXSNt7f_-4" vertex="1">
          <mxGeometry x="30" width="150" height="30" as="geometry">
            <mxRectangle width="150" height="30" as="alternateBounds" />
          </mxGeometry>
        </mxCell>
        <mxCell id="Z1BsBpzhcpCgyARzmuZx-300" value="Заявка" style="shape=table;startSize=40;container=1;collapsible=1;childLayout=tableLayout;fixedRows=1;rowLines=0;fontStyle=1;align=center;resizeLast=1;fontSize=12;fillColor=#B2C9AB;strokeColor=#788AA3;fontColor=#46495D;strokeWidth=2;" parent="1" vertex="1">
          <mxGeometry x="-680.11" y="230" width="180" height="310" as="geometry" />
        </mxCell>
        <mxCell id="Z1BsBpzhcpCgyARzmuZx-301" value="" style="shape=tableRow;horizontal=0;startSize=0;swimlaneHead=0;swimlaneBody=0;fillColor=none;collapsible=0;dropTarget=0;points=[[0,0.5],[1,0.5]];portConstraint=eastwest;top=0;left=0;right=0;bottom=1;fontSize=12;strokeColor=#788AA3;fontColor=#46495D;strokeWidth=2;" parent="Z1BsBpzhcpCgyARzmuZx-300" vertex="1">
          <mxGeometry y="40" width="180" height="30" as="geometry" />
        </mxCell>
        <mxCell id="Z1BsBpzhcpCgyARzmuZx-302" value="PK" style="shape=partialRectangle;connectable=0;fillColor=none;top=0;left=0;bottom=0;right=0;fontStyle=1;overflow=hidden;fontSize=12;strokeColor=#788AA3;fontColor=#46495D;strokeWidth=2;" parent="Z1BsBpzhcpCgyARzmuZx-301" vertex="1">
          <mxGeometry width="30" height="30" as="geometry">
            <mxRectangle width="30" height="30" as="alternateBounds" />
          </mxGeometry>
        </mxCell>
        <mxCell id="Z1BsBpzhcpCgyARzmuZx-303" value="ID" style="shape=partialRectangle;connectable=0;fillColor=none;top=0;left=0;bottom=0;right=0;align=left;spacingLeft=6;fontStyle=5;overflow=hidden;fontSize=12;strokeColor=#788AA3;fontColor=#46495D;strokeWidth=2;" parent="Z1BsBpzhcpCgyARzmuZx-301" vertex="1">
          <mxGeometry x="30" width="150" height="30" as="geometry">
            <mxRectangle width="150" height="30" as="alternateBounds" />
          </mxGeometry>
        </mxCell>
        <mxCell id="Z1BsBpzhcpCgyARzmuZx-304" value="" style="shape=tableRow;horizontal=0;startSize=0;swimlaneHead=0;swimlaneBody=0;fillColor=none;collapsible=0;dropTarget=0;points=[[0,0.5],[1,0.5]];portConstraint=eastwest;top=0;left=0;right=0;bottom=0;fontSize=12;strokeColor=#788AA3;fontColor=#46495D;strokeWidth=2;" parent="Z1BsBpzhcpCgyARzmuZx-300" vertex="1">
          <mxGeometry y="70" width="180" height="30" as="geometry" />
        </mxCell>
        <mxCell id="Z1BsBpzhcpCgyARzmuZx-305" value="" style="shape=partialRectangle;connectable=0;fillColor=none;top=0;left=0;bottom=0;right=0;editable=1;overflow=hidden;fontSize=12;strokeColor=#788AA3;fontColor=#46495D;strokeWidth=2;" parent="Z1BsBpzhcpCgyARzmuZx-304" vertex="1">
          <mxGeometry width="30" height="30" as="geometry">
            <mxRectangle width="30" height="30" as="alternateBounds" />
          </mxGeometry>
        </mxCell>
        <mxCell id="Z1BsBpzhcpCgyARzmuZx-306" value="Клиент" style="shape=partialRectangle;connectable=0;fillColor=none;top=0;left=0;bottom=0;right=0;align=left;spacingLeft=6;overflow=hidden;fontSize=12;strokeColor=#788AA3;fontColor=#46495D;strokeWidth=2;" parent="Z1BsBpzhcpCgyARzmuZx-304" vertex="1">
          <mxGeometry x="30" width="150" height="30" as="geometry">
            <mxRectangle width="150" height="30" as="alternateBounds" />
          </mxGeometry>
        </mxCell>
        <mxCell id="Z1BsBpzhcpCgyARzmuZx-310" value="" style="shape=tableRow;horizontal=0;startSize=0;swimlaneHead=0;swimlaneBody=0;fillColor=none;collapsible=0;dropTarget=0;points=[[0,0.5],[1,0.5]];portConstraint=eastwest;top=0;left=0;right=0;bottom=0;fontSize=12;strokeColor=#788AA3;fontColor=#46495D;strokeWidth=2;" parent="Z1BsBpzhcpCgyARzmuZx-300" vertex="1">
          <mxGeometry y="100" width="180" height="30" as="geometry" />
        </mxCell>
        <mxCell id="Z1BsBpzhcpCgyARzmuZx-311" value="" style="shape=partialRectangle;connectable=0;fillColor=none;top=0;left=0;bottom=0;right=0;editable=1;overflow=hidden;fontSize=12;strokeColor=#788AA3;fontColor=#46495D;strokeWidth=2;" parent="Z1BsBpzhcpCgyARzmuZx-310" vertex="1">
          <mxGeometry width="30" height="30" as="geometry">
            <mxRectangle width="30" height="30" as="alternateBounds" />
          </mxGeometry>
        </mxCell>
        <mxCell id="Z1BsBpzhcpCgyARzmuZx-312" value="Кредитный продукт" style="shape=partialRectangle;connectable=0;fillColor=none;top=0;left=0;bottom=0;right=0;align=left;spacingLeft=6;overflow=hidden;fontSize=12;strokeColor=#788AA3;fontColor=#46495D;strokeWidth=2;" parent="Z1BsBpzhcpCgyARzmuZx-310" vertex="1">
          <mxGeometry x="30" width="150" height="30" as="geometry">
            <mxRectangle width="150" height="30" as="alternateBounds" />
          </mxGeometry>
        </mxCell>
        <mxCell id="Z1BsBpzhcpCgyARzmuZx-307" value="" style="shape=tableRow;horizontal=0;startSize=0;swimlaneHead=0;swimlaneBody=0;fillColor=none;collapsible=0;dropTarget=0;points=[[0,0.5],[1,0.5]];portConstraint=eastwest;top=0;left=0;right=0;bottom=0;fontSize=12;strokeColor=#788AA3;fontColor=#46495D;strokeWidth=2;" parent="Z1BsBpzhcpCgyARzmuZx-300" vertex="1">
          <mxGeometry y="130" width="180" height="30" as="geometry" />
        </mxCell>
        <mxCell id="Z1BsBpzhcpCgyARzmuZx-308" value="" style="shape=partialRectangle;connectable=0;fillColor=none;top=0;left=0;bottom=0;right=0;editable=1;overflow=hidden;fontSize=12;strokeColor=#788AA3;fontColor=#46495D;strokeWidth=2;" parent="Z1BsBpzhcpCgyARzmuZx-307" vertex="1">
          <mxGeometry width="30" height="30" as="geometry">
            <mxRectangle width="30" height="30" as="alternateBounds" />
          </mxGeometry>
        </mxCell>
        <mxCell id="Z1BsBpzhcpCgyARzmuZx-309" value="Сотрудник  офор. заявку" style="shape=partialRectangle;connectable=0;fillColor=none;top=0;left=0;bottom=0;right=0;align=left;spacingLeft=6;overflow=hidden;fontSize=12;strokeColor=#788AA3;fontColor=#46495D;strokeWidth=2;" parent="Z1BsBpzhcpCgyARzmuZx-307" vertex="1">
          <mxGeometry x="30" width="150" height="30" as="geometry">
            <mxRectangle width="150" height="30" as="alternateBounds" />
          </mxGeometry>
        </mxCell>
        <mxCell id="Z1BsBpzhcpCgyARzmuZx-313" value="" style="shape=tableRow;horizontal=0;startSize=0;swimlaneHead=0;swimlaneBody=0;fillColor=none;collapsible=0;dropTarget=0;points=[[0,0.5],[1,0.5]];portConstraint=eastwest;top=0;left=0;right=0;bottom=0;fontSize=12;strokeColor=#788AA3;fontColor=#46495D;strokeWidth=2;" parent="Z1BsBpzhcpCgyARzmuZx-300" vertex="1">
          <mxGeometry y="160" width="180" height="30" as="geometry" />
        </mxCell>
        <mxCell id="Z1BsBpzhcpCgyARzmuZx-314" value="" style="shape=partialRectangle;connectable=0;fillColor=none;top=0;left=0;bottom=0;right=0;editable=1;overflow=hidden;fontSize=12;strokeColor=#788AA3;fontColor=#46495D;strokeWidth=2;" parent="Z1BsBpzhcpCgyARzmuZx-313" vertex="1">
          <mxGeometry width="30" height="30" as="geometry">
            <mxRectangle width="30" height="30" as="alternateBounds" />
          </mxGeometry>
        </mxCell>
        <mxCell id="Z1BsBpzhcpCgyARzmuZx-315" value="Сумма по заявке" style="shape=partialRectangle;connectable=0;fillColor=none;top=0;left=0;bottom=0;right=0;align=left;spacingLeft=6;overflow=hidden;fontSize=12;strokeColor=#788AA3;fontColor=#46495D;strokeWidth=2;" parent="Z1BsBpzhcpCgyARzmuZx-313" vertex="1">
          <mxGeometry x="30" width="150" height="30" as="geometry">
            <mxRectangle width="150" height="30" as="alternateBounds" />
          </mxGeometry>
        </mxCell>
        <mxCell id="Z1BsBpzhcpCgyARzmuZx-316" value="" style="shape=tableRow;horizontal=0;startSize=0;swimlaneHead=0;swimlaneBody=0;fillColor=none;collapsible=0;dropTarget=0;points=[[0,0.5],[1,0.5]];portConstraint=eastwest;top=0;left=0;right=0;bottom=0;fontSize=12;strokeColor=#788AA3;fontColor=#46495D;strokeWidth=2;" parent="Z1BsBpzhcpCgyARzmuZx-300" vertex="1">
          <mxGeometry y="190" width="180" height="30" as="geometry" />
        </mxCell>
        <mxCell id="Z1BsBpzhcpCgyARzmuZx-317" value="" style="shape=partialRectangle;connectable=0;fillColor=none;top=0;left=0;bottom=0;right=0;editable=1;overflow=hidden;fontSize=12;strokeColor=#788AA3;fontColor=#46495D;strokeWidth=2;" parent="Z1BsBpzhcpCgyARzmuZx-316" vertex="1">
          <mxGeometry width="30" height="30" as="geometry">
            <mxRectangle width="30" height="30" as="alternateBounds" />
          </mxGeometry>
        </mxCell>
        <mxCell id="Z1BsBpzhcpCgyARzmuZx-318" value="Срок  по заявке" style="shape=partialRectangle;connectable=0;fillColor=none;top=0;left=0;bottom=0;right=0;align=left;spacingLeft=6;overflow=hidden;fontSize=12;strokeColor=#788AA3;fontColor=#46495D;strokeWidth=2;" parent="Z1BsBpzhcpCgyARzmuZx-316" vertex="1">
          <mxGeometry x="30" width="150" height="30" as="geometry">
            <mxRectangle width="150" height="30" as="alternateBounds" />
          </mxGeometry>
        </mxCell>
        <mxCell id="Z1BsBpzhcpCgyARzmuZx-319" value="" style="shape=tableRow;horizontal=0;startSize=0;swimlaneHead=0;swimlaneBody=0;fillColor=none;collapsible=0;dropTarget=0;points=[[0,0.5],[1,0.5]];portConstraint=eastwest;top=0;left=0;right=0;bottom=0;fontSize=12;strokeColor=#788AA3;fontColor=#46495D;strokeWidth=2;" parent="Z1BsBpzhcpCgyARzmuZx-300" vertex="1">
          <mxGeometry y="220" width="180" height="30" as="geometry" />
        </mxCell>
        <mxCell id="Z1BsBpzhcpCgyARzmuZx-320" value="" style="shape=partialRectangle;connectable=0;fillColor=none;top=0;left=0;bottom=0;right=0;editable=1;overflow=hidden;fontSize=12;strokeColor=#788AA3;fontColor=#46495D;strokeWidth=2;" parent="Z1BsBpzhcpCgyARzmuZx-319" vertex="1">
          <mxGeometry width="30" height="30" as="geometry">
            <mxRectangle width="30" height="30" as="alternateBounds" />
          </mxGeometry>
        </mxCell>
        <mxCell id="Z1BsBpzhcpCgyARzmuZx-321" value="Залог" style="shape=partialRectangle;connectable=0;fillColor=none;top=0;left=0;bottom=0;right=0;align=left;spacingLeft=6;overflow=hidden;fontSize=12;strokeColor=#788AA3;fontColor=#46495D;strokeWidth=2;" parent="Z1BsBpzhcpCgyARzmuZx-319" vertex="1">
          <mxGeometry x="30" width="150" height="30" as="geometry">
            <mxRectangle width="150" height="30" as="alternateBounds" />
          </mxGeometry>
        </mxCell>
        <mxCell id="Z1BsBpzhcpCgyARzmuZx-366" value="" style="shape=tableRow;horizontal=0;startSize=0;swimlaneHead=0;swimlaneBody=0;fillColor=none;collapsible=0;dropTarget=0;points=[[0,0.5],[1,0.5]];portConstraint=eastwest;top=0;left=0;right=0;bottom=0;fontSize=12;strokeColor=#788AA3;fontColor=#46495D;strokeWidth=2;" parent="Z1BsBpzhcpCgyARzmuZx-300" vertex="1">
          <mxGeometry y="250" width="180" height="30" as="geometry" />
        </mxCell>
        <mxCell id="Z1BsBpzhcpCgyARzmuZx-367" value="" style="shape=partialRectangle;connectable=0;fillColor=none;top=0;left=0;bottom=0;right=0;editable=1;overflow=hidden;fontSize=12;strokeColor=#788AA3;fontColor=#46495D;strokeWidth=2;" parent="Z1BsBpzhcpCgyARzmuZx-366" vertex="1">
          <mxGeometry width="30" height="30" as="geometry">
            <mxRectangle width="30" height="30" as="alternateBounds" />
          </mxGeometry>
        </mxCell>
        <mxCell id="Z1BsBpzhcpCgyARzmuZx-368" value="Цель" style="shape=partialRectangle;connectable=0;fillColor=none;top=0;left=0;bottom=0;right=0;align=left;spacingLeft=6;overflow=hidden;fontSize=12;strokeColor=#788AA3;fontColor=#46495D;strokeWidth=2;" parent="Z1BsBpzhcpCgyARzmuZx-366" vertex="1">
          <mxGeometry x="30" width="150" height="30" as="geometry">
            <mxRectangle width="150" height="30" as="alternateBounds" />
          </mxGeometry>
        </mxCell>
        <mxCell id="Z1BsBpzhcpCgyARzmuZx-369" value="" style="shape=tableRow;horizontal=0;startSize=0;swimlaneHead=0;swimlaneBody=0;fillColor=none;collapsible=0;dropTarget=0;points=[[0,0.5],[1,0.5]];portConstraint=eastwest;top=0;left=0;right=0;bottom=0;fontSize=12;strokeColor=#788AA3;fontColor=#46495D;strokeWidth=2;" parent="Z1BsBpzhcpCgyARzmuZx-300" vertex="1">
          <mxGeometry y="280" width="180" height="30" as="geometry" />
        </mxCell>
        <mxCell id="Z1BsBpzhcpCgyARzmuZx-370" value="" style="shape=partialRectangle;connectable=0;fillColor=none;top=0;left=0;bottom=0;right=0;editable=1;overflow=hidden;fontSize=12;strokeColor=#788AA3;fontColor=#46495D;strokeWidth=2;" parent="Z1BsBpzhcpCgyARzmuZx-369" vertex="1">
          <mxGeometry width="30" height="30" as="geometry">
            <mxRectangle width="30" height="30" as="alternateBounds" />
          </mxGeometry>
        </mxCell>
        <mxCell id="Z1BsBpzhcpCgyARzmuZx-371" value="Банк" style="shape=partialRectangle;connectable=0;fillColor=none;top=0;left=0;bottom=0;right=0;align=left;spacingLeft=6;overflow=hidden;fontSize=12;strokeColor=#788AA3;fontColor=#46495D;strokeWidth=2;" parent="Z1BsBpzhcpCgyARzmuZx-369" vertex="1">
          <mxGeometry x="30" width="150" height="30" as="geometry">
            <mxRectangle width="150" height="30" as="alternateBounds" />
          </mxGeometry>
        </mxCell>
        <mxCell id="Z1BsBpzhcpCgyARzmuZx-481" value="Кредитный договор" style="shape=table;startSize=40;container=1;collapsible=1;childLayout=tableLayout;fixedRows=1;rowLines=0;fontStyle=1;align=center;resizeLast=1;fontSize=12;fillColor=#B2C9AB;strokeColor=#788AA3;fontColor=#46495D;strokeWidth=2;" parent="1" vertex="1">
          <mxGeometry x="249.89" y="-650" width="240" height="400" as="geometry" />
        </mxCell>
        <mxCell id="Z1BsBpzhcpCgyARzmuZx-482" value="" style="shape=tableRow;horizontal=0;startSize=0;swimlaneHead=0;swimlaneBody=0;fillColor=none;collapsible=0;dropTarget=0;points=[[0,0.5],[1,0.5]];portConstraint=eastwest;top=0;left=0;right=0;bottom=1;fontSize=12;strokeColor=#788AA3;fontColor=#46495D;strokeWidth=2;" parent="Z1BsBpzhcpCgyARzmuZx-481" vertex="1">
          <mxGeometry y="40" width="240" height="30" as="geometry" />
        </mxCell>
        <mxCell id="Z1BsBpzhcpCgyARzmuZx-483" value="PK" style="shape=partialRectangle;connectable=0;fillColor=none;top=0;left=0;bottom=0;right=0;fontStyle=1;overflow=hidden;fontSize=12;strokeColor=#788AA3;fontColor=#46495D;strokeWidth=2;" parent="Z1BsBpzhcpCgyARzmuZx-482" vertex="1">
          <mxGeometry width="30" height="30" as="geometry">
            <mxRectangle width="30" height="30" as="alternateBounds" />
          </mxGeometry>
        </mxCell>
        <mxCell id="Z1BsBpzhcpCgyARzmuZx-484" value="ID" style="shape=partialRectangle;connectable=0;fillColor=none;top=0;left=0;bottom=0;right=0;align=left;spacingLeft=6;fontStyle=5;overflow=hidden;fontSize=12;strokeColor=#788AA3;fontColor=#46495D;strokeWidth=2;" parent="Z1BsBpzhcpCgyARzmuZx-482" vertex="1">
          <mxGeometry x="30" width="210" height="30" as="geometry">
            <mxRectangle width="210" height="30" as="alternateBounds" />
          </mxGeometry>
        </mxCell>
        <mxCell id="l33G5XEg9OQJomPI_eTB-147" value="" style="shape=tableRow;horizontal=0;startSize=0;swimlaneHead=0;swimlaneBody=0;fillColor=none;collapsible=0;dropTarget=0;points=[[0,0.5],[1,0.5]];portConstraint=eastwest;top=0;left=0;right=0;bottom=0;fontSize=12;strokeColor=#788AA3;fontColor=#46495D;strokeWidth=2;" parent="Z1BsBpzhcpCgyARzmuZx-481" vertex="1">
          <mxGeometry y="70" width="240" height="30" as="geometry" />
        </mxCell>
        <mxCell id="l33G5XEg9OQJomPI_eTB-148" value="" style="shape=partialRectangle;connectable=0;fillColor=none;top=0;left=0;bottom=0;right=0;editable=1;overflow=hidden;fontSize=12;strokeColor=#788AA3;fontColor=#46495D;strokeWidth=2;" parent="l33G5XEg9OQJomPI_eTB-147" vertex="1">
          <mxGeometry width="30" height="30" as="geometry">
            <mxRectangle width="30" height="30" as="alternateBounds" />
          </mxGeometry>
        </mxCell>
        <mxCell id="l33G5XEg9OQJomPI_eTB-149" value="Клиент" style="shape=partialRectangle;connectable=0;fillColor=none;top=0;left=0;bottom=0;right=0;align=left;spacingLeft=6;overflow=hidden;fontSize=12;strokeColor=#788AA3;fontColor=#46495D;strokeWidth=2;" parent="l33G5XEg9OQJomPI_eTB-147" vertex="1">
          <mxGeometry x="30" width="210" height="30" as="geometry">
            <mxRectangle width="210" height="30" as="alternateBounds" />
          </mxGeometry>
        </mxCell>
        <mxCell id="pwTwrPLr_tTxRB1hc8vB-80" value="" style="shape=tableRow;horizontal=0;startSize=0;swimlaneHead=0;swimlaneBody=0;fillColor=none;collapsible=0;dropTarget=0;points=[[0,0.5],[1,0.5]];portConstraint=eastwest;top=0;left=0;right=0;bottom=0;fontSize=12;strokeColor=#788AA3;fontColor=#46495D;strokeWidth=2;" parent="Z1BsBpzhcpCgyARzmuZx-481" vertex="1">
          <mxGeometry y="100" width="240" height="30" as="geometry" />
        </mxCell>
        <mxCell id="pwTwrPLr_tTxRB1hc8vB-81" value="" style="shape=partialRectangle;connectable=0;fillColor=none;top=0;left=0;bottom=0;right=0;editable=1;overflow=hidden;fontSize=12;strokeColor=#788AA3;fontColor=#46495D;strokeWidth=2;" parent="pwTwrPLr_tTxRB1hc8vB-80" vertex="1">
          <mxGeometry width="30" height="30" as="geometry">
            <mxRectangle width="30" height="30" as="alternateBounds" />
          </mxGeometry>
        </mxCell>
        <mxCell id="pwTwrPLr_tTxRB1hc8vB-82" value="Кредитный продукт" style="shape=partialRectangle;connectable=0;fillColor=none;top=0;left=0;bottom=0;right=0;align=left;spacingLeft=6;overflow=hidden;fontSize=12;strokeColor=#788AA3;fontColor=#46495D;strokeWidth=2;" parent="pwTwrPLr_tTxRB1hc8vB-80" vertex="1">
          <mxGeometry x="30" width="210" height="30" as="geometry">
            <mxRectangle width="210" height="30" as="alternateBounds" />
          </mxGeometry>
        </mxCell>
        <mxCell id="Z1BsBpzhcpCgyARzmuZx-588" value="" style="shape=tableRow;horizontal=0;startSize=0;swimlaneHead=0;swimlaneBody=0;fillColor=none;collapsible=0;dropTarget=0;points=[[0,0.5],[1,0.5]];portConstraint=eastwest;top=0;left=0;right=0;bottom=0;fontSize=12;strokeColor=#788AA3;fontColor=#46495D;strokeWidth=2;" parent="Z1BsBpzhcpCgyARzmuZx-481" vertex="1">
          <mxGeometry y="130" width="240" height="30" as="geometry" />
        </mxCell>
        <mxCell id="Z1BsBpzhcpCgyARzmuZx-589" value="" style="shape=partialRectangle;connectable=0;fillColor=none;top=0;left=0;bottom=0;right=0;editable=1;overflow=hidden;fontSize=12;strokeColor=#788AA3;fontColor=#46495D;strokeWidth=2;" parent="Z1BsBpzhcpCgyARzmuZx-588" vertex="1">
          <mxGeometry width="30" height="30" as="geometry">
            <mxRectangle width="30" height="30" as="alternateBounds" />
          </mxGeometry>
        </mxCell>
        <mxCell id="Z1BsBpzhcpCgyARzmuZx-590" value="Дата начала" style="shape=partialRectangle;connectable=0;fillColor=none;top=0;left=0;bottom=0;right=0;align=left;spacingLeft=6;overflow=hidden;fontSize=12;strokeColor=#788AA3;fontColor=#46495D;strokeWidth=2;" parent="Z1BsBpzhcpCgyARzmuZx-588" vertex="1">
          <mxGeometry x="30" width="210" height="30" as="geometry">
            <mxRectangle width="210" height="30" as="alternateBounds" />
          </mxGeometry>
        </mxCell>
        <mxCell id="Z1BsBpzhcpCgyARzmuZx-500" value="" style="shape=tableRow;horizontal=0;startSize=0;swimlaneHead=0;swimlaneBody=0;fillColor=none;collapsible=0;dropTarget=0;points=[[0,0.5],[1,0.5]];portConstraint=eastwest;top=0;left=0;right=0;bottom=0;fontSize=12;strokeColor=#788AA3;fontColor=#46495D;strokeWidth=2;" parent="Z1BsBpzhcpCgyARzmuZx-481" vertex="1">
          <mxGeometry y="160" width="240" height="30" as="geometry" />
        </mxCell>
        <mxCell id="Z1BsBpzhcpCgyARzmuZx-501" value="" style="shape=partialRectangle;connectable=0;fillColor=none;top=0;left=0;bottom=0;right=0;editable=1;overflow=hidden;fontSize=12;strokeColor=#788AA3;fontColor=#46495D;strokeWidth=2;" parent="Z1BsBpzhcpCgyARzmuZx-500" vertex="1">
          <mxGeometry width="30" height="30" as="geometry">
            <mxRectangle width="30" height="30" as="alternateBounds" />
          </mxGeometry>
        </mxCell>
        <mxCell id="Z1BsBpzhcpCgyARzmuZx-502" value="Срок в мес." style="shape=partialRectangle;connectable=0;fillColor=none;top=0;left=0;bottom=0;right=0;align=left;spacingLeft=6;overflow=hidden;fontSize=12;strokeColor=#788AA3;fontColor=#46495D;strokeWidth=2;" parent="Z1BsBpzhcpCgyARzmuZx-500" vertex="1">
          <mxGeometry x="30" width="210" height="30" as="geometry">
            <mxRectangle width="210" height="30" as="alternateBounds" />
          </mxGeometry>
        </mxCell>
        <mxCell id="Z1BsBpzhcpCgyARzmuZx-491" value="" style="shape=tableRow;horizontal=0;startSize=0;swimlaneHead=0;swimlaneBody=0;fillColor=none;collapsible=0;dropTarget=0;points=[[0,0.5],[1,0.5]];portConstraint=eastwest;top=0;left=0;right=0;bottom=0;fontSize=12;strokeColor=#788AA3;fontColor=#46495D;strokeWidth=2;" parent="Z1BsBpzhcpCgyARzmuZx-481" vertex="1">
          <mxGeometry y="190" width="240" height="30" as="geometry" />
        </mxCell>
        <mxCell id="Z1BsBpzhcpCgyARzmuZx-492" value="" style="shape=partialRectangle;connectable=0;fillColor=none;top=0;left=0;bottom=0;right=0;editable=1;overflow=hidden;fontSize=12;strokeColor=#788AA3;fontColor=#46495D;strokeWidth=2;" parent="Z1BsBpzhcpCgyARzmuZx-491" vertex="1">
          <mxGeometry width="30" height="30" as="geometry">
            <mxRectangle width="30" height="30" as="alternateBounds" />
          </mxGeometry>
        </mxCell>
        <mxCell id="Z1BsBpzhcpCgyARzmuZx-493" value="Сумма договора" style="shape=partialRectangle;connectable=0;fillColor=none;top=0;left=0;bottom=0;right=0;align=left;spacingLeft=6;overflow=hidden;fontSize=12;strokeColor=#788AA3;fontColor=#46495D;strokeWidth=2;" parent="Z1BsBpzhcpCgyARzmuZx-491" vertex="1">
          <mxGeometry x="30" width="210" height="30" as="geometry">
            <mxRectangle width="210" height="30" as="alternateBounds" />
          </mxGeometry>
        </mxCell>
        <mxCell id="Z1BsBpzhcpCgyARzmuZx-497" value="" style="shape=tableRow;horizontal=0;startSize=0;swimlaneHead=0;swimlaneBody=0;fillColor=none;collapsible=0;dropTarget=0;points=[[0,0.5],[1,0.5]];portConstraint=eastwest;top=0;left=0;right=0;bottom=0;fontSize=12;strokeColor=#788AA3;fontColor=#46495D;strokeWidth=2;" parent="Z1BsBpzhcpCgyARzmuZx-481" vertex="1">
          <mxGeometry y="220" width="240" height="30" as="geometry" />
        </mxCell>
        <mxCell id="Z1BsBpzhcpCgyARzmuZx-498" value="" style="shape=partialRectangle;connectable=0;fillColor=none;top=0;left=0;bottom=0;right=0;editable=1;overflow=hidden;fontSize=12;strokeColor=#788AA3;fontColor=#46495D;strokeWidth=2;" parent="Z1BsBpzhcpCgyARzmuZx-497" vertex="1">
          <mxGeometry width="30" height="30" as="geometry">
            <mxRectangle width="30" height="30" as="alternateBounds" />
          </mxGeometry>
        </mxCell>
        <mxCell id="Z1BsBpzhcpCgyARzmuZx-499" value="Ставка в %" style="shape=partialRectangle;connectable=0;fillColor=none;top=0;left=0;bottom=0;right=0;align=left;spacingLeft=6;overflow=hidden;fontSize=12;strokeColor=#788AA3;fontColor=#46495D;strokeWidth=2;" parent="Z1BsBpzhcpCgyARzmuZx-497" vertex="1">
          <mxGeometry x="30" width="210" height="30" as="geometry">
            <mxRectangle width="210" height="30" as="alternateBounds" />
          </mxGeometry>
        </mxCell>
        <mxCell id="pwTwrPLr_tTxRB1hc8vB-77" value="" style="shape=tableRow;horizontal=0;startSize=0;swimlaneHead=0;swimlaneBody=0;fillColor=none;collapsible=0;dropTarget=0;points=[[0,0.5],[1,0.5]];portConstraint=eastwest;top=0;left=0;right=0;bottom=0;fontSize=12;strokeColor=#788AA3;fontColor=#46495D;strokeWidth=2;" parent="Z1BsBpzhcpCgyARzmuZx-481" vertex="1">
          <mxGeometry y="250" width="240" height="30" as="geometry" />
        </mxCell>
        <mxCell id="pwTwrPLr_tTxRB1hc8vB-78" value="" style="shape=partialRectangle;connectable=0;fillColor=none;top=0;left=0;bottom=0;right=0;editable=1;overflow=hidden;fontSize=12;strokeColor=#788AA3;fontColor=#46495D;strokeWidth=2;" parent="pwTwrPLr_tTxRB1hc8vB-77" vertex="1">
          <mxGeometry width="30" height="30" as="geometry">
            <mxRectangle width="30" height="30" as="alternateBounds" />
          </mxGeometry>
        </mxCell>
        <mxCell id="pwTwrPLr_tTxRB1hc8vB-79" value="Счет для погашения" style="shape=partialRectangle;connectable=0;fillColor=none;top=0;left=0;bottom=0;right=0;align=left;spacingLeft=6;overflow=hidden;fontSize=12;strokeColor=#788AA3;fontColor=#46495D;strokeWidth=2;" parent="pwTwrPLr_tTxRB1hc8vB-77" vertex="1">
          <mxGeometry x="30" width="210" height="30" as="geometry">
            <mxRectangle width="210" height="30" as="alternateBounds" />
          </mxGeometry>
        </mxCell>
        <mxCell id="Z1BsBpzhcpCgyARzmuZx-488" value="" style="shape=tableRow;horizontal=0;startSize=0;swimlaneHead=0;swimlaneBody=0;fillColor=none;collapsible=0;dropTarget=0;points=[[0,0.5],[1,0.5]];portConstraint=eastwest;top=0;left=0;right=0;bottom=0;fontSize=12;strokeColor=#788AA3;fontColor=#46495D;strokeWidth=2;" parent="Z1BsBpzhcpCgyARzmuZx-481" vertex="1">
          <mxGeometry y="280" width="240" height="30" as="geometry" />
        </mxCell>
        <mxCell id="Z1BsBpzhcpCgyARzmuZx-489" value="" style="shape=partialRectangle;connectable=0;fillColor=none;top=0;left=0;bottom=0;right=0;editable=1;overflow=hidden;fontSize=12;strokeColor=#788AA3;fontColor=#46495D;strokeWidth=2;" parent="Z1BsBpzhcpCgyARzmuZx-488" vertex="1">
          <mxGeometry width="30" height="30" as="geometry">
            <mxRectangle width="30" height="30" as="alternateBounds" />
          </mxGeometry>
        </mxCell>
        <mxCell id="Z1BsBpzhcpCgyARzmuZx-490" value="График" style="shape=partialRectangle;connectable=0;fillColor=none;top=0;left=0;bottom=0;right=0;align=left;spacingLeft=6;overflow=hidden;fontSize=12;strokeColor=#788AA3;fontColor=#46495D;strokeWidth=2;" parent="Z1BsBpzhcpCgyARzmuZx-488" vertex="1">
          <mxGeometry x="30" width="210" height="30" as="geometry">
            <mxRectangle width="210" height="30" as="alternateBounds" />
          </mxGeometry>
        </mxCell>
        <mxCell id="Z1BsBpzhcpCgyARzmuZx-494" value="" style="shape=tableRow;horizontal=0;startSize=0;swimlaneHead=0;swimlaneBody=0;fillColor=none;collapsible=0;dropTarget=0;points=[[0,0.5],[1,0.5]];portConstraint=eastwest;top=0;left=0;right=0;bottom=0;fontSize=12;strokeColor=#788AA3;fontColor=#46495D;strokeWidth=2;" parent="Z1BsBpzhcpCgyARzmuZx-481" vertex="1">
          <mxGeometry y="310" width="240" height="30" as="geometry" />
        </mxCell>
        <mxCell id="Z1BsBpzhcpCgyARzmuZx-495" value="" style="shape=partialRectangle;connectable=0;fillColor=none;top=0;left=0;bottom=0;right=0;editable=1;overflow=hidden;fontSize=12;strokeColor=#788AA3;fontColor=#46495D;strokeWidth=2;" parent="Z1BsBpzhcpCgyARzmuZx-494" vertex="1">
          <mxGeometry width="30" height="30" as="geometry">
            <mxRectangle width="30" height="30" as="alternateBounds" />
          </mxGeometry>
        </mxCell>
        <mxCell id="Z1BsBpzhcpCgyARzmuZx-496" value="Сотрудник  офор. договор" style="shape=partialRectangle;connectable=0;fillColor=none;top=0;left=0;bottom=0;right=0;align=left;spacingLeft=6;overflow=hidden;fontSize=12;strokeColor=#788AA3;fontColor=#46495D;strokeWidth=2;" parent="Z1BsBpzhcpCgyARzmuZx-494" vertex="1">
          <mxGeometry x="30" width="210" height="30" as="geometry">
            <mxRectangle width="210" height="30" as="alternateBounds" />
          </mxGeometry>
        </mxCell>
        <mxCell id="Z1BsBpzhcpCgyARzmuZx-591" value="" style="shape=tableRow;horizontal=0;startSize=0;swimlaneHead=0;swimlaneBody=0;fillColor=none;collapsible=0;dropTarget=0;points=[[0,0.5],[1,0.5]];portConstraint=eastwest;top=0;left=0;right=0;bottom=0;fontSize=12;strokeColor=#788AA3;fontColor=#46495D;strokeWidth=2;" parent="Z1BsBpzhcpCgyARzmuZx-481" vertex="1">
          <mxGeometry y="340" width="240" height="30" as="geometry" />
        </mxCell>
        <mxCell id="Z1BsBpzhcpCgyARzmuZx-592" value="" style="shape=partialRectangle;connectable=0;fillColor=none;top=0;left=0;bottom=0;right=0;editable=1;overflow=hidden;fontSize=12;strokeColor=#788AA3;fontColor=#46495D;strokeWidth=2;" parent="Z1BsBpzhcpCgyARzmuZx-591" vertex="1">
          <mxGeometry width="30" height="30" as="geometry">
            <mxRectangle width="30" height="30" as="alternateBounds" />
          </mxGeometry>
        </mxCell>
        <mxCell id="Z1BsBpzhcpCgyARzmuZx-593" value="Дата закрытия по графику" style="shape=partialRectangle;connectable=0;fillColor=none;top=0;left=0;bottom=0;right=0;align=left;spacingLeft=6;overflow=hidden;fontSize=12;strokeColor=#788AA3;fontColor=#46495D;strokeWidth=2;" parent="Z1BsBpzhcpCgyARzmuZx-591" vertex="1">
          <mxGeometry x="30" width="210" height="30" as="geometry">
            <mxRectangle width="210" height="30" as="alternateBounds" />
          </mxGeometry>
        </mxCell>
        <mxCell id="I0bmYpNQW_zSe12yget0-5" value="" style="shape=tableRow;horizontal=0;startSize=0;swimlaneHead=0;swimlaneBody=0;fillColor=none;collapsible=0;dropTarget=0;points=[[0,0.5],[1,0.5]];portConstraint=eastwest;top=0;left=0;right=0;bottom=0;fontSize=12;strokeColor=#788AA3;fontColor=#46495D;strokeWidth=2;" vertex="1" parent="Z1BsBpzhcpCgyARzmuZx-481">
          <mxGeometry y="370" width="240" height="30" as="geometry" />
        </mxCell>
        <mxCell id="I0bmYpNQW_zSe12yget0-6" value="" style="shape=partialRectangle;connectable=0;fillColor=none;top=0;left=0;bottom=0;right=0;editable=1;overflow=hidden;fontSize=12;strokeColor=#788AA3;fontColor=#46495D;strokeWidth=2;" vertex="1" parent="I0bmYpNQW_zSe12yget0-5">
          <mxGeometry width="30" height="30" as="geometry">
            <mxRectangle width="30" height="30" as="alternateBounds" />
          </mxGeometry>
        </mxCell>
        <mxCell id="I0bmYpNQW_zSe12yget0-7" value="Фактические операции по договору" style="shape=partialRectangle;connectable=0;fillColor=none;top=0;left=0;bottom=0;right=0;align=left;spacingLeft=6;overflow=hidden;fontSize=12;strokeColor=#788AA3;fontColor=#46495D;strokeWidth=2;" vertex="1" parent="I0bmYpNQW_zSe12yget0-5">
          <mxGeometry x="30" width="210" height="30" as="geometry">
            <mxRectangle width="210" height="30" as="alternateBounds" />
          </mxGeometry>
        </mxCell>
        <mxCell id="l33G5XEg9OQJomPI_eTB-128" style="edgeStyle=orthogonalEdgeStyle;rounded=0;orthogonalLoop=1;jettySize=auto;html=1;exitX=0;exitY=0.5;exitDx=0;exitDy=0;endArrow=ERmandOne;endFill=0;startArrow=ERmandOne;startFill=0;entryX=-0.006;entryY=0.168;entryDx=0;entryDy=0;entryPerimeter=0;fontSize=12;strokeColor=#788AA3;fontColor=#46495D;strokeWidth=2;" parent="1" source="Z1BsBpzhcpCgyARzmuZx-203" target="Z1BsBpzhcpCgyARzmuZx-264" edge="1">
          <mxGeometry relative="1" as="geometry">
            <mxPoint x="-680.11" y="-250" as="targetPoint" />
            <Array as="points">
              <mxPoint x="-710.11" y="-415" />
              <mxPoint x="-710.11" y="-268" />
            </Array>
          </mxGeometry>
        </mxCell>
        <mxCell id="l33G5XEg9OQJomPI_eTB-129" style="edgeStyle=orthogonalEdgeStyle;rounded=0;orthogonalLoop=1;jettySize=auto;html=1;exitX=1;exitY=0.5;exitDx=0;exitDy=0;entryX=0;entryY=0.5;entryDx=0;entryDy=0;startArrow=ERmandOne;startFill=0;endArrow=ERzeroToMany;endFill=0;fontSize=12;strokeColor=#788AA3;fontColor=#46495D;strokeWidth=2;" parent="1" source="Z1BsBpzhcpCgyARzmuZx-191" target="Z1BsBpzhcpCgyARzmuZx-175" edge="1">
          <mxGeometry relative="1" as="geometry">
            <Array as="points">
              <mxPoint x="-470.11" y="-595" />
              <mxPoint x="-470.11" y="-535" />
            </Array>
          </mxGeometry>
        </mxCell>
        <mxCell id="l33G5XEg9OQJomPI_eTB-130" style="edgeStyle=orthogonalEdgeStyle;rounded=0;orthogonalLoop=1;jettySize=auto;html=1;exitX=0;exitY=0.5;exitDx=0;exitDy=0;entryX=1;entryY=0.25;entryDx=0;entryDy=0;startArrow=ERzeroToMany;startFill=0;endArrow=ERmandOne;endFill=0;fontSize=12;strokeColor=#788AA3;fontColor=#46495D;strokeWidth=2;" parent="1" source="Z1BsBpzhcpCgyARzmuZx-178" target="Z1BsBpzhcpCgyARzmuZx-264" edge="1">
          <mxGeometry relative="1" as="geometry">
            <Array as="points">
              <mxPoint x="-470.11" y="-415" />
              <mxPoint x="-470.11" y="-257" />
            </Array>
          </mxGeometry>
        </mxCell>
        <mxCell id="l33G5XEg9OQJomPI_eTB-131" style="edgeStyle=orthogonalEdgeStyle;rounded=0;orthogonalLoop=1;jettySize=auto;html=1;exitX=0;exitY=0.5;exitDx=0;exitDy=0;entryX=-0.008;entryY=0.12;entryDx=0;entryDy=0;startArrow=ERmandOne;startFill=0;endArrow=ERmandOne;endFill=0;fontSize=12;strokeColor=#788AA3;fontColor=#46495D;strokeWidth=2;entryPerimeter=0;" parent="1" source="Z1BsBpzhcpCgyARzmuZx-212" target="Z1BsBpzhcpCgyARzmuZx-45" edge="1">
          <mxGeometry relative="1" as="geometry">
            <Array as="points">
              <mxPoint x="-750.11" y="-385" />
              <mxPoint x="-750.11" y="-57" />
            </Array>
          </mxGeometry>
        </mxCell>
        <mxCell id="l33G5XEg9OQJomPI_eTB-132" style="edgeStyle=orthogonalEdgeStyle;rounded=0;orthogonalLoop=1;jettySize=auto;html=1;exitX=1;exitY=0.5;exitDx=0;exitDy=0;startArrow=ERmandOne;startFill=0;endArrow=ERzeroToMany;endFill=0;fontSize=12;strokeColor=#788AA3;fontColor=#46495D;strokeWidth=2;" parent="1" source="Z1BsBpzhcpCgyARzmuZx-172" target="Z1BsBpzhcpCgyARzmuZx-147" edge="1">
          <mxGeometry relative="1" as="geometry">
            <Array as="points">
              <mxPoint x="-100.11000000000001" y="-595" />
              <mxPoint x="-100.11000000000001" y="-595" />
            </Array>
            <mxPoint x="-130.11" y="-540" as="targetPoint" />
          </mxGeometry>
        </mxCell>
        <mxCell id="l33G5XEg9OQJomPI_eTB-133" style="edgeStyle=orthogonalEdgeStyle;rounded=0;orthogonalLoop=1;jettySize=auto;html=1;exitX=0;exitY=0.5;exitDx=0;exitDy=0;entryX=1;entryY=0.5;entryDx=0;entryDy=0;startArrow=ERzeroToMany;startFill=0;endArrow=ERmandOne;endFill=0;fontSize=12;strokeColor=#788AA3;fontColor=#46495D;strokeWidth=2;" parent="1" source="Z1BsBpzhcpCgyARzmuZx-187" target="Z1BsBpzhcpCgyARzmuZx-46" edge="1">
          <mxGeometry relative="1" as="geometry">
            <Array as="points">
              <mxPoint x="-390.11" y="-355" />
              <mxPoint x="-390.11" y="-37" />
            </Array>
          </mxGeometry>
        </mxCell>
        <mxCell id="l33G5XEg9OQJomPI_eTB-143" style="edgeStyle=orthogonalEdgeStyle;rounded=0;orthogonalLoop=1;jettySize=auto;html=1;exitX=-0.004;exitY=0.705;exitDx=0;exitDy=0;entryX=0;entryY=0.5;entryDx=0;entryDy=0;startArrow=ERmandOne;startFill=0;endArrow=ERmandOne;endFill=0;exitPerimeter=0;fontSize=12;strokeColor=#788AA3;fontColor=#46495D;strokeWidth=2;" parent="1" source="Z1BsBpzhcpCgyARzmuZx-265" target="Z1BsBpzhcpCgyARzmuZx-296" edge="1">
          <mxGeometry relative="1" as="geometry">
            <Array as="points">
              <mxPoint x="-790.11" y="-229" />
              <mxPoint x="-790.11" y="-795" />
            </Array>
          </mxGeometry>
        </mxCell>
        <mxCell id="l33G5XEg9OQJomPI_eTB-153" style="edgeStyle=orthogonalEdgeStyle;rounded=0;jumpSize=6;orthogonalLoop=1;jettySize=auto;html=1;exitX=1;exitY=0.817;exitDx=0;exitDy=0;strokeWidth=2;startArrow=ERmandOne;startFill=0;endArrow=ERzeroToMany;endFill=0;startSize=6;endSize=6;fontSize=12;strokeColor=#788AA3;fontColor=#46495D;exitPerimeter=0;entryX=0;entryY=0.5;entryDx=0;entryDy=0;" parent="1" source="Z1BsBpzhcpCgyARzmuZx-12" target="l33G5XEg9OQJomPI_eTB-150" edge="1">
          <mxGeometry relative="1" as="geometry">
            <Array as="points">
              <mxPoint x="-110.11000000000001" y="-1025" />
              <mxPoint x="-110.11000000000001" y="-625" />
            </Array>
            <mxPoint x="-130.11" y="-640" as="targetPoint" />
          </mxGeometry>
        </mxCell>
        <mxCell id="l33G5XEg9OQJomPI_eTB-187" value="График" style="shape=table;startSize=40;container=1;collapsible=1;childLayout=tableLayout;fixedRows=1;rowLines=0;fontStyle=1;align=center;resizeLast=1;fontSize=12;fillColor=#B2C9AB;strokeColor=#788AA3;strokeWidth=2;fontColor=#46495D;" parent="1" vertex="1">
          <mxGeometry x="-30.110000000000014" y="190" width="200" height="280" as="geometry" />
        </mxCell>
        <mxCell id="l33G5XEg9OQJomPI_eTB-188" value="" style="shape=tableRow;horizontal=0;startSize=0;swimlaneHead=0;swimlaneBody=0;fillColor=none;collapsible=0;dropTarget=0;points=[[0,0.5],[1,0.5]];portConstraint=eastwest;top=0;left=0;right=0;bottom=0;fontSize=12;strokeColor=#788AA3;fontColor=#46495D;" parent="l33G5XEg9OQJomPI_eTB-187" vertex="1">
          <mxGeometry y="40" width="200" height="30" as="geometry" />
        </mxCell>
        <mxCell id="l33G5XEg9OQJomPI_eTB-189" value="PK,FK1" style="shape=partialRectangle;connectable=0;fillColor=none;top=0;left=0;bottom=0;right=0;fontStyle=1;overflow=hidden;fontSize=12;strokeColor=#788AA3;fontColor=#46495D;" parent="l33G5XEg9OQJomPI_eTB-188" vertex="1">
          <mxGeometry width="60" height="30" as="geometry">
            <mxRectangle width="60" height="30" as="alternateBounds" />
          </mxGeometry>
        </mxCell>
        <mxCell id="l33G5XEg9OQJomPI_eTB-190" value="Кредитный продукт" style="shape=partialRectangle;connectable=0;fillColor=none;top=0;left=0;bottom=0;right=0;align=left;spacingLeft=6;fontStyle=5;overflow=hidden;fontSize=12;strokeColor=#788AA3;fontColor=#46495D;" parent="l33G5XEg9OQJomPI_eTB-188" vertex="1">
          <mxGeometry x="60" width="140" height="30" as="geometry">
            <mxRectangle width="140" height="30" as="alternateBounds" />
          </mxGeometry>
        </mxCell>
        <mxCell id="l33G5XEg9OQJomPI_eTB-191" value="" style="shape=tableRow;horizontal=0;startSize=0;swimlaneHead=0;swimlaneBody=0;fillColor=none;collapsible=0;dropTarget=0;points=[[0,0.5],[1,0.5]];portConstraint=eastwest;top=0;left=0;right=0;bottom=1;fontSize=12;strokeColor=#788AA3;fontColor=#46495D;" parent="l33G5XEg9OQJomPI_eTB-187" vertex="1">
          <mxGeometry y="70" width="200" height="30" as="geometry" />
        </mxCell>
        <mxCell id="l33G5XEg9OQJomPI_eTB-192" value="PK,FK2" style="shape=partialRectangle;connectable=0;fillColor=none;top=0;left=0;bottom=0;right=0;fontStyle=1;overflow=hidden;fontSize=12;strokeColor=#788AA3;fontColor=#46495D;" parent="l33G5XEg9OQJomPI_eTB-191" vertex="1">
          <mxGeometry width="60" height="30" as="geometry">
            <mxRectangle width="60" height="30" as="alternateBounds" />
          </mxGeometry>
        </mxCell>
        <mxCell id="l33G5XEg9OQJomPI_eTB-193" value="Виды графика" style="shape=partialRectangle;connectable=0;fillColor=none;top=0;left=0;bottom=0;right=0;align=left;spacingLeft=6;fontStyle=5;overflow=hidden;fontSize=12;strokeColor=#788AA3;fontColor=#46495D;" parent="l33G5XEg9OQJomPI_eTB-191" vertex="1">
          <mxGeometry x="60" width="140" height="30" as="geometry">
            <mxRectangle width="140" height="30" as="alternateBounds" />
          </mxGeometry>
        </mxCell>
        <mxCell id="l33G5XEg9OQJomPI_eTB-194" value="" style="shape=tableRow;horizontal=0;startSize=0;swimlaneHead=0;swimlaneBody=0;fillColor=none;collapsible=0;dropTarget=0;points=[[0,0.5],[1,0.5]];portConstraint=eastwest;top=0;left=0;right=0;bottom=0;fontSize=12;strokeColor=#788AA3;fontColor=#46495D;" parent="l33G5XEg9OQJomPI_eTB-187" vertex="1">
          <mxGeometry y="100" width="200" height="30" as="geometry" />
        </mxCell>
        <mxCell id="l33G5XEg9OQJomPI_eTB-195" value="" style="shape=partialRectangle;connectable=0;fillColor=none;top=0;left=0;bottom=0;right=0;editable=1;overflow=hidden;fontSize=12;strokeColor=#788AA3;fontColor=#46495D;" parent="l33G5XEg9OQJomPI_eTB-194" vertex="1">
          <mxGeometry width="60" height="30" as="geometry">
            <mxRectangle width="60" height="30" as="alternateBounds" />
          </mxGeometry>
        </mxCell>
        <mxCell id="l33G5XEg9OQJomPI_eTB-196" value="Заявка" style="shape=partialRectangle;connectable=0;fillColor=none;top=0;left=0;bottom=0;right=0;align=left;spacingLeft=6;overflow=hidden;fontSize=12;strokeColor=#788AA3;fontColor=#46495D;" parent="l33G5XEg9OQJomPI_eTB-194" vertex="1">
          <mxGeometry x="60" width="140" height="30" as="geometry">
            <mxRectangle width="140" height="30" as="alternateBounds" />
          </mxGeometry>
        </mxCell>
        <mxCell id="l33G5XEg9OQJomPI_eTB-197" value="" style="shape=tableRow;horizontal=0;startSize=0;swimlaneHead=0;swimlaneBody=0;fillColor=none;collapsible=0;dropTarget=0;points=[[0,0.5],[1,0.5]];portConstraint=eastwest;top=0;left=0;right=0;bottom=0;fontSize=12;strokeColor=#788AA3;fontColor=#46495D;" parent="l33G5XEg9OQJomPI_eTB-187" vertex="1">
          <mxGeometry y="130" width="200" height="30" as="geometry" />
        </mxCell>
        <mxCell id="l33G5XEg9OQJomPI_eTB-198" value="" style="shape=partialRectangle;connectable=0;fillColor=none;top=0;left=0;bottom=0;right=0;editable=1;overflow=hidden;fontSize=12;strokeColor=#788AA3;fontColor=#46495D;" parent="l33G5XEg9OQJomPI_eTB-197" vertex="1">
          <mxGeometry width="60" height="30" as="geometry">
            <mxRectangle width="60" height="30" as="alternateBounds" />
          </mxGeometry>
        </mxCell>
        <mxCell id="l33G5XEg9OQJomPI_eTB-199" value="Row 4" style="shape=partialRectangle;connectable=0;fillColor=none;top=0;left=0;bottom=0;right=0;align=left;spacingLeft=6;overflow=hidden;fontSize=12;strokeColor=#788AA3;fontColor=#46495D;" parent="l33G5XEg9OQJomPI_eTB-197" vertex="1">
          <mxGeometry x="60" width="140" height="30" as="geometry">
            <mxRectangle width="140" height="30" as="alternateBounds" />
          </mxGeometry>
        </mxCell>
        <mxCell id="l33G5XEg9OQJomPI_eTB-206" value="" style="shape=tableRow;horizontal=0;startSize=0;swimlaneHead=0;swimlaneBody=0;fillColor=none;collapsible=0;dropTarget=0;points=[[0,0.5],[1,0.5]];portConstraint=eastwest;top=0;left=0;right=0;bottom=0;fontSize=12;strokeColor=#788AA3;fontColor=#46495D;" parent="l33G5XEg9OQJomPI_eTB-187" vertex="1">
          <mxGeometry y="160" width="200" height="30" as="geometry" />
        </mxCell>
        <mxCell id="l33G5XEg9OQJomPI_eTB-207" value="" style="shape=partialRectangle;connectable=0;fillColor=none;top=0;left=0;bottom=0;right=0;editable=1;overflow=hidden;fontSize=12;strokeColor=#788AA3;fontColor=#46495D;" parent="l33G5XEg9OQJomPI_eTB-206" vertex="1">
          <mxGeometry width="60" height="30" as="geometry">
            <mxRectangle width="60" height="30" as="alternateBounds" />
          </mxGeometry>
        </mxCell>
        <mxCell id="l33G5XEg9OQJomPI_eTB-208" value="Row 4" style="shape=partialRectangle;connectable=0;fillColor=none;top=0;left=0;bottom=0;right=0;align=left;spacingLeft=6;overflow=hidden;fontSize=12;strokeColor=#788AA3;fontColor=#46495D;" parent="l33G5XEg9OQJomPI_eTB-206" vertex="1">
          <mxGeometry x="60" width="140" height="30" as="geometry">
            <mxRectangle width="140" height="30" as="alternateBounds" />
          </mxGeometry>
        </mxCell>
        <mxCell id="l33G5XEg9OQJomPI_eTB-209" value="" style="shape=tableRow;horizontal=0;startSize=0;swimlaneHead=0;swimlaneBody=0;fillColor=none;collapsible=0;dropTarget=0;points=[[0,0.5],[1,0.5]];portConstraint=eastwest;top=0;left=0;right=0;bottom=0;fontSize=12;strokeColor=#788AA3;fontColor=#46495D;" parent="l33G5XEg9OQJomPI_eTB-187" vertex="1">
          <mxGeometry y="190" width="200" height="30" as="geometry" />
        </mxCell>
        <mxCell id="l33G5XEg9OQJomPI_eTB-210" value="" style="shape=partialRectangle;connectable=0;fillColor=none;top=0;left=0;bottom=0;right=0;editable=1;overflow=hidden;fontSize=12;strokeColor=#788AA3;fontColor=#46495D;" parent="l33G5XEg9OQJomPI_eTB-209" vertex="1">
          <mxGeometry width="60" height="30" as="geometry">
            <mxRectangle width="60" height="30" as="alternateBounds" />
          </mxGeometry>
        </mxCell>
        <mxCell id="l33G5XEg9OQJomPI_eTB-211" value="Row 4" style="shape=partialRectangle;connectable=0;fillColor=none;top=0;left=0;bottom=0;right=0;align=left;spacingLeft=6;overflow=hidden;fontSize=12;strokeColor=#788AA3;fontColor=#46495D;" parent="l33G5XEg9OQJomPI_eTB-209" vertex="1">
          <mxGeometry x="60" width="140" height="30" as="geometry">
            <mxRectangle width="140" height="30" as="alternateBounds" />
          </mxGeometry>
        </mxCell>
        <mxCell id="l33G5XEg9OQJomPI_eTB-212" value="" style="shape=tableRow;horizontal=0;startSize=0;swimlaneHead=0;swimlaneBody=0;fillColor=none;collapsible=0;dropTarget=0;points=[[0,0.5],[1,0.5]];portConstraint=eastwest;top=0;left=0;right=0;bottom=0;fontSize=12;strokeColor=#788AA3;fontColor=#46495D;" parent="l33G5XEg9OQJomPI_eTB-187" vertex="1">
          <mxGeometry y="220" width="200" height="30" as="geometry" />
        </mxCell>
        <mxCell id="l33G5XEg9OQJomPI_eTB-213" value="" style="shape=partialRectangle;connectable=0;fillColor=none;top=0;left=0;bottom=0;right=0;editable=1;overflow=hidden;fontSize=12;strokeColor=#788AA3;fontColor=#46495D;" parent="l33G5XEg9OQJomPI_eTB-212" vertex="1">
          <mxGeometry width="60" height="30" as="geometry">
            <mxRectangle width="60" height="30" as="alternateBounds" />
          </mxGeometry>
        </mxCell>
        <mxCell id="l33G5XEg9OQJomPI_eTB-214" value="Row 4" style="shape=partialRectangle;connectable=0;fillColor=none;top=0;left=0;bottom=0;right=0;align=left;spacingLeft=6;overflow=hidden;fontSize=12;strokeColor=#788AA3;fontColor=#46495D;" parent="l33G5XEg9OQJomPI_eTB-212" vertex="1">
          <mxGeometry x="60" width="140" height="30" as="geometry">
            <mxRectangle width="140" height="30" as="alternateBounds" />
          </mxGeometry>
        </mxCell>
        <mxCell id="l33G5XEg9OQJomPI_eTB-215" value="" style="shape=tableRow;horizontal=0;startSize=0;swimlaneHead=0;swimlaneBody=0;fillColor=none;collapsible=0;dropTarget=0;points=[[0,0.5],[1,0.5]];portConstraint=eastwest;top=0;left=0;right=0;bottom=0;fontSize=12;strokeColor=#788AA3;fontColor=#46495D;" parent="l33G5XEg9OQJomPI_eTB-187" vertex="1">
          <mxGeometry y="250" width="200" height="30" as="geometry" />
        </mxCell>
        <mxCell id="l33G5XEg9OQJomPI_eTB-216" value="" style="shape=partialRectangle;connectable=0;fillColor=none;top=0;left=0;bottom=0;right=0;editable=1;overflow=hidden;fontSize=12;strokeColor=#788AA3;fontColor=#46495D;" parent="l33G5XEg9OQJomPI_eTB-215" vertex="1">
          <mxGeometry width="60" height="30" as="geometry">
            <mxRectangle width="60" height="30" as="alternateBounds" />
          </mxGeometry>
        </mxCell>
        <mxCell id="l33G5XEg9OQJomPI_eTB-217" value="Row 4" style="shape=partialRectangle;connectable=0;fillColor=none;top=0;left=0;bottom=0;right=0;align=left;spacingLeft=6;overflow=hidden;fontSize=12;strokeColor=#788AA3;fontColor=#46495D;" parent="l33G5XEg9OQJomPI_eTB-215" vertex="1">
          <mxGeometry x="60" width="140" height="30" as="geometry">
            <mxRectangle width="140" height="30" as="alternateBounds" />
          </mxGeometry>
        </mxCell>
        <mxCell id="Z1BsBpzhcpCgyARzmuZx-406" value="Виды графика" style="shape=table;startSize=40;container=1;collapsible=1;childLayout=tableLayout;fixedRows=1;rowLines=0;fontStyle=1;align=center;resizeLast=1;fontSize=12;fillColor=#B2C9AB;strokeColor=#788AA3;fontColor=#46495D;strokeWidth=2;" parent="1" vertex="1">
          <mxGeometry x="-390.11" y="300" width="200" height="160" as="geometry" />
        </mxCell>
        <mxCell id="Z1BsBpzhcpCgyARzmuZx-407" value="" style="shape=tableRow;horizontal=0;startSize=0;swimlaneHead=0;swimlaneBody=0;fillColor=none;collapsible=0;dropTarget=0;points=[[0,0.5],[1,0.5]];portConstraint=eastwest;top=0;left=0;right=0;bottom=1;fontSize=12;strokeColor=#788AA3;fontColor=#46495D;strokeWidth=2;" parent="Z1BsBpzhcpCgyARzmuZx-406" vertex="1">
          <mxGeometry y="40" width="200" height="30" as="geometry" />
        </mxCell>
        <mxCell id="Z1BsBpzhcpCgyARzmuZx-408" value="PK " style="shape=partialRectangle;connectable=0;fillColor=none;top=0;left=0;bottom=0;right=0;fontStyle=1;overflow=hidden;fontSize=12;strokeColor=#788AA3;fontColor=#46495D;strokeWidth=2;" parent="Z1BsBpzhcpCgyARzmuZx-407" vertex="1">
          <mxGeometry width="40" height="30" as="geometry">
            <mxRectangle width="40" height="30" as="alternateBounds" />
          </mxGeometry>
        </mxCell>
        <mxCell id="Z1BsBpzhcpCgyARzmuZx-409" value="ID" style="shape=partialRectangle;connectable=0;fillColor=none;top=0;left=0;bottom=0;right=0;align=left;spacingLeft=6;fontStyle=5;overflow=hidden;fontSize=12;strokeColor=#788AA3;fontColor=#46495D;strokeWidth=2;" parent="Z1BsBpzhcpCgyARzmuZx-407" vertex="1">
          <mxGeometry x="40" width="160" height="30" as="geometry">
            <mxRectangle width="160" height="30" as="alternateBounds" />
          </mxGeometry>
        </mxCell>
        <mxCell id="Z1BsBpzhcpCgyARzmuZx-410" value="" style="shape=tableRow;horizontal=0;startSize=0;swimlaneHead=0;swimlaneBody=0;fillColor=none;collapsible=0;dropTarget=0;points=[[0,0.5],[1,0.5]];portConstraint=eastwest;top=0;left=0;right=0;bottom=0;fontSize=12;strokeColor=#788AA3;fontColor=#46495D;strokeWidth=2;" parent="Z1BsBpzhcpCgyARzmuZx-406" vertex="1">
          <mxGeometry y="70" width="200" height="30" as="geometry" />
        </mxCell>
        <mxCell id="Z1BsBpzhcpCgyARzmuZx-411" value="" style="shape=partialRectangle;connectable=0;fillColor=none;top=0;left=0;bottom=0;right=0;editable=1;overflow=hidden;fontSize=12;strokeColor=#788AA3;fontColor=#46495D;strokeWidth=2;" parent="Z1BsBpzhcpCgyARzmuZx-410" vertex="1">
          <mxGeometry width="40" height="30" as="geometry">
            <mxRectangle width="40" height="30" as="alternateBounds" />
          </mxGeometry>
        </mxCell>
        <mxCell id="Z1BsBpzhcpCgyARzmuZx-412" value="Тип графика" style="shape=partialRectangle;connectable=0;fillColor=none;top=0;left=0;bottom=0;right=0;align=left;spacingLeft=6;overflow=hidden;fontSize=12;strokeColor=#788AA3;fontColor=#46495D;strokeWidth=2;" parent="Z1BsBpzhcpCgyARzmuZx-410" vertex="1">
          <mxGeometry x="40" width="160" height="30" as="geometry">
            <mxRectangle width="160" height="30" as="alternateBounds" />
          </mxGeometry>
        </mxCell>
        <mxCell id="Z1BsBpzhcpCgyARzmuZx-413" value="" style="shape=tableRow;horizontal=0;startSize=0;swimlaneHead=0;swimlaneBody=0;fillColor=none;collapsible=0;dropTarget=0;points=[[0,0.5],[1,0.5]];portConstraint=eastwest;top=0;left=0;right=0;bottom=0;fontSize=12;strokeColor=#788AA3;fontColor=#46495D;strokeWidth=2;" parent="Z1BsBpzhcpCgyARzmuZx-406" vertex="1">
          <mxGeometry y="100" width="200" height="30" as="geometry" />
        </mxCell>
        <mxCell id="Z1BsBpzhcpCgyARzmuZx-414" value="" style="shape=partialRectangle;connectable=0;fillColor=none;top=0;left=0;bottom=0;right=0;editable=1;overflow=hidden;fontSize=12;strokeColor=#788AA3;fontColor=#46495D;strokeWidth=2;" parent="Z1BsBpzhcpCgyARzmuZx-413" vertex="1">
          <mxGeometry width="40" height="30" as="geometry">
            <mxRectangle width="40" height="30" as="alternateBounds" />
          </mxGeometry>
        </mxCell>
        <mxCell id="Z1BsBpzhcpCgyARzmuZx-415" value="Метод расчета платежа" style="shape=partialRectangle;connectable=0;fillColor=none;top=0;left=0;bottom=0;right=0;align=left;spacingLeft=6;overflow=hidden;fontSize=12;strokeColor=#788AA3;fontColor=#46495D;strokeWidth=2;" parent="Z1BsBpzhcpCgyARzmuZx-413" vertex="1">
          <mxGeometry x="40" width="160" height="30" as="geometry">
            <mxRectangle width="160" height="30" as="alternateBounds" />
          </mxGeometry>
        </mxCell>
        <mxCell id="Z1BsBpzhcpCgyARzmuZx-416" value="" style="shape=tableRow;horizontal=0;startSize=0;swimlaneHead=0;swimlaneBody=0;fillColor=none;collapsible=0;dropTarget=0;points=[[0,0.5],[1,0.5]];portConstraint=eastwest;top=0;left=0;right=0;bottom=0;fontSize=12;strokeColor=#788AA3;fontColor=#46495D;strokeWidth=2;" parent="Z1BsBpzhcpCgyARzmuZx-406" vertex="1">
          <mxGeometry y="130" width="200" height="30" as="geometry" />
        </mxCell>
        <mxCell id="Z1BsBpzhcpCgyARzmuZx-417" value="" style="shape=partialRectangle;connectable=0;fillColor=none;top=0;left=0;bottom=0;right=0;editable=1;overflow=hidden;fontSize=12;strokeColor=#788AA3;fontColor=#46495D;strokeWidth=2;" parent="Z1BsBpzhcpCgyARzmuZx-416" vertex="1">
          <mxGeometry width="40" height="30" as="geometry">
            <mxRectangle width="40" height="30" as="alternateBounds" />
          </mxGeometry>
        </mxCell>
        <mxCell id="Z1BsBpzhcpCgyARzmuZx-418" value="Метод начисления %" style="shape=partialRectangle;connectable=0;fillColor=none;top=0;left=0;bottom=0;right=0;align=left;spacingLeft=6;overflow=hidden;fontSize=12;strokeColor=#788AA3;fontColor=#46495D;strokeWidth=2;" parent="Z1BsBpzhcpCgyARzmuZx-416" vertex="1">
          <mxGeometry x="40" width="160" height="30" as="geometry">
            <mxRectangle width="160" height="30" as="alternateBounds" />
          </mxGeometry>
        </mxCell>
        <mxCell id="l33G5XEg9OQJomPI_eTB-204" value="" style="edgeStyle=orthogonalEdgeStyle;rounded=0;orthogonalLoop=1;jettySize=auto;html=1;exitX=0;exitY=0.5;exitDx=0;exitDy=0;strokeColor=#788AA3;fontColor=#46495D;startArrow=ERmandOne;startFill=0;endArrow=ERzeroToMany;endFill=0;fillColor=#B2C9AB;strokeWidth=2;" parent="1" source="Z1BsBpzhcpCgyARzmuZx-12" target="Z1BsBpzhcpCgyARzmuZx-304" edge="1">
          <mxGeometry relative="1" as="geometry">
            <mxPoint x="-680.11" y="-1035" as="sourcePoint" />
            <mxPoint x="-680.11" y="305" as="targetPoint" />
            <Array as="points">
              <mxPoint x="-830.11" y="-1035" />
              <mxPoint x="-830.11" y="315" />
            </Array>
          </mxGeometry>
        </mxCell>
        <mxCell id="l33G5XEg9OQJomPI_eTB-205" style="edgeStyle=orthogonalEdgeStyle;rounded=0;orthogonalLoop=1;jettySize=auto;html=1;exitX=0;exitY=0.5;exitDx=0;exitDy=0;entryX=1;entryY=0.5;entryDx=0;entryDy=0;strokeColor=#788AA3;strokeWidth=2;fontColor=#46495D;startArrow=ERmandOne;startFill=0;endArrow=ERzeroToMany;endFill=0;fillColor=#B2C9AB;" parent="1" source="Z1BsBpzhcpCgyARzmuZx-239" target="Z1BsBpzhcpCgyARzmuZx-310" edge="1">
          <mxGeometry relative="1" as="geometry">
            <Array as="points">
              <mxPoint x="-450.11" y="5" />
              <mxPoint x="-450.11" y="345" />
            </Array>
          </mxGeometry>
        </mxCell>
        <mxCell id="pwTwrPLr_tTxRB1hc8vB-1" style="edgeStyle=orthogonalEdgeStyle;rounded=0;orthogonalLoop=1;jettySize=auto;html=1;strokeColor=#788AA3;strokeWidth=2;fontColor=#46495D;startArrow=ERmandOne;startFill=0;endArrow=ERzeroToMany;endFill=0;fillColor=#B2C9AB;exitX=0.998;exitY=0.884;exitDx=0;exitDy=0;exitPerimeter=0;" parent="1" source="Z1BsBpzhcpCgyARzmuZx-239" target="l33G5XEg9OQJomPI_eTB-188" edge="1">
          <mxGeometry relative="1" as="geometry">
            <Array as="points">
              <mxPoint x="-110.11000000000001" y="17" />
              <mxPoint x="-110.11000000000001" y="245" />
            </Array>
            <mxPoint x="-90.11000000000001" y="190" as="targetPoint" />
          </mxGeometry>
        </mxCell>
        <mxCell id="pwTwrPLr_tTxRB1hc8vB-34" style="edgeStyle=orthogonalEdgeStyle;rounded=0;orthogonalLoop=1;jettySize=auto;html=1;entryX=0;entryY=0.5;entryDx=0;entryDy=0;strokeColor=#788AA3;strokeWidth=2;fontColor=#46495D;startArrow=ERmandOne;startFill=0;endArrow=ERzeroToMany;endFill=0;fillColor=#B2C9AB;" parent="1" source="Z1BsBpzhcpCgyARzmuZx-407" target="l33G5XEg9OQJomPI_eTB-191" edge="1">
          <mxGeometry relative="1" as="geometry">
            <Array as="points">
              <mxPoint x="-70.11000000000001" y="355" />
              <mxPoint x="-70.11000000000001" y="275" />
            </Array>
          </mxGeometry>
        </mxCell>
        <mxCell id="pwTwrPLr_tTxRB1hc8vB-35" style="edgeStyle=orthogonalEdgeStyle;rounded=0;orthogonalLoop=1;jettySize=auto;html=1;strokeColor=#788AA3;strokeWidth=2;fontColor=#46495D;startArrow=ERmandOne;startFill=0;endArrow=ERzeroToMany;endFill=0;fillColor=#B2C9AB;" parent="1" source="Z1BsBpzhcpCgyARzmuZx-301" target="l33G5XEg9OQJomPI_eTB-194" edge="1">
          <mxGeometry relative="1" as="geometry">
            <Array as="points">
              <mxPoint x="-150.11" y="275" />
              <mxPoint x="-150.11" y="305" />
            </Array>
            <mxPoint x="-110.11000000000001" y="330" as="targetPoint" />
          </mxGeometry>
        </mxCell>
        <mxCell id="pwTwrPLr_tTxRB1hc8vB-39" value="Место работы" style="shape=table;startSize=40;container=1;collapsible=1;childLayout=tableLayout;fixedRows=1;rowLines=0;fontStyle=1;align=center;resizeLast=1;fontSize=12;fillColor=#B2C9AB;strokeColor=#788AA3;fontColor=#46495D;strokeWidth=2;" parent="1" vertex="1">
          <mxGeometry x="-390.11" y="-920" width="170" height="190" as="geometry" />
        </mxCell>
        <mxCell id="pwTwrPLr_tTxRB1hc8vB-40" value="" style="shape=tableRow;horizontal=0;startSize=0;swimlaneHead=0;swimlaneBody=0;fillColor=none;collapsible=0;dropTarget=0;points=[[0,0.5],[1,0.5]];portConstraint=eastwest;top=0;left=0;right=0;bottom=1;fontSize=12;strokeColor=#788AA3;fontColor=#46495D;strokeWidth=2;" parent="pwTwrPLr_tTxRB1hc8vB-39" vertex="1">
          <mxGeometry y="40" width="170" height="30" as="geometry" />
        </mxCell>
        <mxCell id="pwTwrPLr_tTxRB1hc8vB-41" value="PK" style="shape=partialRectangle;connectable=0;fillColor=none;top=0;left=0;bottom=0;right=0;fontStyle=1;overflow=hidden;fontSize=12;strokeColor=#788AA3;fontColor=#46495D;strokeWidth=2;" parent="pwTwrPLr_tTxRB1hc8vB-40" vertex="1">
          <mxGeometry width="30" height="30" as="geometry">
            <mxRectangle width="30" height="30" as="alternateBounds" />
          </mxGeometry>
        </mxCell>
        <mxCell id="pwTwrPLr_tTxRB1hc8vB-42" value="ИНН" style="shape=partialRectangle;connectable=0;fillColor=none;top=0;left=0;bottom=0;right=0;align=left;spacingLeft=6;fontStyle=5;overflow=hidden;fontSize=12;strokeColor=#788AA3;fontColor=#46495D;strokeWidth=2;" parent="pwTwrPLr_tTxRB1hc8vB-40" vertex="1">
          <mxGeometry x="30" width="140" height="30" as="geometry">
            <mxRectangle width="140" height="30" as="alternateBounds" />
          </mxGeometry>
        </mxCell>
        <mxCell id="pwTwrPLr_tTxRB1hc8vB-43" value="" style="shape=tableRow;horizontal=0;startSize=0;swimlaneHead=0;swimlaneBody=0;fillColor=none;collapsible=0;dropTarget=0;points=[[0,0.5],[1,0.5]];portConstraint=eastwest;top=0;left=0;right=0;bottom=0;fontSize=12;strokeColor=#788AA3;fontColor=#46495D;strokeWidth=2;" parent="pwTwrPLr_tTxRB1hc8vB-39" vertex="1">
          <mxGeometry y="70" width="170" height="30" as="geometry" />
        </mxCell>
        <mxCell id="pwTwrPLr_tTxRB1hc8vB-44" value="" style="shape=partialRectangle;connectable=0;fillColor=none;top=0;left=0;bottom=0;right=0;editable=1;overflow=hidden;fontSize=12;strokeColor=#788AA3;fontColor=#46495D;strokeWidth=2;" parent="pwTwrPLr_tTxRB1hc8vB-43" vertex="1">
          <mxGeometry width="30" height="30" as="geometry">
            <mxRectangle width="30" height="30" as="alternateBounds" />
          </mxGeometry>
        </mxCell>
        <mxCell id="pwTwrPLr_tTxRB1hc8vB-45" value="Наименование" style="shape=partialRectangle;connectable=0;fillColor=none;top=0;left=0;bottom=0;right=0;align=left;spacingLeft=6;overflow=hidden;fontSize=12;strokeColor=#788AA3;fontColor=#46495D;strokeWidth=2;" parent="pwTwrPLr_tTxRB1hc8vB-43" vertex="1">
          <mxGeometry x="30" width="140" height="30" as="geometry">
            <mxRectangle width="140" height="30" as="alternateBounds" />
          </mxGeometry>
        </mxCell>
        <mxCell id="pwTwrPLr_tTxRB1hc8vB-46" value="" style="shape=tableRow;horizontal=0;startSize=0;swimlaneHead=0;swimlaneBody=0;fillColor=none;collapsible=0;dropTarget=0;points=[[0,0.5],[1,0.5]];portConstraint=eastwest;top=0;left=0;right=0;bottom=0;fontSize=12;strokeColor=#788AA3;fontColor=#46495D;strokeWidth=2;" parent="pwTwrPLr_tTxRB1hc8vB-39" vertex="1">
          <mxGeometry y="100" width="170" height="30" as="geometry" />
        </mxCell>
        <mxCell id="pwTwrPLr_tTxRB1hc8vB-47" value="" style="shape=partialRectangle;connectable=0;fillColor=none;top=0;left=0;bottom=0;right=0;editable=1;overflow=hidden;fontSize=12;strokeColor=#788AA3;fontColor=#46495D;strokeWidth=2;" parent="pwTwrPLr_tTxRB1hc8vB-46" vertex="1">
          <mxGeometry width="30" height="30" as="geometry">
            <mxRectangle width="30" height="30" as="alternateBounds" />
          </mxGeometry>
        </mxCell>
        <mxCell id="pwTwrPLr_tTxRB1hc8vB-48" value="Адрес" style="shape=partialRectangle;connectable=0;fillColor=none;top=0;left=0;bottom=0;right=0;align=left;spacingLeft=6;overflow=hidden;fontSize=12;strokeColor=#788AA3;fontColor=#46495D;strokeWidth=2;" parent="pwTwrPLr_tTxRB1hc8vB-46" vertex="1">
          <mxGeometry x="30" width="140" height="30" as="geometry">
            <mxRectangle width="140" height="30" as="alternateBounds" />
          </mxGeometry>
        </mxCell>
        <mxCell id="pwTwrPLr_tTxRB1hc8vB-49" value="" style="shape=tableRow;horizontal=0;startSize=0;swimlaneHead=0;swimlaneBody=0;fillColor=none;collapsible=0;dropTarget=0;points=[[0,0.5],[1,0.5]];portConstraint=eastwest;top=0;left=0;right=0;bottom=0;fontSize=12;strokeColor=#788AA3;fontColor=#46495D;strokeWidth=2;" parent="pwTwrPLr_tTxRB1hc8vB-39" vertex="1">
          <mxGeometry y="130" width="170" height="30" as="geometry" />
        </mxCell>
        <mxCell id="pwTwrPLr_tTxRB1hc8vB-50" value="" style="shape=partialRectangle;connectable=0;fillColor=none;top=0;left=0;bottom=0;right=0;editable=1;overflow=hidden;fontSize=12;strokeColor=#788AA3;fontColor=#46495D;strokeWidth=2;" parent="pwTwrPLr_tTxRB1hc8vB-49" vertex="1">
          <mxGeometry width="30" height="30" as="geometry">
            <mxRectangle width="30" height="30" as="alternateBounds" />
          </mxGeometry>
        </mxCell>
        <mxCell id="pwTwrPLr_tTxRB1hc8vB-51" value="Телефон" style="shape=partialRectangle;connectable=0;fillColor=none;top=0;left=0;bottom=0;right=0;align=left;spacingLeft=6;overflow=hidden;fontSize=12;strokeColor=#788AA3;fontColor=#46495D;strokeWidth=2;" parent="pwTwrPLr_tTxRB1hc8vB-49" vertex="1">
          <mxGeometry x="30" width="140" height="30" as="geometry">
            <mxRectangle width="140" height="30" as="alternateBounds" />
          </mxGeometry>
        </mxCell>
        <mxCell id="pwTwrPLr_tTxRB1hc8vB-52" value="" style="shape=tableRow;horizontal=0;startSize=0;swimlaneHead=0;swimlaneBody=0;fillColor=none;collapsible=0;dropTarget=0;points=[[0,0.5],[1,0.5]];portConstraint=eastwest;top=0;left=0;right=0;bottom=0;fontSize=12;strokeColor=#788AA3;fontColor=#46495D;strokeWidth=2;" parent="pwTwrPLr_tTxRB1hc8vB-39" vertex="1">
          <mxGeometry y="160" width="170" height="30" as="geometry" />
        </mxCell>
        <mxCell id="pwTwrPLr_tTxRB1hc8vB-53" value="" style="shape=partialRectangle;connectable=0;fillColor=none;top=0;left=0;bottom=0;right=0;editable=1;overflow=hidden;fontSize=12;strokeColor=#788AA3;fontColor=#46495D;strokeWidth=2;" parent="pwTwrPLr_tTxRB1hc8vB-52" vertex="1">
          <mxGeometry width="30" height="30" as="geometry">
            <mxRectangle width="30" height="30" as="alternateBounds" />
          </mxGeometry>
        </mxCell>
        <mxCell id="pwTwrPLr_tTxRB1hc8vB-54" value="сайт" style="shape=partialRectangle;connectable=0;fillColor=none;top=0;left=0;bottom=0;right=0;align=left;spacingLeft=6;overflow=hidden;fontSize=12;strokeColor=#788AA3;fontColor=#46495D;strokeWidth=2;" parent="pwTwrPLr_tTxRB1hc8vB-52" vertex="1">
          <mxGeometry x="30" width="140" height="30" as="geometry">
            <mxRectangle width="140" height="30" as="alternateBounds" />
          </mxGeometry>
        </mxCell>
        <mxCell id="pwTwrPLr_tTxRB1hc8vB-73" style="edgeStyle=orthogonalEdgeStyle;rounded=0;orthogonalLoop=1;jettySize=auto;html=1;strokeColor=#788AA3;strokeWidth=2;fontColor=#46495D;startArrow=ERmandOne;startFill=0;endArrow=ERzeroToMany;endFill=0;fillColor=#B2C9AB;" parent="1" source="pwTwrPLr_tTxRB1hc8vB-36" target="pwTwrPLr_tTxRB1hc8vB-40" edge="1">
          <mxGeometry relative="1" as="geometry">
            <Array as="points">
              <mxPoint x="-470.11" y="-735" />
              <mxPoint x="-470.11" y="-865" />
            </Array>
          </mxGeometry>
        </mxCell>
        <mxCell id="pwTwrPLr_tTxRB1hc8vB-74" style="edgeStyle=orthogonalEdgeStyle;rounded=0;orthogonalLoop=1;jettySize=auto;html=1;entryX=0;entryY=0.5;entryDx=0;entryDy=0;strokeColor=#788AA3;strokeWidth=2;fontColor=#46495D;startArrow=ERmandOne;startFill=0;endArrow=ERzeroToMany;endFill=0;fillColor=#B2C9AB;exitX=0.997;exitY=0.127;exitDx=0;exitDy=0;exitPerimeter=0;" parent="1" source="Z1BsBpzhcpCgyARzmuZx-265" target="pwTwrPLr_tTxRB1hc8vB-46" edge="1">
          <mxGeometry relative="1" as="geometry">
            <mxPoint x="-500.11" y="-250" as="sourcePoint" />
            <Array as="points">
              <mxPoint x="-430.11" y="-246" />
              <mxPoint x="-430.11" y="-805" />
            </Array>
          </mxGeometry>
        </mxCell>
        <mxCell id="pwTwrPLr_tTxRB1hc8vB-76" style="edgeStyle=orthogonalEdgeStyle;rounded=0;orthogonalLoop=1;jettySize=auto;html=1;exitX=0;exitY=0.5;exitDx=0;exitDy=0;strokeColor=#788AA3;strokeWidth=2;fontColor=#46495D;startArrow=ERmandOne;startFill=0;endArrow=ERzeroToMany;endFill=0;fillColor=#B2C9AB;" parent="1" source="Z1BsBpzhcpCgyARzmuZx-46" target="Z1BsBpzhcpCgyARzmuZx-307" edge="1">
          <mxGeometry relative="1" as="geometry">
            <Array as="points">
              <mxPoint x="-710.11" y="-38" />
              <mxPoint x="-710.11" y="365" />
            </Array>
          </mxGeometry>
        </mxCell>
        <mxCell id="pwTwrPLr_tTxRB1hc8vB-84" style="edgeStyle=orthogonalEdgeStyle;rounded=0;orthogonalLoop=1;jettySize=auto;html=1;exitX=0.998;exitY=0.215;exitDx=0;exitDy=0;entryX=0;entryY=0.5;entryDx=0;entryDy=0;strokeColor=#788AA3;strokeWidth=2;fontColor=#46495D;startArrow=ERmandOne;startFill=0;endArrow=ERzeroToMany;endFill=0;fillColor=#B2C9AB;exitPerimeter=0;" parent="1" source="Z1BsBpzhcpCgyARzmuZx-239" target="pwTwrPLr_tTxRB1hc8vB-80" edge="1">
          <mxGeometry relative="1" as="geometry">
            <Array as="points">
              <mxPoint x="-110.11000000000001" y="-3" />
              <mxPoint x="-110.11000000000001" y="-450" />
              <mxPoint x="169.89" y="-450" />
              <mxPoint x="169.89" y="-535" />
            </Array>
          </mxGeometry>
        </mxCell>
        <mxCell id="pwTwrPLr_tTxRB1hc8vB-85" style="edgeStyle=orthogonalEdgeStyle;rounded=0;orthogonalLoop=1;jettySize=auto;html=1;exitX=1;exitY=0.5;exitDx=0;exitDy=0;strokeColor=#788AA3;strokeWidth=2;fontColor=#46495D;startArrow=ERmandOne;startFill=0;endArrow=ERzeroToMany;endFill=0;fillColor=#B2C9AB;" parent="1" source="Z1BsBpzhcpCgyARzmuZx-144" target="pwTwrPLr_tTxRB1hc8vB-77" edge="1">
          <mxGeometry relative="1" as="geometry">
            <Array as="points">
              <mxPoint x="209.89" y="-655" />
              <mxPoint x="209.89" y="-385" />
            </Array>
          </mxGeometry>
        </mxCell>
        <mxCell id="pwTwrPLr_tTxRB1hc8vB-86" style="edgeStyle=orthogonalEdgeStyle;rounded=0;orthogonalLoop=1;jettySize=auto;html=1;exitX=1.006;exitY=0.206;exitDx=0;exitDy=0;strokeColor=#788AA3;strokeWidth=2;fontColor=#46495D;startArrow=ERmandOne;startFill=0;endArrow=ERzeroToMany;endFill=0;fillColor=#B2C9AB;exitPerimeter=0;" parent="1" source="Z1BsBpzhcpCgyARzmuZx-12" target="l33G5XEg9OQJomPI_eTB-147" edge="1">
          <mxGeometry relative="1" as="geometry">
            <Array as="points">
              <mxPoint x="529.89" y="-1044" />
              <mxPoint x="529.89" y="-565" />
            </Array>
            <mxPoint x="569.89" y="-560" as="targetPoint" />
          </mxGeometry>
        </mxCell>
        <mxCell id="pwTwrPLr_tTxRB1hc8vB-87" style="edgeStyle=orthogonalEdgeStyle;rounded=0;orthogonalLoop=1;jettySize=auto;html=1;strokeColor=#788AA3;strokeWidth=2;fontColor=#46495D;startArrow=ERmandOne;startFill=0;endArrow=ERmandOne;endFill=0;fillColor=#B2C9AB;exitX=0.998;exitY=0.071;exitDx=0;exitDy=0;exitPerimeter=0;" parent="1" source="l33G5XEg9OQJomPI_eTB-187" target="Z1BsBpzhcpCgyARzmuZx-488" edge="1">
          <mxGeometry relative="1" as="geometry">
            <Array as="points">
              <mxPoint x="529.89" y="210" />
              <mxPoint x="529.89" y="-355" />
            </Array>
            <mxPoint x="199.89" y="180" as="sourcePoint" />
            <mxPoint x="569.89" y="-330" as="targetPoint" />
          </mxGeometry>
        </mxCell>
        <mxCell id="_ExLKbFrFcypMW6ReSID-1" style="edgeStyle=orthogonalEdgeStyle;rounded=0;orthogonalLoop=1;jettySize=auto;html=1;exitX=1;exitY=0.109;exitDx=0;exitDy=0;startArrow=ERmandOne;startFill=0;endArrow=ERzeroToMany;endFill=0;strokeWidth=2;strokeColor=#788AA3;exitPerimeter=0;fontColor=#46495D;" parent="1" source="Z1BsBpzhcpCgyARzmuZx-45" target="Z1BsBpzhcpCgyARzmuZx-494" edge="1">
          <mxGeometry relative="1" as="geometry">
            <Array as="points">
              <mxPoint x="-430.11" y="-60" />
              <mxPoint x="-430.11" y="-170" />
              <mxPoint x="-30.110000000000014" y="-170" />
              <mxPoint x="-30.110000000000014" y="-325" />
            </Array>
            <mxPoint x="219.89" y="-310" as="targetPoint" />
          </mxGeometry>
        </mxCell>
        <mxCell id="_ExLKbFrFcypMW6ReSID-5" value="Фактические операции" style="shape=table;startSize=30;container=1;collapsible=1;childLayout=tableLayout;fixedRows=1;rowLines=0;fontStyle=1;align=center;resizeLast=1;fillColor=#B2C9AB;strokeColor=#788AA3;fontColor=#46495D;strokeWidth=2;" parent="1" vertex="1">
          <mxGeometry x="289.89" y="-170" width="200" height="180" as="geometry" />
        </mxCell>
        <mxCell id="_ExLKbFrFcypMW6ReSID-6" value="" style="shape=tableRow;horizontal=0;startSize=0;swimlaneHead=0;swimlaneBody=0;fillColor=none;collapsible=0;dropTarget=0;points=[[0,0.5],[1,0.5]];portConstraint=eastwest;top=0;left=0;right=0;bottom=1;strokeColor=#788AA3;fontColor=#46495D;" parent="_ExLKbFrFcypMW6ReSID-5" vertex="1">
          <mxGeometry y="30" width="200" height="30" as="geometry" />
        </mxCell>
        <mxCell id="_ExLKbFrFcypMW6ReSID-7" value="PK" style="shape=partialRectangle;connectable=0;fillColor=none;top=0;left=0;bottom=0;right=0;fontStyle=1;overflow=hidden;strokeColor=#788AA3;fontColor=#46495D;" parent="_ExLKbFrFcypMW6ReSID-6" vertex="1">
          <mxGeometry width="30" height="30" as="geometry">
            <mxRectangle width="30" height="30" as="alternateBounds" />
          </mxGeometry>
        </mxCell>
        <mxCell id="_ExLKbFrFcypMW6ReSID-8" value="ID" style="shape=partialRectangle;connectable=0;fillColor=none;top=0;left=0;bottom=0;right=0;align=left;spacingLeft=6;fontStyle=5;overflow=hidden;strokeColor=#788AA3;fontColor=#46495D;" parent="_ExLKbFrFcypMW6ReSID-6" vertex="1">
          <mxGeometry x="30" width="170" height="30" as="geometry">
            <mxRectangle width="170" height="30" as="alternateBounds" />
          </mxGeometry>
        </mxCell>
        <mxCell id="_ExLKbFrFcypMW6ReSID-9" value="" style="shape=tableRow;horizontal=0;startSize=0;swimlaneHead=0;swimlaneBody=0;fillColor=none;collapsible=0;dropTarget=0;points=[[0,0.5],[1,0.5]];portConstraint=eastwest;top=0;left=0;right=0;bottom=0;strokeColor=#788AA3;fontColor=#46495D;" parent="_ExLKbFrFcypMW6ReSID-5" vertex="1">
          <mxGeometry y="60" width="200" height="30" as="geometry" />
        </mxCell>
        <mxCell id="_ExLKbFrFcypMW6ReSID-10" value="" style="shape=partialRectangle;connectable=0;fillColor=none;top=0;left=0;bottom=0;right=0;editable=1;overflow=hidden;strokeColor=#788AA3;fontColor=#46495D;" parent="_ExLKbFrFcypMW6ReSID-9" vertex="1">
          <mxGeometry width="30" height="30" as="geometry">
            <mxRectangle width="30" height="30" as="alternateBounds" />
          </mxGeometry>
        </mxCell>
        <mxCell id="_ExLKbFrFcypMW6ReSID-11" value="Дата операции" style="shape=partialRectangle;connectable=0;fillColor=none;top=0;left=0;bottom=0;right=0;align=left;spacingLeft=6;overflow=hidden;strokeColor=#788AA3;fontColor=#46495D;" parent="_ExLKbFrFcypMW6ReSID-9" vertex="1">
          <mxGeometry x="30" width="170" height="30" as="geometry">
            <mxRectangle width="170" height="30" as="alternateBounds" />
          </mxGeometry>
        </mxCell>
        <mxCell id="_ExLKbFrFcypMW6ReSID-12" value="" style="shape=tableRow;horizontal=0;startSize=0;swimlaneHead=0;swimlaneBody=0;fillColor=none;collapsible=0;dropTarget=0;points=[[0,0.5],[1,0.5]];portConstraint=eastwest;top=0;left=0;right=0;bottom=0;strokeColor=#788AA3;fontColor=#46495D;" parent="_ExLKbFrFcypMW6ReSID-5" vertex="1">
          <mxGeometry y="90" width="200" height="30" as="geometry" />
        </mxCell>
        <mxCell id="_ExLKbFrFcypMW6ReSID-13" value="" style="shape=partialRectangle;connectable=0;fillColor=none;top=0;left=0;bottom=0;right=0;editable=1;overflow=hidden;strokeColor=#788AA3;fontColor=#46495D;" parent="_ExLKbFrFcypMW6ReSID-12" vertex="1">
          <mxGeometry width="30" height="30" as="geometry">
            <mxRectangle width="30" height="30" as="alternateBounds" />
          </mxGeometry>
        </mxCell>
        <mxCell id="_ExLKbFrFcypMW6ReSID-14" value="Сумма операции" style="shape=partialRectangle;connectable=0;fillColor=none;top=0;left=0;bottom=0;right=0;align=left;spacingLeft=6;overflow=hidden;strokeColor=#788AA3;fontColor=#46495D;" parent="_ExLKbFrFcypMW6ReSID-12" vertex="1">
          <mxGeometry x="30" width="170" height="30" as="geometry">
            <mxRectangle width="170" height="30" as="alternateBounds" />
          </mxGeometry>
        </mxCell>
        <mxCell id="I0bmYpNQW_zSe12yget0-35" value="" style="shape=tableRow;horizontal=0;startSize=0;swimlaneHead=0;swimlaneBody=0;fillColor=none;collapsible=0;dropTarget=0;points=[[0,0.5],[1,0.5]];portConstraint=eastwest;top=0;left=0;right=0;bottom=0;strokeColor=#788AA3;fontColor=#46495D;" vertex="1" parent="_ExLKbFrFcypMW6ReSID-5">
          <mxGeometry y="120" width="200" height="30" as="geometry" />
        </mxCell>
        <mxCell id="I0bmYpNQW_zSe12yget0-36" value="" style="shape=partialRectangle;connectable=0;fillColor=none;top=0;left=0;bottom=0;right=0;editable=1;overflow=hidden;strokeColor=#788AA3;fontColor=#46495D;" vertex="1" parent="I0bmYpNQW_zSe12yget0-35">
          <mxGeometry width="30" height="30" as="geometry">
            <mxRectangle width="30" height="30" as="alternateBounds" />
          </mxGeometry>
        </mxCell>
        <mxCell id="I0bmYpNQW_zSe12yget0-37" value="Валюта операции" style="shape=partialRectangle;connectable=0;fillColor=none;top=0;left=0;bottom=0;right=0;align=left;spacingLeft=6;overflow=hidden;strokeColor=#788AA3;fontColor=#46495D;" vertex="1" parent="I0bmYpNQW_zSe12yget0-35">
          <mxGeometry x="30" width="170" height="30" as="geometry">
            <mxRectangle width="170" height="30" as="alternateBounds" />
          </mxGeometry>
        </mxCell>
        <mxCell id="_ExLKbFrFcypMW6ReSID-15" value="" style="shape=tableRow;horizontal=0;startSize=0;swimlaneHead=0;swimlaneBody=0;fillColor=none;collapsible=0;dropTarget=0;points=[[0,0.5],[1,0.5]];portConstraint=eastwest;top=0;left=0;right=0;bottom=0;strokeColor=#788AA3;fontColor=#46495D;" parent="_ExLKbFrFcypMW6ReSID-5" vertex="1">
          <mxGeometry y="150" width="200" height="30" as="geometry" />
        </mxCell>
        <mxCell id="_ExLKbFrFcypMW6ReSID-16" value="" style="shape=partialRectangle;connectable=0;fillColor=none;top=0;left=0;bottom=0;right=0;editable=1;overflow=hidden;strokeColor=#788AA3;fontColor=#46495D;" parent="_ExLKbFrFcypMW6ReSID-15" vertex="1">
          <mxGeometry width="30" height="30" as="geometry">
            <mxRectangle width="30" height="30" as="alternateBounds" />
          </mxGeometry>
        </mxCell>
        <mxCell id="_ExLKbFrFcypMW6ReSID-17" value="Вид операции" style="shape=partialRectangle;connectable=0;fillColor=none;top=0;left=0;bottom=0;right=0;align=left;spacingLeft=6;overflow=hidden;strokeColor=#788AA3;fontColor=#46495D;" parent="_ExLKbFrFcypMW6ReSID-15" vertex="1">
          <mxGeometry x="30" width="170" height="30" as="geometry">
            <mxRectangle width="170" height="30" as="alternateBounds" />
          </mxGeometry>
        </mxCell>
        <mxCell id="_ExLKbFrFcypMW6ReSID-18" value="Вид операции" style="shape=table;startSize=30;container=1;collapsible=1;childLayout=tableLayout;fixedRows=1;rowLines=0;fontStyle=1;align=center;resizeLast=1;fillColor=#B2C9AB;strokeColor=#788AA3;fontColor=#46495D;strokeWidth=2;" parent="1" vertex="1">
          <mxGeometry x="9.889999999999986" y="-170" width="160" height="180" as="geometry" />
        </mxCell>
        <mxCell id="_ExLKbFrFcypMW6ReSID-19" value="" style="shape=tableRow;horizontal=0;startSize=0;swimlaneHead=0;swimlaneBody=0;fillColor=none;collapsible=0;dropTarget=0;points=[[0,0.5],[1,0.5]];portConstraint=eastwest;top=0;left=0;right=0;bottom=1;strokeColor=#788AA3;fontColor=#46495D;" parent="_ExLKbFrFcypMW6ReSID-18" vertex="1">
          <mxGeometry y="30" width="160" height="30" as="geometry" />
        </mxCell>
        <mxCell id="_ExLKbFrFcypMW6ReSID-20" value="PK" style="shape=partialRectangle;connectable=0;fillColor=none;top=0;left=0;bottom=0;right=0;fontStyle=1;overflow=hidden;strokeColor=#788AA3;fontColor=#46495D;" parent="_ExLKbFrFcypMW6ReSID-19" vertex="1">
          <mxGeometry width="30" height="30" as="geometry">
            <mxRectangle width="30" height="30" as="alternateBounds" />
          </mxGeometry>
        </mxCell>
        <mxCell id="_ExLKbFrFcypMW6ReSID-21" value="ID" style="shape=partialRectangle;connectable=0;fillColor=none;top=0;left=0;bottom=0;right=0;align=left;spacingLeft=6;fontStyle=5;overflow=hidden;strokeColor=#788AA3;fontColor=#46495D;" parent="_ExLKbFrFcypMW6ReSID-19" vertex="1">
          <mxGeometry x="30" width="130" height="30" as="geometry">
            <mxRectangle width="130" height="30" as="alternateBounds" />
          </mxGeometry>
        </mxCell>
        <mxCell id="_ExLKbFrFcypMW6ReSID-22" value="" style="shape=tableRow;horizontal=0;startSize=0;swimlaneHead=0;swimlaneBody=0;fillColor=none;collapsible=0;dropTarget=0;points=[[0,0.5],[1,0.5]];portConstraint=eastwest;top=0;left=0;right=0;bottom=0;strokeColor=#788AA3;fontColor=#46495D;" parent="_ExLKbFrFcypMW6ReSID-18" vertex="1">
          <mxGeometry y="60" width="160" height="30" as="geometry" />
        </mxCell>
        <mxCell id="_ExLKbFrFcypMW6ReSID-23" value="" style="shape=partialRectangle;connectable=0;fillColor=none;top=0;left=0;bottom=0;right=0;editable=1;overflow=hidden;strokeColor=#788AA3;fontColor=#46495D;" parent="_ExLKbFrFcypMW6ReSID-22" vertex="1">
          <mxGeometry width="30" height="30" as="geometry">
            <mxRectangle width="30" height="30" as="alternateBounds" />
          </mxGeometry>
        </mxCell>
        <mxCell id="_ExLKbFrFcypMW6ReSID-24" value="Наименование" style="shape=partialRectangle;connectable=0;fillColor=none;top=0;left=0;bottom=0;right=0;align=left;spacingLeft=6;overflow=hidden;strokeColor=#788AA3;fontColor=#46495D;" parent="_ExLKbFrFcypMW6ReSID-22" vertex="1">
          <mxGeometry x="30" width="130" height="30" as="geometry">
            <mxRectangle width="130" height="30" as="alternateBounds" />
          </mxGeometry>
        </mxCell>
        <mxCell id="_ExLKbFrFcypMW6ReSID-25" value="" style="shape=tableRow;horizontal=0;startSize=0;swimlaneHead=0;swimlaneBody=0;fillColor=none;collapsible=0;dropTarget=0;points=[[0,0.5],[1,0.5]];portConstraint=eastwest;top=0;left=0;right=0;bottom=0;strokeColor=#788AA3;fontColor=#46495D;" parent="_ExLKbFrFcypMW6ReSID-18" vertex="1">
          <mxGeometry y="90" width="160" height="30" as="geometry" />
        </mxCell>
        <mxCell id="_ExLKbFrFcypMW6ReSID-26" value="" style="shape=partialRectangle;connectable=0;fillColor=none;top=0;left=0;bottom=0;right=0;editable=1;overflow=hidden;strokeColor=#788AA3;fontColor=#46495D;" parent="_ExLKbFrFcypMW6ReSID-25" vertex="1">
          <mxGeometry width="30" height="30" as="geometry">
            <mxRectangle width="30" height="30" as="alternateBounds" />
          </mxGeometry>
        </mxCell>
        <mxCell id="_ExLKbFrFcypMW6ReSID-27" value="Код" style="shape=partialRectangle;connectable=0;fillColor=none;top=0;left=0;bottom=0;right=0;align=left;spacingLeft=6;overflow=hidden;strokeColor=#788AA3;fontColor=#46495D;" parent="_ExLKbFrFcypMW6ReSID-25" vertex="1">
          <mxGeometry x="30" width="130" height="30" as="geometry">
            <mxRectangle width="130" height="30" as="alternateBounds" />
          </mxGeometry>
        </mxCell>
        <mxCell id="_ExLKbFrFcypMW6ReSID-28" value="" style="shape=tableRow;horizontal=0;startSize=0;swimlaneHead=0;swimlaneBody=0;fillColor=none;collapsible=0;dropTarget=0;points=[[0,0.5],[1,0.5]];portConstraint=eastwest;top=0;left=0;right=0;bottom=0;strokeColor=#788AA3;fontColor=#46495D;" parent="_ExLKbFrFcypMW6ReSID-18" vertex="1">
          <mxGeometry y="120" width="160" height="30" as="geometry" />
        </mxCell>
        <mxCell id="_ExLKbFrFcypMW6ReSID-29" value="" style="shape=partialRectangle;connectable=0;fillColor=none;top=0;left=0;bottom=0;right=0;editable=1;overflow=hidden;strokeColor=#788AA3;fontColor=#46495D;" parent="_ExLKbFrFcypMW6ReSID-28" vertex="1">
          <mxGeometry width="30" height="30" as="geometry">
            <mxRectangle width="30" height="30" as="alternateBounds" />
          </mxGeometry>
        </mxCell>
        <mxCell id="_ExLKbFrFcypMW6ReSID-30" value="Row 3" style="shape=partialRectangle;connectable=0;fillColor=none;top=0;left=0;bottom=0;right=0;align=left;spacingLeft=6;overflow=hidden;strokeColor=#788AA3;fontColor=#46495D;" parent="_ExLKbFrFcypMW6ReSID-28" vertex="1">
          <mxGeometry x="30" width="130" height="30" as="geometry">
            <mxRectangle width="130" height="30" as="alternateBounds" />
          </mxGeometry>
        </mxCell>
        <mxCell id="I0bmYpNQW_zSe12yget0-82" value="" style="shape=tableRow;horizontal=0;startSize=0;swimlaneHead=0;swimlaneBody=0;fillColor=none;collapsible=0;dropTarget=0;points=[[0,0.5],[1,0.5]];portConstraint=eastwest;top=0;left=0;right=0;bottom=0;strokeColor=#788AA3;fontColor=#46495D;" vertex="1" parent="_ExLKbFrFcypMW6ReSID-18">
          <mxGeometry y="150" width="160" height="30" as="geometry" />
        </mxCell>
        <mxCell id="I0bmYpNQW_zSe12yget0-83" value="" style="shape=partialRectangle;connectable=0;fillColor=none;top=0;left=0;bottom=0;right=0;editable=1;overflow=hidden;strokeColor=#788AA3;fontColor=#46495D;" vertex="1" parent="I0bmYpNQW_zSe12yget0-82">
          <mxGeometry width="30" height="30" as="geometry">
            <mxRectangle width="30" height="30" as="alternateBounds" />
          </mxGeometry>
        </mxCell>
        <mxCell id="I0bmYpNQW_zSe12yget0-84" value="Вид задолжности" style="shape=partialRectangle;connectable=0;fillColor=none;top=0;left=0;bottom=0;right=0;align=left;spacingLeft=6;overflow=hidden;strokeColor=#788AA3;fontColor=#46495D;" vertex="1" parent="I0bmYpNQW_zSe12yget0-82">
          <mxGeometry x="30" width="130" height="30" as="geometry">
            <mxRectangle width="130" height="30" as="alternateBounds" />
          </mxGeometry>
        </mxCell>
        <mxCell id="_ExLKbFrFcypMW6ReSID-31" value="Вид задолженности" style="shape=table;startSize=30;container=1;collapsible=1;childLayout=tableLayout;fixedRows=1;rowLines=0;fontStyle=1;align=center;resizeLast=1;fillColor=#B2C9AB;strokeColor=#788AA3;fontColor=#46495D;strokeWidth=2;" parent="1" vertex="1">
          <mxGeometry x="259.89" y="260" width="230" height="180" as="geometry" />
        </mxCell>
        <mxCell id="_ExLKbFrFcypMW6ReSID-32" value="" style="shape=tableRow;horizontal=0;startSize=0;swimlaneHead=0;swimlaneBody=0;fillColor=none;collapsible=0;dropTarget=0;points=[[0,0.5],[1,0.5]];portConstraint=eastwest;top=0;left=0;right=0;bottom=1;strokeColor=#788AA3;fontColor=#46495D;" parent="_ExLKbFrFcypMW6ReSID-31" vertex="1">
          <mxGeometry y="30" width="230" height="30" as="geometry" />
        </mxCell>
        <mxCell id="_ExLKbFrFcypMW6ReSID-33" value="PK" style="shape=partialRectangle;connectable=0;fillColor=none;top=0;left=0;bottom=0;right=0;fontStyle=1;overflow=hidden;strokeColor=#788AA3;fontColor=#46495D;" parent="_ExLKbFrFcypMW6ReSID-32" vertex="1">
          <mxGeometry width="30" height="30" as="geometry">
            <mxRectangle width="30" height="30" as="alternateBounds" />
          </mxGeometry>
        </mxCell>
        <mxCell id="_ExLKbFrFcypMW6ReSID-34" value="ID" style="shape=partialRectangle;connectable=0;fillColor=none;top=0;left=0;bottom=0;right=0;align=left;spacingLeft=6;fontStyle=5;overflow=hidden;strokeColor=#788AA3;fontColor=#46495D;" parent="_ExLKbFrFcypMW6ReSID-32" vertex="1">
          <mxGeometry x="30" width="200" height="30" as="geometry">
            <mxRectangle width="200" height="30" as="alternateBounds" />
          </mxGeometry>
        </mxCell>
        <mxCell id="_ExLKbFrFcypMW6ReSID-35" value="" style="shape=tableRow;horizontal=0;startSize=0;swimlaneHead=0;swimlaneBody=0;fillColor=none;collapsible=0;dropTarget=0;points=[[0,0.5],[1,0.5]];portConstraint=eastwest;top=0;left=0;right=0;bottom=0;strokeColor=#788AA3;fontColor=#46495D;" parent="_ExLKbFrFcypMW6ReSID-31" vertex="1">
          <mxGeometry y="60" width="230" height="30" as="geometry" />
        </mxCell>
        <mxCell id="_ExLKbFrFcypMW6ReSID-36" value="" style="shape=partialRectangle;connectable=0;fillColor=none;top=0;left=0;bottom=0;right=0;editable=1;overflow=hidden;strokeColor=#788AA3;fontColor=#46495D;" parent="_ExLKbFrFcypMW6ReSID-35" vertex="1">
          <mxGeometry width="30" height="30" as="geometry">
            <mxRectangle width="30" height="30" as="alternateBounds" />
          </mxGeometry>
        </mxCell>
        <mxCell id="_ExLKbFrFcypMW6ReSID-37" value="Наименование" style="shape=partialRectangle;connectable=0;fillColor=none;top=0;left=0;bottom=0;right=0;align=left;spacingLeft=6;overflow=hidden;strokeColor=#788AA3;fontColor=#46495D;" parent="_ExLKbFrFcypMW6ReSID-35" vertex="1">
          <mxGeometry x="30" width="200" height="30" as="geometry">
            <mxRectangle width="200" height="30" as="alternateBounds" />
          </mxGeometry>
        </mxCell>
        <mxCell id="_ExLKbFrFcypMW6ReSID-41" value="" style="shape=tableRow;horizontal=0;startSize=0;swimlaneHead=0;swimlaneBody=0;fillColor=none;collapsible=0;dropTarget=0;points=[[0,0.5],[1,0.5]];portConstraint=eastwest;top=0;left=0;right=0;bottom=0;strokeColor=#788AA3;fontColor=#46495D;" parent="_ExLKbFrFcypMW6ReSID-31" vertex="1">
          <mxGeometry y="90" width="230" height="30" as="geometry" />
        </mxCell>
        <mxCell id="_ExLKbFrFcypMW6ReSID-42" value="" style="shape=partialRectangle;connectable=0;fillColor=none;top=0;left=0;bottom=0;right=0;editable=1;overflow=hidden;strokeColor=#788AA3;fontColor=#46495D;" parent="_ExLKbFrFcypMW6ReSID-41" vertex="1">
          <mxGeometry width="30" height="30" as="geometry">
            <mxRectangle width="30" height="30" as="alternateBounds" />
          </mxGeometry>
        </mxCell>
        <mxCell id="_ExLKbFrFcypMW6ReSID-43" value="Код" style="shape=partialRectangle;connectable=0;fillColor=none;top=0;left=0;bottom=0;right=0;align=left;spacingLeft=6;overflow=hidden;strokeColor=#788AA3;fontColor=#46495D;" parent="_ExLKbFrFcypMW6ReSID-41" vertex="1">
          <mxGeometry x="30" width="200" height="30" as="geometry">
            <mxRectangle width="200" height="30" as="alternateBounds" />
          </mxGeometry>
        </mxCell>
        <mxCell id="_ExLKbFrFcypMW6ReSID-38" value="" style="shape=tableRow;horizontal=0;startSize=0;swimlaneHead=0;swimlaneBody=0;fillColor=none;collapsible=0;dropTarget=0;points=[[0,0.5],[1,0.5]];portConstraint=eastwest;top=0;left=0;right=0;bottom=0;strokeColor=#788AA3;fontColor=#46495D;" parent="_ExLKbFrFcypMW6ReSID-31" vertex="1">
          <mxGeometry y="120" width="230" height="30" as="geometry" />
        </mxCell>
        <mxCell id="_ExLKbFrFcypMW6ReSID-39" value="" style="shape=partialRectangle;connectable=0;fillColor=none;top=0;left=0;bottom=0;right=0;editable=1;overflow=hidden;strokeColor=#788AA3;fontColor=#46495D;" parent="_ExLKbFrFcypMW6ReSID-38" vertex="1">
          <mxGeometry width="30" height="30" as="geometry">
            <mxRectangle width="30" height="30" as="alternateBounds" />
          </mxGeometry>
        </mxCell>
        <mxCell id="_ExLKbFrFcypMW6ReSID-40" value="Отношение к задолженности" style="shape=partialRectangle;connectable=0;fillColor=none;top=0;left=0;bottom=0;right=0;align=left;spacingLeft=6;overflow=hidden;strokeColor=#788AA3;fontColor=#46495D;" parent="_ExLKbFrFcypMW6ReSID-38" vertex="1">
          <mxGeometry x="30" width="200" height="30" as="geometry">
            <mxRectangle width="200" height="30" as="alternateBounds" />
          </mxGeometry>
        </mxCell>
        <mxCell id="I0bmYpNQW_zSe12yget0-86" value="" style="shape=tableRow;horizontal=0;startSize=0;swimlaneHead=0;swimlaneBody=0;fillColor=none;collapsible=0;dropTarget=0;points=[[0,0.5],[1,0.5]];portConstraint=eastwest;top=0;left=0;right=0;bottom=0;strokeColor=#788AA3;fontColor=#46495D;" vertex="1" parent="_ExLKbFrFcypMW6ReSID-31">
          <mxGeometry y="150" width="230" height="30" as="geometry" />
        </mxCell>
        <mxCell id="I0bmYpNQW_zSe12yget0-87" value="" style="shape=partialRectangle;connectable=0;fillColor=none;top=0;left=0;bottom=0;right=0;editable=1;overflow=hidden;strokeColor=#788AA3;fontColor=#46495D;" vertex="1" parent="I0bmYpNQW_zSe12yget0-86">
          <mxGeometry width="30" height="30" as="geometry">
            <mxRectangle width="30" height="30" as="alternateBounds" />
          </mxGeometry>
        </mxCell>
        <mxCell id="I0bmYpNQW_zSe12yget0-88" value="Метод расчета" style="shape=partialRectangle;connectable=0;fillColor=none;top=0;left=0;bottom=0;right=0;align=left;spacingLeft=6;overflow=hidden;strokeColor=#788AA3;fontColor=#46495D;" vertex="1" parent="I0bmYpNQW_zSe12yget0-86">
          <mxGeometry x="30" width="200" height="30" as="geometry">
            <mxRectangle width="200" height="30" as="alternateBounds" />
          </mxGeometry>
        </mxCell>
        <mxCell id="I0bmYpNQW_zSe12yget0-3" style="edgeStyle=orthogonalEdgeStyle;rounded=0;orthogonalLoop=1;jettySize=auto;html=1;exitX=0;exitY=0.5;exitDx=0;exitDy=0;startArrow=ERmandOne;startFill=0;endArrow=ERzeroToMany;endFill=0;strokeWidth=2;strokeColor=#788AA3;fontColor=#46495D;entryX=1;entryY=0.5;entryDx=0;entryDy=0;" edge="1" parent="1" source="_ExLKbFrFcypMW6ReSID-32" target="I0bmYpNQW_zSe12yget0-82">
          <mxGeometry relative="1" as="geometry">
            <mxPoint x="-110.11000000000001" y="-165" as="targetPoint" />
            <Array as="points">
              <mxPoint x="209.89" y="305" />
              <mxPoint x="209.89" y="-5" />
            </Array>
          </mxGeometry>
        </mxCell>
        <mxCell id="I0bmYpNQW_zSe12yget0-4" style="edgeStyle=orthogonalEdgeStyle;rounded=0;orthogonalLoop=1;jettySize=auto;html=1;exitX=1;exitY=0.5;exitDx=0;exitDy=0;startArrow=ERmandOne;startFill=0;endArrow=ERzeroToMany;endFill=0;strokeWidth=2;strokeColor=#788AA3;fontColor=#46495D;" edge="1" parent="1" source="_ExLKbFrFcypMW6ReSID-19" target="_ExLKbFrFcypMW6ReSID-15">
          <mxGeometry relative="1" as="geometry">
            <Array as="points">
              <mxPoint x="249.89" y="-125" />
              <mxPoint x="249.89" y="-5" />
            </Array>
          </mxGeometry>
        </mxCell>
        <mxCell id="I0bmYpNQW_zSe12yget0-8" style="edgeStyle=orthogonalEdgeStyle;rounded=0;orthogonalLoop=1;jettySize=auto;html=1;startArrow=ERmandOne;startFill=0;endArrow=ERzeroToMany;endFill=0;strokeWidth=2;strokeColor=#788AA3;fontColor=#46495D;exitX=1;exitY=0.5;exitDx=0;exitDy=0;" edge="1" parent="1" source="_ExLKbFrFcypMW6ReSID-6" target="I0bmYpNQW_zSe12yget0-5">
          <mxGeometry relative="1" as="geometry">
            <mxPoint x="649.89" y="-140" as="sourcePoint" />
            <Array as="points">
              <mxPoint x="569.89" y="-125" />
              <mxPoint x="569.89" y="-265" />
            </Array>
          </mxGeometry>
        </mxCell>
      </root>
    </mxGraphModel>
  </diagram>
</mxfile>
